<?xml version="1.0" encoding="utf-8"?>
<!-- Generator: Adobe Illustrator 24.3.0, SVG Export Plug-In . SVG Version: 6.00 Build 0)  -->
<svg version="1.1" id="Layer_1" xmlns="http://www.w3.org/2000/svg" xmlns:xlink="http://www.w3.org/1999/xlink" x="0px" y="0px"
	 viewBox="0 0 671.7 141.9" style="enable-background:new 0 0 671.7 141.9;" xml:space="preserve">
<style type="text/css">
	.st0{fill:url(#SVGID_1_);}
	.st1{fill:#43CBFF;}
</style>
<g id="Layer_2_1_">
	<g id="Layer_1-2">
		
			<linearGradient id="SVGID_1_" gradientUnits="userSpaceOnUse" x1="100.9375" y1="42.3331" x2="41.0125" y2="102.2581" gradientTransform="matrix(1 0 0 -1 0 143.2756)">
			<stop  offset="0" style="stop-color:#43CBFF"/>
			<stop  offset="0.14" style="stop-color:#45B8FB"/>
			<stop  offset="0.73" style="stop-color:#4E6EEB"/>
			<stop  offset="1" style="stop-color:#5151E5"/>
		</linearGradient>
		<path class="st0" d="M100.9,77.1l-48-48L29.1,52.9l48,48c6.6,6.6,17.3,6.6,23.8,0C107.5,94.4,107.5,83.7,100.9,77.1L100.9,77.1z"
			/>
		<path class="st1" d="M31,5C24.2-1.4,13.5-1,7.2,5.8c-6.1,6.5-6.1,16.5,0,23l14,14l9.7-9.5c7.9-7.7,8-20.3,0.3-28.2
			C31.1,5.1,31.1,5.1,31,5z"/>
		<path class="st1" d="M100.9,4.9c-6.6-6.6-17.2-6.6-23.8,0c0,0,0,0,0,0L4.9,77.1c-6.6,6.6-6.6,17.3,0,23.8s17.3,6.6,23.8,0
			l72.2-72.2C107.5,22.2,107.5,11.5,100.9,4.9C100.9,4.9,100.9,4.9,100.9,4.9z"/>
		<path d="M537.8,0c7.5,0,13.6,6.1,13.6,13.6c0,3.6-1.4,7-4,9.6l-26.3,26.3l-3.4,3.4l3.4,3.4l26.3,26.3c5.3,5.3,5.3,13.9,0,19.2
			c-2.5,2.5-6,4-9.6,4c-3.6,0-7.1-1.4-9.6-4L502,75.4l-22.6-22.6L502,30.2L528.2,4C530.8,1.4,534.2,0,537.8,0"/>
		<path d="M636.4,105.6h-51.3c-7.4,0-13.4-6-13.4-13.4c0,0,0,0,0,0l0,0c0-7.4,6-13.4,13.4-13.4c0,0,0,0,0,0h51.3c1.9,0,3.7-0.7,5-2
			c1.3-1.2,2.1-2.9,2.1-4.8c0-1.9-0.7-3.2-2.1-3.8c-1.6-0.6-3.3-0.9-5-0.9h-29.5c-9.3,0.1-18.3-3.5-25-9.9
			c-3.2-3.1-5.7-6.7-7.5-10.7c-1.8-4.1-2.8-8.6-2.8-13.1c0-4.5,0.9-9,2.8-13.1c1.8-4,4.3-7.6,7.5-10.7c3.2-3.1,7.1-5.5,11.2-7.2
			c4.4-1.8,9.1-2.6,13.8-2.6h43.9c7.4,0,13.4,6,13.4,13.4c0,0,0,0,0,0l0,0c0,7.4-6,13.4-13.4,13.4h-43.9c-1.9,0-3.7,0.7-5,2
			c-1.3,1.2-2.1,2.9-2.1,4.7c0,2.1,0.9,4.1,2.6,5.3c1.3,1,2.9,1.6,4.5,1.6h29.5c4.7,0,9.3,0.8,13.7,2.3c4.1,1.4,7.9,3.6,11.2,6.5
			c3.2,2.8,5.8,6.2,7.6,10c1.9,4,2.9,8.3,2.8,12.7c0,4.5-0.9,9-2.8,13.1c-3.7,8.2-10.4,14.6-18.8,17.9
			C645.8,104.8,641.1,105.6,636.4,105.6z"/>
		<path d="M254.1,89.6c0,7-1.4,13.9-4.2,20.4c-2.7,6.2-6.6,11.9-11.5,16.6c-4.9,4.8-10.7,8.6-17,11.2c-6.6,2.8-13.7,4.2-20.8,4.2
			h-0.9c-7.1-0.2-12.6-6-12.5-13.1l0,0c-0.1-7.1,5.6-13,12.7-13.1c0.1,0,0.1,0,0.2,0h0.3c3.6,0.1,7.2-0.5,10.7-1.6
			c2.7-0.9,5.3-2.4,7.4-4.3c2-1.8,3.6-3.9,4.8-6.3c1.2-2.4,2.2-4.9,2.9-7.5V28.7c0-15.9,12.5-28.7,27.9-28.7l0,0"/>
		<path d="M199.5,26.2c14.7,0,26.6,11.9,26.6,26.6s-11.9,26.6-26.6,26.6c-14.7,0-26.6-11.9-26.6-26.6
			C172.9,38.1,184.8,26.2,199.5,26.2 M199.5,0c-29.2,0-52.8,23.6-52.8,52.8s23.6,52.8,52.8,52.8s52.8-23.6,52.8-52.8l0,0
			C252.3,23.6,228.7,0,199.5,0z"/>
		<path d="M358.9,76.9c-4.4-4.3-11.3-4.9-16.4-1.5c-4.3,2.7-9.4,4.2-14.5,4.1c-3.7-0.1-7.4-0.9-10.7-2.6l35.2-35.3l19.1-19.1
			C354.8-1.4,321.9-7.1,298,9.7c-23.8,16.8-29.6,49.7-12.8,73.5c16.4,23.3,48.3,29.4,72.1,13.8c5.9-4,7.4-12,3.5-17.8
			c-0.5-0.7-1-1.3-1.6-1.9L358.9,76.9z M328.4,26.2c2.4,0,4.8,0.3,7.2,1L302.8,60c-0.6-2.1-0.9-4.2-1-6.4
			c-0.4-14.7,11.2-27,25.9-27.4C327.9,26.2,328.2,26.2,328.4,26.2z"/>
		<path d="M466.6,76.9c-4.4-4.3-11.3-4.9-16.4-1.5c-4.4,2.7-9.4,4.2-14.6,4.1c-3.7-0.1-7.4-0.9-10.7-2.6l35.3-35.3l19.1-19.1
			C462.5-1.4,429.6-7.1,405.8,9.7S376.2,59.4,393,83.2c16.4,23.3,48.3,29.4,72.1,13.8c5.9-4,7.4-12,3.4-17.8c-0.5-0.7-1-1.3-1.6-1.9
			L466.6,76.9z M436.1,26.2c2.4,0,4.8,0.3,7.2,1L410.5,60c-0.6-2.1-0.9-4.2-1-6.4c-0.4-14.7,11.1-27,25.8-27.4
			C435.6,26.2,435.9,26.2,436.1,26.2z"/>
	</g>
</g>
</svg>
