<?xml version="1.0" encoding="UTF-8"?>
<svg id="Camada_1" data-name="Camada 1" xmlns="http://www.w3.org/2000/svg" viewBox="0 0 237 98">
  <defs>
    <style>
      .cls-1 {
        fill-rule: evenodd;
      }

      .cls-1, .cls-2 {
        fill: #002e33;
      }

      .cls-1, .cls-2, .cls-3 {
        stroke-width: 0px;
      }

      .cls-3 {
        fill: #00ebb6;
      }
    </style>
  </defs>
  <path class="cls-1" d="m89.06,71.8c.41-.41,1.08-.41,1.49,0l8.26,8.26c.41.41.41,1.08,0,1.49l-4.33,4.33c-.41.41-1.08.41-1.49,0l-8.26-8.27c-.41-.41-.41-1.08,0-1.49l4.33-4.33Z"/>
  <path class="cls-1" d="m98.81,65.66c.41.41.41,1.08,0,1.49l-18.73,18.73c-.41.41-1.08.41-1.49,0l-4.33-4.33c-.41-.41-.41-1.08,0-1.49l18.73-18.73c.41-.41,1.08-.41,1.49,0l4.33,4.33Z"/>
  <path class="cls-1" d="m78.6,61.34c.41-.41,1.08-.41,1.49,0l.86.86c2.16,2.16,2.16,5.67,0,7.84l-1.16,1.16c-.41.41-1.08.41-1.49,0l-4.04-4.04c-.41-.41-.41-1.08,0-1.49l4.33-4.33Z"/>
  <g>
    <path class="cls-2" d="m220.82,68.36c0-1.14.95-1.95,2.14-1.95,1.03,0,1.8.45,2.28,1.3.29.51.84.87,1.41.72l4.14-1.04c.59-.15.94-.76.7-1.31-1.37-3.11-4.47-5.06-8.43-5.06-5.29,0-8.86,3.62-8.86,7.77,0,8.77,11.29,5.91,11.29,9.62,0,1.48-1.19,2.24-2.62,2.24s-2.65-.73-3.36-2.09c-.28-.53-.86-.86-1.43-.69l-4.14,1.25c-.54.16-.87.73-.66,1.26,1.42,3.64,5.43,5.71,9.51,5.71,4.81,0,9.43-3.14,9.43-8.05,0-8.96-11.39-6.15-11.39-9.67Z"/>
    <path class="cls-2" d="m203.91,73.36c-.32-.41-.3-.99.04-1.37l7.75-8.61c.62-.69.13-1.78-.79-1.78h-5.65c-.31,0-.6.13-.8.37l-6.58,7.58c-.65.74-1.87.29-1.87-.7v-13.87c0-.59-.48-1.07-1.07-1.07h-5.11c-.59,0-1.07.48-1.07,1.07v29.47c0,.59.48,1.07,1.07,1.07h5.11c.59,0,1.07-.48,1.07-1.07v-7.32c0-1.01,1.27-1.45,1.9-.66l6.88,8.65c.2.25.51.4.83.4h5.72c.89,0,1.39-1.03.83-1.73l-8.27-10.43Z"/>
    <path class="cls-2" d="m172.69,61.03c-6.58,0-12.34,5.29-12.34,12.53s5.77,12.53,12.53,12.53c4.27,0,7.97-1.79,10.31-5.02.33-.46.19-1.09-.27-1.41l-3.37-2.33c-.49-.34-1.17-.2-1.54.27-1.24,1.61-2.74,2.58-5.13,2.58s-4.37-1.23-5.37-3.39c-.29-.63.22-1.28.91-1.28h15.22c.57,0,1.03-.44,1.04-1.01.06-7.78-4.5-13.48-11.99-13.48Zm3.85,9.96h-7.75c-.73,0-1.24-.72-.86-1.34,1.06-1.75,2.84-2.76,4.82-2.76,2.48,0,4.02,1.32,4.7,2.9.26.6-.25,1.2-.9,1.2Z"/>
    <path class="cls-2" d="m145.52,61.03c-6.58,0-12.34,5.29-12.34,12.53s5.77,12.53,12.53,12.53c4.27,0,7.96-1.79,10.31-5.02.33-.46.19-1.09-.27-1.41l-3.37-2.33c-.5-.34-1.17-.2-1.54.27-1.24,1.61-2.74,2.58-5.13,2.58s-4.37-1.23-5.37-3.39c-.29-.63.22-1.28.91-1.28h15.22c.57,0,1.04-.44,1.04-1.01.06-7.78-4.5-13.48-11.99-13.48Zm3.84,9.96h-7.75c-.73,0-1.24-.72-.86-1.34,1.06-1.75,2.84-2.76,4.82-2.76,2.48,0,4.02,1.32,4.7,2.9.26.6-.25,1.2-.9,1.2Z"/>
    <path class="cls-2" d="m128.13,61.6h-5.45c-.4,0-.73.32-.73.73,0,.69-.97,1.06-1.52.64-1.51-1.14-3.56-1.94-5.91-1.94-6.53,0-11.82,5.38-11.82,12.53s5.29,12.53,11.82,12.53c1.98,0,3.75-.57,5.16-1.43.85-.52,2.28.06,2.28,1.05,0,4.19-2.57,6.38-5.96,6.38-2.74,0-4.81-1.38-5.45-3.72-.14-.53-.59-.95-1.14-.95h-5.07c-.61,0-1.1.51-1.01,1.11.84,5.87,6.24,9.47,12.57,9.47,7.05,0,13.29-4.81,13.29-12.58v-22.76c0-.59-.48-1.07-1.07-1.07Zm-12.08,18.25c-3.53,0-6.15-2.72-6.15-6.29s2.62-6.29,6.15-6.29,6.1,2.72,6.1,6.29-2.62,6.29-6.1,6.29Z"/>
  </g>
  <path class="cls-3" d="m28.62,13.28l14.11,24.97c.38.64.38,1.21.06,1.79l-12.07,22.29c-.45.89-.06,1.53.89,1.53h8.49c.89,0,1.47-.38,1.85-1.15l25.93-49.43c.57-1.15.06-1.92-1.15-1.92h-8.37c-.7,0-1.15.32-1.47.96l-7.34,14.69c-.26.51-.51.7-.89.7s-.64-.19-.89-.7l-7.79-14.75c-.32-.64-.83-.89-1.53-.89h-8.75c-1.21,0-1.72.77-1.09,1.92Zm191.64,33.08h8.05c.83,0,1.28-.45,1.28-1.28v-22.41c0-.83.45-1.28,1.28-1.28h4.47c.83,0,1.28-.45,1.28-1.28v-7.47c0-.83-.45-1.28-1.28-1.28h-4.47c-.83,0-1.28-.45-1.28-1.28V1.28c0-.83-.45-1.28-1.28-1.28h-8.05c-.83,0-1.28.45-1.28,1.28v8.81c0,.83-.45,1.28-1.28,1.28h-2.75c-.83,0-1.28.45-1.28,1.28v7.47c0,.83.45,1.28,1.28,1.28h2.75c.83,0,1.28.45,1.28,1.28v22.41c0,.83.45,1.28,1.28,1.28Zm-16.79-23.95h2.55c3,0,5.11-2.11,5.11-5.11v-1.15c0-3-2.11-5.11-5.11-5.11h-2.55c-3,0-5.11,2.11-5.11,5.11v1.15c0,3,2.11,5.11,5.11,5.11Zm-16.99,23.95h8.05c.83,0,1.28-.45,1.28-1.28V12.64c0-.83-.45-1.28-1.28-1.28h-8.05c-.83,0-1.28.45-1.28,1.28v32.44c0,.83.45,1.28,1.28,1.28Zm-30.72-22.41c1.21-3,4.34-4.85,7.54-4.85,3.96,0,6.26,2.36,7.09,4.92.19.7-.13,1.09-.77,1.09h-13.22c-.57,0-.96-.45-.64-1.15Zm7.73,23.24c6.32,0,11.81-2.68,15.26-7.54.45-.64.32-1.21-.38-1.72l-5.36-3.7c-.7-.51-1.28-.32-1.79.32-1.92,2.49-4.09,4.02-7.73,4.02-3.83,0-7.02-2.11-8.24-5.75-.26-.64.06-1.09.77-1.09h23.37c.77,0,1.34-.45,1.34-1.28.19-11.49-6.45-19.92-17.5-19.92-9.64,0-18.07,7.09-18.07,18.33,0,10.54,7.79,18.33,18.33,18.33Zm-40.55-.83h6.07c.7,0,1.15-.26,1.47-.96l14.82-32.18c.51-1.15,0-1.85-1.21-1.85h-7.79c-.7,0-1.15.26-1.47.96l-7.85,17.88c-.25.57-.51.7-.83.7s-.57-.13-.83-.7l-7.86-17.88c-.32-.7-.77-.96-1.47-.96h-8.11c-1.21,0-1.72.7-1.21,1.85l14.82,32.18c.32.7.77.96,1.47.96Zm-50.19,0h8.05c.83,0,1.28-.45,1.28-1.28v-17.94c0-4.15,2.36-7.15,6.32-7.15s5.81,2.68,5.81,6.32v18.77c0,.83.45,1.28,1.28,1.28h8.05c.83,0,1.28-.45,1.28-1.28v-21.71c0-7.6-4.79-12.84-12.52-12.84-2.94,0-4.98.89-7.15,2.36-.83.57-1.34.89-1.85.89-.77,0-1.15-.45-1.21-1.15-.06-.83-.38-1.28-1.28-1.28h-8.05c-.83,0-1.28.45-1.28,1.28v32.44c0,.83.45,1.28,1.28,1.28Zm-58.37.83c8.37,0,13.92-4.66,13.92-11.88,0-8.17-6.26-9.64-11.18-10.92-3.07-.77-5.62-1.28-5.62-3.32,0-1.6,1.4-2.43,3.07-2.43,1.53,0,2.68.83,3.38,2.17.45.83.96,1.09,1.98.83l6.45-1.66c.96-.26,1.28-.89.96-1.79-1.92-4.66-6.64-7.66-12.58-7.66-7.79,0-13.09,4.73-13.09,11.05,0,7.73,6,9.32,10.73,10.66,3.26.96,5.94,1.53,5.94,3.83,0,1.92-1.53,2.94-3.7,2.94s-3.83-1.15-5.04-3.38c-.45-.83-1.02-1.09-2.04-.77l-6.39,1.92c-.77.26-1.21.96-.89,1.79,1.98,5.49,8.05,8.62,14.11,8.62Z"/>
</svg>