<svg width="910" height="974" viewBox="0 0 910 974" fill="none" xmlns="http://www.w3.org/2000/svg">
<mask id="mask0_4617_131163" style="mask-type:alpha" maskUnits="userSpaceOnUse" x="0" y="0" width="910" height="974">
<path d="M910 0H72C32.2355 0 0 32.2355 0 72V974H838C877.765 974 910 941.765 910 902V0Z" fill="#D9D9D9"/>
</mask>
<g mask="url(#mask0_4617_131163)">
<path fill-rule="evenodd" clip-rule="evenodd" d="M36.8161 87.4421C140.129 -65.1747 311.402 33.6062 393.067 167.78C474.732 301.955 451.144 387.154 346.457 489.892C241.77 592.63 83.4684 586.225 54.4603 448.13C25.4523 310.035 -66.497 240.059 36.8161 87.4421Z" fill="#CF97FF"/>
<path fill-rule="evenodd" clip-rule="evenodd" d="M82.9733 116.016C174.47 -19.1455 326.154 68.3377 398.479 187.166C470.804 305.995 449.914 381.449 357.2 472.437C264.486 563.425 124.29 557.753 98.5994 435.452C72.9091 313.151 -8.52367 251.178 82.9733 116.016Z" fill="#A235FF"/>
<path d="M373.182 145.84C323.886 85.0429 253.759 36.0822 185.982 22.7856C152.128 16.1441 118.934 18.4108 89.1855 32.4461C59.448 46.4759 32.9644 72.3537 12.6708 113.272C-7.69368 154.332 -16.6548 188.566 -17.9815 218.861C-19.3077 249.144 -13.0113 275.619 -2.67767 301.186C6.32374 323.456 18.3587 344.976 31.0994 367.758C33.0142 371.182 34.945 374.635 36.8838 378.122C51.6987 404.773 66.9277 433.398 78.8218 466.809C102.2 532.478 152.679 561.521 208.416 560.018C264.302 558.512 325.688 526.264 370.344 468.775C415.207 411.019 440.355 360.599 442.172 309.601C443.988 258.648 422.523 206.693 373.182 145.84Z" stroke="#060D16" stroke-width="4"/>
<path fill-rule="evenodd" clip-rule="evenodd" d="M751.362 1045.2C758.873 1165.55 633.939 1271.89 513.441 1268.64C392.942 1265.4 330.307 1206.12 322.795 1085.77C315.284 965.423 367.239 853.562 487.738 856.81C608.236 860.059 743.851 924.855 751.362 1045.2Z" fill="#CF97FF"/>
<path fill-rule="evenodd" clip-rule="evenodd" d="M746.958 1072.42C753.839 1182.67 639.387 1280.08 528.999 1277.11C418.611 1274.13 361.231 1219.83 354.35 1109.58C347.469 999.327 395.065 896.852 505.453 899.828C615.841 902.804 740.077 962.163 746.958 1072.42Z" fill="#A235FF"/>
<path d="M455.928 1256.77C512.75 1274.91 578.376 1267.34 633.128 1240.58C687.878 1213.82 731.513 1168.01 744.685 1109.92C757.843 1051.9 736.858 998.139 698.154 954.203C659.432 910.246 603.083 876.276 545.989 858.043C489.321 839.946 441.013 853.819 403.483 886.741C365.866 919.74 339.014 971.954 325.739 1030.5C312.47 1089.01 316.71 1136.44 338.249 1173.73C359.788 1211.03 398.833 1238.53 455.928 1256.77Z" stroke="#060D16" stroke-width="4"/>
<path fill-rule="evenodd" clip-rule="evenodd" d="M491.628 303.62C484.211 176.925 619.747 160.016 720.964 199.756C822.18 239.495 845.034 296.065 830.737 395.948C816.439 495.831 726.843 558.066 652.887 494.302C578.93 430.539 499.046 430.315 491.628 303.62Z" fill="#73FBF7"/>
<path fill-rule="evenodd" clip-rule="evenodd" d="M504.361 333.649C497.744 220.626 618.654 205.541 708.949 240.993C799.244 276.444 819.632 326.909 806.877 416.014C794.122 505.119 714.194 560.638 648.218 503.756C582.242 446.873 510.978 446.673 504.361 333.649Z" fill="#0FEFE8"/>
<path d="M737.585 208.569C690.132 182.768 632.593 169.973 586.037 179.214C562.794 183.828 542.36 193.915 527.219 210.539C512.087 227.154 502.103 250.451 500.016 281.74C497.919 313.189 501.274 337.272 508.421 356.836C515.564 376.388 526.537 391.545 539.856 405.092C551.467 416.903 564.81 427.444 578.974 438.634C581.103 440.316 583.25 442.013 585.412 443.73C601.926 456.845 619.256 471.132 635.73 489.359C667.856 524.901 707.448 530.138 742.346 514.687C777.38 499.174 807.865 462.702 821.06 414.496C834.344 365.966 836.976 327.386 824.687 294.577C812.414 261.812 785.104 234.405 737.585 208.569Z" stroke="#060D16" stroke-width="4"/>
<path fill-rule="evenodd" clip-rule="evenodd" d="M108.4 667.907C103.61 586.093 191.134 575.173 256.496 600.836C321.858 626.498 336.616 663.029 327.383 727.529C318.15 792.03 260.293 832.219 212.534 791.043C164.776 749.867 113.19 749.722 108.4 667.907Z" fill="#73FBF7"/>
<path fill-rule="evenodd" clip-rule="evenodd" d="M121.789 657.045C117.406 582.176 197.499 572.184 257.312 595.667C317.125 619.151 330.63 652.58 322.181 711.605C313.732 770.63 260.787 807.406 217.083 769.726C173.379 732.046 126.172 731.914 121.789 657.045Z" fill="#0FEFE8"/>
<path d="M266.892 607.145C236.349 590.539 199.363 582.335 169.506 588.262C154.612 591.218 141.564 597.672 131.909 608.273C122.262 618.865 115.863 633.749 114.524 653.824C113.175 674.059 115.336 689.508 119.91 702.028C124.48 714.537 131.501 724.242 140.049 732.936C147.514 740.529 156.091 747.306 165.241 754.535C166.616 755.621 168.004 756.718 169.403 757.829C180.073 766.303 191.302 775.559 201.982 787.374C222.518 810.095 247.756 813.412 270.015 803.556C292.411 793.64 311.975 770.279 320.451 739.316C329.015 708.028 330.671 683.29 322.813 662.311C314.971 641.375 297.499 623.787 266.892 607.145Z" stroke="#060D16" stroke-width="4"/>
<path fill-rule="evenodd" clip-rule="evenodd" d="M798.396 553.192C833.166 516.137 875.442 550.403 891.796 590.428C908.15 630.453 898.011 652.611 865.046 676.038C832.08 699.466 789.298 690.889 787.439 652.071C785.581 613.253 763.625 590.248 798.396 553.192Z" fill="#73FBF7"/>
<path fill-rule="evenodd" clip-rule="evenodd" d="M807.19 571.943C837.761 539.363 874.93 569.49 889.309 604.681C903.688 639.871 894.774 659.353 865.79 679.95C836.806 700.548 799.191 693.007 797.557 658.878C795.923 624.749 776.62 604.522 807.19 571.943Z" fill="#0FEFE8"/>
<path d="M892.653 597.93C887.119 577.376 875.103 557.602 859.88 546.985C852.298 541.697 843.984 538.719 835.29 538.945C826.609 539.171 817.34 542.596 807.842 550.482C798.222 558.469 792.268 565.946 788.643 573.211C785.024 580.465 783.671 587.62 783.411 595.054C783.182 601.564 783.789 608.219 784.442 615.379C784.541 616.455 784.64 617.543 784.737 618.642C785.479 627.013 786.113 636.01 785.35 645.869C783.918 664.372 793.006 676.703 806.634 682.27C820.403 687.894 839.024 686.673 856.412 677.313C874.096 667.793 885.768 658.065 891.75 645.825C897.713 633.627 898.205 618.554 892.653 597.93Z" stroke="#060D16" stroke-width="4"/>
<path fill-rule="evenodd" clip-rule="evenodd" d="M523.712 445.314C521.481 480.89 483.116 481.059 456.241 466.584C429.367 452.109 424.914 435.569 432.289 408.198C439.665 380.826 466.759 366.478 485.217 386.737C503.675 406.997 525.942 409.738 523.712 445.314Z" fill="#AEF6CD"/>
<path fill-rule="evenodd" clip-rule="evenodd" d="M525.612 448.324C523.765 477.785 491.994 477.925 469.739 465.938C447.484 453.951 443.796 440.254 449.904 417.587C456.012 394.921 478.448 383.039 493.734 399.816C509.019 416.593 527.459 418.863 525.612 448.324Z" fill="#53E291"/>
<path d="M460.241 466.108C473.926 472.109 489.981 474.235 502.376 470.663C508.54 468.887 513.728 465.726 517.342 461.007C520.949 456.298 523.114 449.873 522.952 441.333C522.787 432.632 521.298 426.178 518.931 421.095C516.57 416.022 513.282 412.198 509.345 408.822C505.886 405.856 501.983 403.277 497.743 400.476C497.106 400.055 496.462 399.629 495.81 399.197C490.862 395.91 485.586 392.269 480.447 387.474C471.066 378.721 460.54 378.269 451.682 383.126C442.694 388.055 435.251 398.576 432.778 412.036C430.245 425.827 430.492 436.324 434.526 444.807C438.539 453.249 446.488 460.078 460.241 466.108Z" stroke="#060D16" stroke-width="4"/>
<path fill-rule="evenodd" clip-rule="evenodd" d="M974.443 242.776C970.98 298.009 911.416 298.272 869.692 275.799C827.968 253.326 821.055 227.647 832.506 185.152C843.957 142.656 886.021 120.38 914.678 151.834C943.336 183.287 977.906 187.544 974.443 242.776Z" fill="#AEF6CD"/>
<path fill-rule="evenodd" clip-rule="evenodd" d="M977.392 247.441C974.524 293.179 925.198 293.397 890.646 274.787C856.095 256.177 850.369 234.912 859.852 199.721C869.335 164.53 904.169 146.083 927.9 172.13C951.632 198.177 980.26 201.702 977.392 247.441Z" fill="#53E291"/>
<path d="M875.458 276.067C896.869 285.456 922.067 288.825 941.628 283.188C951.374 280.38 959.65 275.36 965.434 267.809C971.209 260.268 974.624 250.038 974.369 236.574C974.11 222.951 971.777 212.773 968.024 204.71C964.276 196.658 959.058 190.6 952.857 185.282C947.43 180.628 941.306 176.582 934.729 172.238C933.741 171.585 932.742 170.925 931.735 170.256C924.062 165.16 915.935 159.548 908.026 152.169C893.106 138.248 876.242 137.49 862.077 145.257C847.782 153.096 836.063 169.745 832.175 190.906C828.227 212.397 828.567 228.973 834.977 242.456C841.368 255.898 853.979 266.648 875.458 276.067Z" stroke="#060D16" stroke-width="4"/>
<path fill-rule="evenodd" clip-rule="evenodd" d="M-187.423 1021.51C-234.174 953.235 -164.184 898.74 -94.3047 887.283C-24.4253 875.826 7.36065 899.814 32.97 960.337C58.5793 1020.86 29.4841 1085.39 -33.2543 1074.37C-95.9927 1063.35 -140.672 1089.78 -187.423 1021.51Z" fill="#F3FD58"/>
<path fill-rule="evenodd" clip-rule="evenodd" d="M-195.202 1018.68C-233.918 962.14 -175.958 917.012 -118.09 907.524C-60.2224 898.036 -33.9001 917.902 -12.6927 968.021C8.51471 1018.14 -15.5793 1071.58 -67.5337 1062.46C-119.488 1053.33 -156.487 1075.22 -195.202 1018.68Z" fill="#FBFFB9"/>
<path d="M-101.607 891.26C-135.651 899.706 -168.689 918.755 -186.734 943.425C-195.735 955.732 -200.966 969.375 -200.833 983.788C-200.7 998.188 -195.21 1013.57 -182.4 1029.35C-169.491 1045.26 -157.268 1055.24 -145.269 1061.41C-133.281 1067.58 -121.404 1070 -109.093 1070.64C-98.3427 1071.19 -87.3288 1070.38 -75.5822 1069.52C-73.8169 1069.39 -72.0351 1069.26 -70.2351 1069.14C-56.5073 1068.17 -41.8288 1067.4 -25.7989 1068.89C5.04438 1071.78 26.0195 1057.08 35.7336 1034.67C45.5086 1012.11 43.9487 981.513 28.9442 952.811C13.785 923.814 -1.99397 904.354 -22.2442 894.145C-42.4538 883.957 -67.4944 882.797 -101.607 891.26Z" stroke="#060D16" stroke-width="4"/>
<path fill-rule="evenodd" clip-rule="evenodd" d="M1076.5 505.69C1070.92 594.598 975.043 595.021 907.88 558.847C840.718 522.672 829.59 481.336 848.022 412.932C866.455 344.528 934.166 308.67 980.295 359.301C1026.42 409.931 1082.07 416.783 1076.5 505.69Z" fill="#F3FD58"/>
<path fill-rule="evenodd" clip-rule="evenodd" d="M1097.46 510.03C1091.88 598.937 996.004 599.361 928.842 563.186C861.68 527.011 850.551 485.676 868.984 417.272C887.416 348.867 955.127 313.009 1001.26 363.64C1047.39 414.271 1103.03 421.122 1097.46 510.03Z" fill="#FBFFB9"/>
<path d="M916.672 560.402C951.32 575.595 992.181 581.094 1024.02 571.921C1039.9 567.344 1053.47 559.138 1062.97 546.735C1072.46 534.343 1078.01 517.595 1077.6 495.698C1077.18 473.641 1073.4 457.082 1067.27 443.915C1061.15 430.759 1052.62 420.874 1042.55 412.23C1033.75 404.685 1023.82 398.126 1013.24 391.137C1011.65 390.087 1010.04 389.027 1008.42 387.952C996.083 379.756 983.072 370.769 970.419 358.963C946.011 336.189 918.288 334.904 895.031 347.657C871.644 360.482 852.599 387.628 846.288 421.982C839.917 456.667 840.414 483.655 850.896 505.704C861.359 527.711 881.958 545.18 916.672 560.402Z" stroke="#060D16" stroke-width="4"/>
<path d="M705.467 582.297C699.001 584.536 696.213 585.606 693.204 586.563C648.971 599.713 615.569 625.907 592.102 665.796C584.277 679.276 574.901 692.516 564.108 703.643C501.04 768.216 385.494 748.718 349.866 657.457C328.984 604.008 344.33 547.466 385.516 511.103C422.55 478.442 484.528 466.61 536.13 495.267C578.359 518.844 622.286 539.683 665.532 561.838C677.667 568.055 690.023 574.385 705.467 582.297Z" fill="#EC6695"/>
<path d="M698.013 596.678C691.946 598.78 689.329 599.784 686.506 600.681C645.003 613.02 613.662 637.597 591.642 675.025C584.301 687.673 575.503 700.097 565.376 710.537C506.2 771.125 397.783 752.83 364.354 667.2C344.761 617.05 359.16 563.997 397.805 529.878C432.553 499.232 490.707 488.13 539.125 515.019C578.748 537.141 619.965 556.694 660.541 577.482C671.928 583.315 683.521 589.254 698.013 596.678Z" fill="#D12D67"/>
<path d="M593.247 657.741L593.252 657.731C613.762 615.712 645.404 586.674 688.949 569.977C690.625 569.297 692.205 568.594 694.47 567.587C695.095 567.309 695.773 567.008 696.52 566.677L696.475 566.658L696.385 566.621L696.294 566.583L696.204 566.545L696.114 566.507L696.023 566.469L695.933 566.432L695.843 566.394L695.753 566.356L695.663 566.319L695.573 566.281L695.483 566.243L695.394 566.206L695.304 566.168L695.214 566.131L695.125 566.093L695.035 566.056L694.946 566.019L694.856 565.981L694.767 565.944L694.678 565.906L694.589 565.869L694.499 565.832L694.41 565.795L694.321 565.757L694.232 565.72L694.144 565.683L694.055 565.646L693.966 565.609L693.877 565.572L693.789 565.534L693.7 565.497L693.612 565.46L693.523 565.423L693.435 565.386L693.347 565.349L693.258 565.313L693.17 565.276L693.082 565.239L692.994 565.202L692.906 565.165L692.818 565.128L692.73 565.092L692.642 565.055L692.555 565.018L692.467 564.981L692.379 564.945L692.292 564.908L692.204 564.871L692.117 564.835L692.03 564.798L691.942 564.762L691.855 564.725L691.768 564.689L691.681 564.652L691.594 564.616L691.507 564.579L691.42 564.543L691.333 564.507L691.246 564.47L691.159 564.434L691.072 564.398L690.986 564.362L690.899 564.325L690.813 564.289L690.726 564.253L690.64 564.217L690.553 564.181L690.467 564.145L690.381 564.108L690.294 564.072L690.208 564.036L690.122 564L690.036 563.964L689.95 563.928L689.864 563.892L689.779 563.856L689.693 563.821L689.607 563.785L689.521 563.749L689.436 563.713L689.35 563.677L689.265 563.641L689.179 563.606L689.094 563.57L689.008 563.534L688.923 563.499L688.838 563.463L688.753 563.427L688.668 563.392L688.583 563.356L688.498 563.32L688.413 563.285L688.328 563.249L688.243 563.214L688.158 563.178L688.073 563.143L687.989 563.108L687.904 563.072L687.819 563.037L687.735 563.001L687.65 562.966L687.566 562.931L687.482 562.895L687.397 562.86L687.313 562.825L687.229 562.79L687.145 562.754L687.061 562.719L686.977 562.684L686.893 562.649L686.809 562.614L686.725 562.579L686.641 562.544L686.557 562.509L686.473 562.474L686.39 562.439L686.306 562.404L686.223 562.369L686.139 562.334L686.056 562.299L685.972 562.264L685.889 562.229L685.805 562.194L685.722 562.159L685.639 562.124L685.556 562.09L685.473 562.055L685.39 562.02L685.307 561.985L685.224 561.951L685.141 561.916L685.058 561.881L684.975 561.847L684.892 561.812L684.81 561.777L684.727 561.743L684.644 561.708L684.562 561.674L684.479 561.639L684.397 561.605L684.314 561.57L684.232 561.536L684.15 561.501L684.067 561.467L683.985 561.432L683.903 561.398L683.821 561.364L683.739 561.329L683.657 561.295L683.575 561.261L683.493 561.226L683.411 561.192L683.329 561.158L683.247 561.124L683.165 561.089L683.084 561.055L683.002 561.021L682.92 560.987L682.839 560.953L682.757 560.919L682.676 560.885L682.594 560.85L682.513 560.816L682.432 560.782L682.35 560.748L682.269 560.714L682.188 560.68L682.107 560.646L682.026 560.612L681.944 560.579L681.863 560.545L681.782 560.511L681.701 560.477L681.621 560.443L681.54 560.409L681.459 560.375L681.378 560.342L681.297 560.308L681.217 560.274L681.136 560.24L681.056 560.207L680.975 560.173L680.894 560.139L680.814 560.106L680.734 560.072L680.653 560.038L680.573 560.005L680.493 559.971L680.412 559.937L680.332 559.904L680.252 559.87L680.172 559.837L680.092 559.803L680.012 559.77L679.932 559.736L679.852 559.703L679.772 559.669L679.692 559.636L679.612 559.603L679.532 559.569L679.452 559.536L679.373 559.502L679.293 559.469L679.213 559.436L679.134 559.402L679.054 559.369L678.975 559.336L678.895 559.303L678.816 559.269L678.736 559.236L678.657 559.203L678.578 559.17L678.498 559.137L678.419 559.103L678.34 559.07L678.261 559.037L678.182 559.004L678.103 558.971L678.023 558.938L677.944 558.905L677.865 558.872L677.787 558.839L677.708 558.806L677.629 558.773L677.55 558.74L677.471 558.707L677.392 558.674L677.314 558.641L677.235 558.608L677.156 558.575L677.078 558.542L676.999 558.509L676.921 558.476L676.842 558.444L676.764 558.411L676.685 558.378L676.607 558.345L676.528 558.312L676.45 558.28L676.372 558.247L676.294 558.214L676.215 558.181L676.137 558.149L676.059 558.116L675.981 558.083L675.903 558.051L675.825 558.018L675.747 557.985L675.669 557.953L675.591 557.92L675.513 557.887L675.435 557.855L675.357 557.822L675.279 557.79L675.202 557.757L675.124 557.725L675.046 557.692L674.969 557.66L674.891 557.627L674.813 557.595L674.736 557.562L674.658 557.53L674.581 557.497L674.503 557.465L674.426 557.433L674.348 557.4L674.271 557.368L674.194 557.335L674.116 557.303L674.039 557.271L673.962 557.238L673.885 557.206L673.807 557.174L673.73 557.141L673.653 557.109L673.576 557.077L673.499 557.045L673.422 557.012L673.345 556.98L673.268 556.948L673.191 556.916L673.114 556.884L673.037 556.851L672.96 556.819L672.883 556.787L672.807 556.755L672.73 556.723L672.653 556.691L672.576 556.659L672.5 556.627L672.423 556.595L672.346 556.562L672.27 556.53L672.193 556.498L672.117 556.466L672.04 556.434L671.964 556.402L671.887 556.37L671.811 556.338L671.734 556.306L671.658 556.274L671.581 556.242L671.505 556.21L671.429 556.179L671.353 556.147L671.276 556.115L671.2 556.083L671.124 556.051L671.048 556.019L670.972 555.987L670.895 555.955L670.819 555.924L670.743 555.892L670.667 555.86L670.591 555.828L670.515 555.796L670.439 555.765L670.363 555.733L670.287 555.701L670.211 555.669L670.136 555.637L670.06 555.606L669.984 555.574L669.908 555.542L669.832 555.511L669.757 555.479L669.681 555.447L669.605 555.416L669.53 555.384L669.454 555.352L669.378 555.321L669.303 555.289L669.227 555.257L669.151 555.226L669.076 555.194L669 555.162L668.925 555.131L668.849 555.099L668.774 555.068L668.699 555.036L668.623 555.005L668.548 554.973L668.472 554.942L668.397 554.91L668.322 554.878L668.246 554.847L668.171 554.815L668.096 554.784L668.021 554.753L667.945 554.721L667.87 554.69L667.795 554.658L667.72 554.627L667.645 554.595L667.57 554.564L667.495 554.532L667.419 554.501L667.344 554.47L667.269 554.438L667.194 554.407L667.119 554.375L667.044 554.344L666.969 554.313L666.894 554.281L666.82 554.25L666.745 554.219L666.67 554.187L666.595 554.156L666.52 554.125L666.445 554.093L666.37 554.062L666.296 554.031L666.221 553.999L666.146 553.968L666.071 553.937L665.997 553.906L665.922 553.874L665.847 553.843L665.772 553.812L665.698 553.781L665.623 553.749L665.549 553.718L665.474 553.687L665.399 553.656L665.325 553.625L665.25 553.593L665.176 553.562L665.101 553.531L665.027 553.5L664.952 553.469L664.878 553.437L664.803 553.406L664.729 553.375L664.654 553.344L664.58 553.313L664.505 553.282L664.431 553.251L664.357 553.219L664.282 553.188L664.208 553.157L664.134 553.126L664.059 553.095L663.985 553.064L663.911 553.033L663.836 553.002L663.762 552.971L663.688 552.94L663.614 552.909L663.539 552.877L663.465 552.846L663.391 552.815L663.317 552.784L663.243 552.753L663.168 552.722L663.094 552.691L663.02 552.66L662.946 552.629L662.872 552.598L662.798 552.567L662.724 552.536L662.649 552.505L662.575 552.474L662.501 552.443L662.427 552.412L662.353 552.381L662.279 552.35L662.205 552.319L662.131 552.288L662.057 552.257L661.983 552.226L661.909 552.195L661.835 552.164L661.761 552.133L661.687 552.103L661.613 552.072L661.539 552.041L661.465 552.01L661.392 551.979L661.318 551.948L661.244 551.917L661.17 551.886L661.096 551.855L661.022 551.824L660.948 551.793L660.874 551.762L660.8 551.731L660.727 551.701L660.653 551.67L660.579 551.639L660.505 551.608L660.431 551.577L660.358 551.546L660.284 551.515L660.21 551.484L660.136 551.453L660.062 551.423L659.989 551.392L659.915 551.361L659.841 551.33L659.767 551.299L659.694 551.268L659.62 551.237L659.546 551.207L659.472 551.176L659.399 551.145C645.27 545.233 631.067 539.45 616.86 533.666C586.055 521.124 555.236 508.576 525.139 494.699C472.302 470.485 412.335 486.795 378.497 521.648C340.828 560.489 330.102 617.149 354.707 668.057L354.707 668.058C396.692 754.983 511.62 765.337 568.548 697.216C578.311 685.451 586.546 671.678 593.247 657.741Z" stroke="#060D16" stroke-width="4"/>
<path d="M696.427 566.638L696.385 566.62L696.294 566.583L696.204 566.545L696.114 566.507L696.023 566.469L695.933 566.432L695.843 566.394L695.753 566.356L695.663 566.319L695.573 566.281L695.483 566.243L695.394 566.206L695.304 566.168L695.214 566.131L695.125 566.093L695.035 566.056L694.946 566.018L694.856 565.981L694.767 565.944L694.678 565.906L694.589 565.869L694.5 565.832L694.41 565.794L694.321 565.757L694.233 565.72L694.144 565.683L694.055 565.646L693.966 565.608L693.877 565.571L693.789 565.534L693.7 565.497L693.612 565.46L693.523 565.423L693.435 565.386L693.347 565.349L693.258 565.312L693.17 565.275L693.082 565.239L692.994 565.202L692.906 565.165L692.818 565.128L692.73 565.091L692.643 565.055L692.555 565.018L692.467 564.981L692.379 564.945L692.292 564.908L692.204 564.871L692.117 564.835L692.03 564.798L691.942 564.762L691.855 564.725L691.768 564.689L691.681 564.652L691.594 564.616L691.507 564.579L691.42 564.543L691.333 564.507L691.246 564.47L691.159 564.434L691.072 564.398L690.986 564.361L690.899 564.325L690.813 564.289L690.726 564.253L690.64 564.217L690.553 564.18L690.467 564.144L690.381 564.108L690.295 564.072L690.208 564.036L690.122 564L690.036 563.964L689.95 563.928L689.864 563.892L689.779 563.856L689.693 563.82L689.607 563.785L689.521 563.749L689.436 563.713L689.35 563.677L689.265 563.641L689.179 563.606L689.094 563.57L689.008 563.534L688.923 563.498L688.838 563.463L688.753 563.427L688.668 563.391L688.583 563.356L688.498 563.32L688.413 563.285L688.328 563.249L688.243 563.214L688.158 563.178L688.073 563.143L687.989 563.107L687.904 563.072L687.819 563.037L687.735 563.001L687.65 562.966L687.566 562.931L687.482 562.895L687.397 562.86L687.313 562.825L687.229 562.789L687.145 562.754L687.061 562.719L686.977 562.684L686.893 562.649L686.809 562.614L686.725 562.579L686.641 562.543L686.557 562.508L686.474 562.473L686.39 562.438L686.306 562.403L686.223 562.368L686.139 562.333L686.056 562.299L685.972 562.264L685.889 562.229L685.806 562.194L685.722 562.159L685.639 562.124L685.556 562.089L685.473 562.055L685.39 562.02L685.307 561.985L685.224 561.95L685.141 561.916L685.058 561.881L684.975 561.846L684.892 561.812L684.81 561.777L684.727 561.743L684.644 561.708L684.562 561.673L684.479 561.639L684.397 561.604L684.314 561.57L684.232 561.535L684.15 561.501L684.067 561.467L683.985 561.432L683.903 561.398L683.821 561.363L683.739 561.329L683.657 561.295L683.575 561.26L683.493 561.226L683.411 561.192L683.329 561.158L683.247 561.123L683.165 561.089L683.084 561.055L683.002 561.021L682.92 560.987L682.839 560.953L682.757 560.918L682.676 560.884L682.594 560.85L682.513 560.816L682.432 560.782L682.35 560.748L682.269 560.714L682.188 560.68L682.107 560.646L682.026 560.612L681.945 560.578L681.864 560.544L681.783 560.511L681.702 560.477L681.621 560.443L681.54 560.409L681.459 560.375L681.378 560.341L681.298 560.308L681.217 560.274L681.136 560.24L681.056 560.206L680.975 560.173L680.895 560.139L680.814 560.105L680.734 560.072L680.653 560.038L680.573 560.004L680.493 559.971L680.412 559.937L680.332 559.904L680.252 559.87L680.172 559.837L680.092 559.803L680.012 559.77L679.932 559.736L679.852 559.703L679.772 559.669L679.692 559.636L679.612 559.602L679.532 559.569L679.453 559.536L679.373 559.502L679.293 559.469L679.213 559.436L679.134 559.402L679.054 559.369L678.975 559.336L678.895 559.303L678.816 559.269L678.736 559.236L678.657 559.203L678.578 559.17L678.498 559.136L678.419 559.103L678.34 559.07L678.261 559.037L678.182 559.004L678.103 558.971L678.024 558.938L677.945 558.905L677.866 558.872L677.787 558.839L677.708 558.806L677.629 558.773L677.55 558.74L677.471 558.707L677.392 558.674L677.314 558.641L677.235 558.608L677.156 558.575L677.078 558.542L676.999 558.509L676.921 558.476L676.842 558.443L676.764 558.411L676.685 558.378L676.607 558.345L676.529 558.312L676.45 558.279L676.372 558.247L676.294 558.214L676.215 558.181L676.137 558.149L676.059 558.116L675.981 558.083L675.903 558.05L675.825 558.018L675.747 557.985L675.669 557.953L675.591 557.92L675.513 557.887L675.435 557.855L675.357 557.822L675.28 557.79L675.202 557.757L675.124 557.725L675.046 557.692L674.969 557.66L674.891 557.627L674.813 557.595L674.736 557.562L674.658 557.53L674.581 557.497L674.503 557.465L674.426 557.432L674.348 557.4L674.271 557.368L674.194 557.335L674.116 557.303L674.039 557.271L673.962 557.238L673.885 557.206L673.807 557.174L673.73 557.141L673.653 557.109L673.576 557.077L673.499 557.045L673.422 557.012L673.345 556.98L673.268 556.948L673.191 556.916L673.114 556.883L673.037 556.851L672.96 556.819L672.883 556.787L672.807 556.755L672.73 556.723L672.653 556.691L672.576 556.659L672.5 556.626L672.423 556.594L672.346 556.562L672.27 556.53L672.193 556.498L672.117 556.466L672.04 556.434L671.964 556.402L671.887 556.37L671.811 556.338L671.734 556.306L671.658 556.274L671.582 556.242L671.505 556.21L671.429 556.178L671.353 556.146L671.276 556.115L671.2 556.083L671.124 556.051L671.048 556.019L670.972 555.987L670.895 555.955L670.819 555.923L670.743 555.892L670.667 555.86L670.591 555.828L670.515 555.796L670.439 555.764L670.363 555.733L670.287 555.701L670.212 555.669L670.136 555.637L670.06 555.606L669.984 555.574L669.908 555.542L669.832 555.51L669.757 555.479L669.681 555.447L669.605 555.415L669.53 555.384L669.454 555.352L669.378 555.32L669.303 555.289L669.227 555.257L669.152 555.226L669.076 555.194L669 555.162L668.925 555.131L668.849 555.099L668.774 555.068L668.699 555.036L668.623 555.004L668.548 554.973L668.472 554.941L668.397 554.91L668.322 554.878L668.246 554.847L668.171 554.815L668.096 554.784L668.021 554.752L667.945 554.721L667.87 554.689L667.795 554.658L667.72 554.627L667.645 554.595L667.57 554.564L667.495 554.532L667.42 554.501L667.344 554.469L667.269 554.438L667.194 554.407L667.119 554.375L667.044 554.344L666.969 554.312L666.895 554.281L666.82 554.25L666.745 554.218L666.67 554.187L666.595 554.156L666.52 554.124L666.445 554.093L666.37 554.062L666.296 554.031L666.221 553.999L666.146 553.968L666.071 553.937L665.997 553.905L665.922 553.874L665.847 553.843L665.773 553.812L665.698 553.78L665.623 553.749L665.549 553.718L665.474 553.687L665.399 553.656L665.325 553.624L665.25 553.593L665.176 553.562L665.101 553.531L665.027 553.5L664.952 553.468L664.878 553.437L664.803 553.406L664.729 553.375L664.654 553.344L664.58 553.313L664.506 553.282L664.431 553.25L664.357 553.219L664.282 553.188L664.208 553.157L664.134 553.126L664.059 553.095L663.985 553.064L663.911 553.033L663.836 553.002L663.762 552.97L663.688 552.939L663.614 552.908L663.539 552.877L663.465 552.846L663.391 552.815L663.317 552.784L663.243 552.753L663.168 552.722L663.094 552.691L663.02 552.66L662.946 552.629L662.872 552.598L662.798 552.567L662.724 552.536L662.65 552.505L662.575 552.474L662.501 552.443L662.427 552.412L662.353 552.381L662.279 552.35L662.205 552.319L662.131 552.288L662.057 552.257L661.983 552.226L661.909 552.195L661.835 552.164L661.761 552.133L661.687 552.102L661.613 552.071L661.539 552.04L661.466 552.01L661.392 551.979L661.318 551.948L661.244 551.917L661.17 551.886L661.096 551.855L661.022 551.824L660.948 551.793L660.874 551.762L660.801 551.731L660.727 551.7L660.653 551.669L660.579 551.639L660.505 551.608L660.431 551.577L660.358 551.546L660.284 551.515L660.21 551.484L660.136 551.453L660.062 551.422L659.989 551.392L659.915 551.361L659.841 551.33L659.767 551.299L659.694 551.268L659.62 551.237L659.546 551.206L659.472 551.176L659.399 551.145C637.03 541.785 614.881 532.384 592.681 522.962L592.512 522.89C570.254 513.443 547.944 503.974 525.301 494.5L525.27 494.487L525.239 494.473C472.407 470.259 412.341 486.789 378.497 521.647C340.825 560.491 330.009 617.377 354.704 668.052L354.707 668.058C396.692 754.983 511.62 765.337 568.548 697.216C578.311 685.451 586.546 671.678 593.247 657.741L593.253 657.73C613.665 615.941 645.403 586.675 688.949 569.976C690.09 569.513 691.207 569.001 692.583 568.37C692.9 568.225 693.232 568.072 693.581 567.913C694.428 567.526 695.363 567.104 696.427 566.638Z" stroke="#060D16" stroke-width="4"/>
<path d="M-178.651 385.241C-173.533 389.762 -171.234 391.661 -168.927 393.807C-135.818 425.795 -96.5322 442.024 -50.06 442.954C-34.4067 443.177 -18.2076 444.862 -3.17446 448.809C84.2788 472.084 123.472 581.892 60.683 657.301C23.9176 701.479 -33.222 715.717 -85.2342 697.687C-131.971 681.458 -172.571 633.422 -172.553 574.659C-172.428 526.509 -175.536 478.219 -177.155 429.88C-177.61 416.316 -178.073 402.505 -178.651 385.241Z" fill="#EC6695"/>
<path d="M-162.386 384.701C-157.583 388.944 -155.426 390.726 -153.262 392.739C-122.196 422.753 -85.334 437.981 -41.7293 438.854C-27.0419 439.062 -11.8423 440.644 2.26315 444.347C84.3201 466.186 121.095 569.218 62.1802 639.974C27.6835 681.426 -25.9304 694.785 -74.733 677.868C-118.586 662.64 -156.68 617.568 -156.664 562.431C-156.546 517.252 -159.463 471.942 -160.982 426.586C-161.409 413.859 -161.843 400.9 -162.386 384.701Z" fill="#D12D67"/>
<path d="M-57.6961 445.897L-57.7078 445.897C-104.609 448.573 -145.536 435.258 -181.426 405.595C-182.839 404.472 -184.226 403.443 -186.215 401.968C-186.764 401.561 -187.359 401.119 -188.012 400.632L-188.007 400.68L-187.996 400.777L-187.985 400.874L-187.975 400.971L-187.964 401.068L-187.953 401.165L-187.942 401.261L-187.931 401.358L-187.921 401.454L-187.91 401.551L-187.899 401.647L-187.888 401.743L-187.877 401.84L-187.867 401.936L-187.856 402.032L-187.845 402.128L-187.834 402.224L-187.824 402.32L-187.813 402.416L-187.802 402.511L-187.792 402.607L-187.781 402.703L-187.77 402.798L-187.76 402.894L-187.749 402.989L-187.738 403.084L-187.728 403.18L-187.717 403.275L-187.706 403.37L-187.696 403.465L-187.685 403.56L-187.674 403.655L-187.664 403.75L-187.653 403.845L-187.643 403.939L-187.632 404.034L-187.621 404.129L-187.611 404.223L-187.6 404.318L-187.59 404.412L-187.579 404.506L-187.569 404.601L-187.558 404.695L-187.548 404.789L-187.537 404.883L-187.527 404.977L-187.516 405.071L-187.506 405.165L-187.495 405.259L-187.485 405.352L-187.474 405.446L-187.464 405.54L-187.453 405.633L-187.443 405.727L-187.432 405.82L-187.422 405.913L-187.411 406.007L-187.401 406.1L-187.391 406.193L-187.38 406.286L-187.37 406.379L-187.359 406.472L-187.349 406.565L-187.339 406.658L-187.328 406.751L-187.318 406.843L-187.307 406.936L-187.297 407.029L-187.287 407.121L-187.276 407.214L-187.266 407.306L-187.256 407.398L-187.245 407.491L-187.235 407.583L-187.225 407.675L-187.214 407.767L-187.204 407.859L-187.194 407.951L-187.184 408.043L-187.173 408.135L-187.163 408.227L-187.153 408.318L-187.143 408.41L-187.132 408.502L-187.122 408.593L-187.112 408.685L-187.102 408.776L-187.091 408.868L-187.081 408.959L-187.071 409.05L-187.061 409.141L-187.051 409.232L-187.04 409.324L-187.03 409.415L-187.02 409.506L-187.01 409.596L-187 409.687L-186.99 409.778L-186.979 409.869L-186.969 409.959L-186.959 410.05L-186.949 410.141L-186.939 410.231L-186.929 410.322L-186.919 410.412L-186.909 410.502L-186.898 410.592L-186.888 410.683L-186.878 410.773L-186.868 410.863L-186.858 410.953L-186.848 411.043L-186.838 411.133L-186.828 411.223L-186.818 411.313L-186.808 411.402L-186.798 411.492L-186.788 411.582L-186.778 411.671L-186.768 411.761L-186.758 411.85L-186.748 411.94L-186.738 412.029L-186.728 412.118L-186.718 412.208L-186.708 412.297L-186.698 412.386L-186.688 412.475L-186.678 412.564L-186.668 412.653L-186.658 412.742L-186.648 412.831L-186.638 412.92L-186.628 413.009L-186.618 413.097L-186.608 413.186L-186.598 413.275L-186.588 413.363L-186.579 413.452L-186.569 413.54L-186.559 413.629L-186.549 413.717L-186.539 413.805L-186.529 413.894L-186.519 413.982L-186.509 414.07L-186.5 414.158L-186.49 414.246L-186.48 414.334L-186.47 414.422L-186.46 414.51L-186.45 414.598L-186.441 414.686L-186.431 414.773L-186.421 414.861L-186.411 414.949L-186.401 415.036L-186.392 415.124L-186.382 415.211L-186.372 415.299L-186.362 415.386L-186.352 415.474L-186.343 415.561L-186.333 415.648L-186.323 415.735L-186.313 415.822L-186.304 415.91L-186.294 415.997L-186.284 416.084L-186.274 416.171L-186.265 416.258L-186.255 416.344L-186.245 416.431L-186.236 416.518L-186.226 416.605L-186.216 416.691L-186.207 416.778L-186.197 416.865L-186.187 416.951L-186.177 417.038L-186.168 417.124L-186.158 417.211L-186.148 417.297L-186.139 417.383L-186.129 417.47L-186.12 417.556L-186.11 417.642L-186.1 417.728L-186.091 417.814L-186.081 417.9L-186.071 417.986L-186.062 418.072L-186.052 418.158L-186.043 418.244L-186.033 418.33L-186.023 418.415L-186.014 418.501L-186.004 418.587L-185.995 418.672L-185.985 418.758L-185.975 418.844L-185.966 418.929L-185.956 419.015L-185.947 419.1L-185.937 419.185L-185.928 419.271L-185.918 419.356L-185.909 419.441L-185.899 419.526L-185.89 419.612L-185.88 419.697L-185.871 419.782L-185.861 419.867L-185.852 419.952L-185.842 420.037L-185.833 420.122L-185.823 420.207L-185.814 420.291L-185.804 420.376L-185.795 420.461L-185.785 420.546L-185.776 420.63L-185.766 420.715L-185.757 420.8L-185.747 420.884L-185.738 420.969L-185.728 421.053L-185.719 421.138L-185.709 421.222L-185.7 421.306L-185.691 421.391L-185.681 421.475L-185.672 421.559L-185.662 421.643L-185.653 421.727L-185.644 421.812L-185.634 421.896L-185.625 421.98L-185.615 422.064L-185.606 422.148L-185.597 422.232L-185.587 422.315L-185.578 422.399L-185.568 422.483L-185.559 422.567L-185.55 422.651L-185.54 422.734L-185.531 422.818L-185.522 422.902L-185.512 422.985L-185.503 423.069L-185.494 423.152L-185.484 423.236L-185.475 423.319L-185.466 423.403L-185.456 423.486L-185.447 423.569L-185.438 423.653L-185.428 423.736L-185.419 423.819L-185.41 423.902L-185.4 423.986L-185.391 424.069L-185.382 424.152L-185.372 424.235L-185.363 424.318L-185.354 424.401L-185.345 424.484L-185.335 424.567L-185.326 424.65L-185.317 424.732L-185.308 424.815L-185.298 424.898L-185.289 424.981L-185.28 425.064L-185.271 425.146L-185.261 425.229L-185.252 425.312L-185.243 425.394L-185.234 425.477L-185.224 425.559L-185.215 425.642L-185.206 425.724L-185.197 425.807L-185.187 425.889L-185.178 425.971L-185.169 426.054L-185.16 426.136L-185.151 426.218L-185.141 426.301L-185.132 426.383L-185.123 426.465L-185.114 426.547L-185.105 426.629L-185.095 426.711L-185.086 426.793L-185.077 426.875L-185.068 426.957L-185.059 427.039L-185.05 427.121L-185.04 427.203L-185.031 427.285L-185.022 427.367L-185.013 427.449L-185.004 427.531L-184.995 427.612L-184.986 427.694L-184.976 427.776L-184.967 427.858L-184.958 427.939L-184.949 428.021L-184.94 428.102L-184.931 428.184L-184.922 428.266L-184.912 428.347L-184.903 428.429L-184.894 428.51L-184.885 428.592L-184.876 428.673L-184.867 428.754L-184.858 428.836L-184.849 428.917L-184.84 428.998L-184.831 429.08L-184.821 429.161L-184.812 429.242L-184.803 429.323L-184.794 429.405L-184.785 429.486L-184.776 429.567L-184.767 429.648L-184.758 429.729L-184.749 429.81L-184.74 429.891L-184.731 429.972L-184.722 430.053L-184.713 430.134L-184.704 430.215L-184.695 430.296L-184.685 430.377L-184.676 430.458L-184.667 430.538L-184.658 430.619L-184.649 430.7L-184.64 430.781L-184.631 430.862L-184.622 430.942L-184.613 431.023L-184.604 431.104L-184.595 431.184L-184.586 431.265L-184.577 431.346L-184.568 431.426L-184.559 431.507L-184.55 431.587L-184.541 431.668L-184.532 431.748L-184.523 431.829L-184.514 431.909L-184.505 431.99L-184.496 432.07L-184.487 432.151L-184.478 432.231L-184.469 432.311L-184.46 432.392L-184.451 432.472L-184.442 432.552L-184.433 432.633L-184.424 432.713L-184.415 432.793L-184.406 432.873L-184.397 432.953L-184.388 433.034L-184.379 433.114L-184.37 433.194L-184.361 433.274L-184.352 433.354L-184.343 433.434L-184.335 433.514L-184.326 433.594L-184.317 433.674L-184.308 433.755L-184.299 433.835L-184.29 433.914L-184.281 433.994L-184.272 434.074L-184.263 434.154L-184.254 434.234L-184.245 434.314L-184.236 434.394L-184.227 434.474L-184.218 434.554L-184.209 434.634L-184.2 434.713L-184.191 434.793L-184.183 434.873L-184.174 434.953L-184.165 435.033L-184.156 435.112L-184.147 435.192L-184.138 435.272L-184.129 435.351L-184.12 435.431L-184.111 435.511L-184.102 435.59L-184.093 435.67L-184.084 435.75L-184.076 435.829L-184.067 435.909L-184.058 435.988L-184.049 436.068L-184.04 436.148L-184.031 436.227L-184.022 436.307L-184.013 436.386L-184.004 436.466L-183.996 436.545L-183.987 436.625L-183.978 436.704L-183.969 436.784L-183.96 436.863L-183.951 436.942L-183.942 437.022L-183.933 437.101L-183.924 437.181L-183.916 437.26L-183.907 437.339L-183.898 437.419L-183.889 437.498L-183.88 437.577L-183.871 437.657L-183.862 437.736L-183.853 437.815L-183.845 437.895L-183.836 437.974L-183.827 438.053L-183.818 438.132L-183.809 438.212L-183.8 438.291L-183.791 438.37L-183.783 438.449L-183.774 438.529L-183.765 438.608L-183.756 438.687L-183.747 438.766L-183.738 438.845L-183.729 438.925L-183.72 439.004L-183.712 439.083L-183.703 439.162L-183.694 439.241L-183.685 439.32L-183.676 439.399L-183.667 439.479L-183.659 439.558L-183.65 439.637L-183.641 439.716L-183.632 439.795L-183.623 439.874L-183.614 439.953L-183.605 440.032L-183.597 440.111L-183.588 440.19L-183.579 440.269L-183.57 440.348L-183.561 440.427C-181.867 455.573 -180.023 470.722 -178.179 485.875C-174.18 518.729 -170.18 551.599 -167.698 584.489C-163.212 642.159 -119.659 686.266 -72.5551 698.653C-20.0816 712.422 34.9106 694.115 67.6301 647.943L67.6304 647.943C123.512 569.129 76.5894 464.314 -10.9873 448.098C-26.0796 445.357 -42.1894 444.922 -57.6961 445.897Z" stroke="#060D16" stroke-width="4"/>
<path d="M-188.002 400.732L-187.996 400.777L-187.986 400.874L-187.975 400.971L-187.964 401.068L-187.953 401.165L-187.942 401.261L-187.932 401.358L-187.921 401.454L-187.91 401.551L-187.899 401.647L-187.888 401.743L-187.878 401.84L-187.867 401.936L-187.856 402.032L-187.845 402.128L-187.835 402.224L-187.824 402.32L-187.813 402.416L-187.802 402.511L-187.792 402.607L-187.781 402.703L-187.77 402.798L-187.76 402.894L-187.749 402.989L-187.738 403.084L-187.728 403.18L-187.717 403.275L-187.706 403.37L-187.696 403.465L-187.685 403.56L-187.675 403.655L-187.664 403.75L-187.653 403.845L-187.643 403.939L-187.632 404.034L-187.622 404.129L-187.611 404.223L-187.6 404.318L-187.59 404.412L-187.579 404.506L-187.569 404.601L-187.558 404.695L-187.548 404.789L-187.537 404.883L-187.527 404.977L-187.516 405.071L-187.506 405.165L-187.495 405.259L-187.485 405.352L-187.474 405.446L-187.464 405.54L-187.453 405.633L-187.443 405.727L-187.432 405.82L-187.422 405.913L-187.412 406.007L-187.401 406.1L-187.391 406.193L-187.38 406.286L-187.37 406.379L-187.359 406.472L-187.349 406.565L-187.339 406.658L-187.328 406.751L-187.318 406.843L-187.308 406.936L-187.297 407.029L-187.287 407.121L-187.277 407.214L-187.266 407.306L-187.256 407.398L-187.246 407.491L-187.235 407.583L-187.225 407.675L-187.215 407.767L-187.204 407.859L-187.194 407.951L-187.184 408.043L-187.173 408.135L-187.163 408.227L-187.153 408.319L-187.143 408.41L-187.132 408.502L-187.122 408.593L-187.112 408.685L-187.102 408.776L-187.092 408.868L-187.081 408.959L-187.071 409.05L-187.061 409.141L-187.051 409.233L-187.041 409.324L-187.03 409.415L-187.02 409.506L-187.01 409.596L-187 409.687L-186.99 409.778L-186.98 409.869L-186.969 409.959L-186.959 410.05L-186.949 410.141L-186.939 410.231L-186.929 410.322L-186.919 410.412L-186.909 410.502L-186.899 410.593L-186.889 410.683L-186.878 410.773L-186.868 410.863L-186.858 410.953L-186.848 411.043L-186.838 411.133L-186.828 411.223L-186.818 411.313L-186.808 411.402L-186.798 411.492L-186.788 411.582L-186.778 411.671L-186.768 411.761L-186.758 411.85L-186.748 411.94L-186.738 412.029L-186.728 412.118L-186.718 412.208L-186.708 412.297L-186.698 412.386L-186.688 412.475L-186.678 412.564L-186.668 412.653L-186.658 412.742L-186.648 412.831L-186.638 412.92L-186.628 413.009L-186.618 413.097L-186.608 413.186L-186.599 413.275L-186.589 413.363L-186.579 413.452L-186.569 413.54L-186.559 413.629L-186.549 413.717L-186.539 413.805L-186.529 413.894L-186.519 413.982L-186.51 414.07L-186.5 414.158L-186.49 414.246L-186.48 414.334L-186.47 414.422L-186.46 414.51L-186.451 414.598L-186.441 414.686L-186.431 414.773L-186.421 414.861L-186.411 414.949L-186.402 415.036L-186.392 415.124L-186.382 415.211L-186.372 415.299L-186.362 415.386L-186.353 415.474L-186.343 415.561L-186.333 415.648L-186.323 415.735L-186.314 415.823L-186.304 415.91L-186.294 415.997L-186.284 416.084L-186.275 416.171L-186.265 416.258L-186.255 416.344L-186.246 416.431L-186.236 416.518L-186.226 416.605L-186.216 416.691L-186.207 416.778L-186.197 416.865L-186.187 416.951L-186.178 417.038L-186.168 417.124L-186.158 417.211L-186.149 417.297L-186.139 417.383L-186.129 417.47L-186.12 417.556L-186.11 417.642L-186.1 417.728L-186.091 417.814L-186.081 417.9L-186.072 417.986L-186.062 418.072L-186.052 418.158L-186.043 418.244L-186.033 418.33L-186.024 418.415L-186.014 418.501L-186.004 418.587L-185.995 418.672L-185.985 418.758L-185.976 418.844L-185.966 418.929L-185.957 419.015L-185.947 419.1L-185.937 419.185L-185.928 419.271L-185.918 419.356L-185.909 419.441L-185.899 419.526L-185.89 419.612L-185.88 419.697L-185.871 419.782L-185.861 419.867L-185.852 419.952L-185.842 420.037L-185.833 420.122L-185.823 420.207L-185.814 420.291L-185.804 420.376L-185.795 420.461L-185.785 420.546L-185.776 420.63L-185.766 420.715L-185.757 420.8L-185.747 420.884L-185.738 420.969L-185.729 421.053L-185.719 421.138L-185.71 421.222L-185.7 421.306L-185.691 421.391L-185.681 421.475L-185.672 421.559L-185.663 421.643L-185.653 421.727L-185.644 421.812L-185.634 421.896L-185.625 421.98L-185.615 422.064L-185.606 422.148L-185.597 422.232L-185.587 422.315L-185.578 422.399L-185.569 422.483L-185.559 422.567L-185.55 422.651L-185.54 422.734L-185.531 422.818L-185.522 422.902L-185.512 422.985L-185.503 423.069L-185.494 423.152L-185.484 423.236L-185.475 423.319L-185.466 423.403L-185.456 423.486L-185.447 423.569L-185.438 423.653L-185.428 423.736L-185.419 423.819L-185.41 423.902L-185.401 423.986L-185.391 424.069L-185.382 424.152L-185.373 424.235L-185.363 424.318L-185.354 424.401L-185.345 424.484L-185.336 424.567L-185.326 424.65L-185.317 424.732L-185.308 424.815L-185.298 424.898L-185.289 424.981L-185.28 425.064L-185.271 425.146L-185.261 425.229L-185.252 425.312L-185.243 425.394L-185.234 425.477L-185.225 425.559L-185.215 425.642L-185.206 425.724L-185.197 425.807L-185.188 425.889L-185.178 425.971L-185.169 426.054L-185.16 426.136L-185.151 426.218L-185.142 426.301L-185.132 426.383L-185.123 426.465L-185.114 426.547L-185.105 426.629L-185.096 426.711L-185.086 426.793L-185.077 426.875L-185.068 426.957L-185.059 427.039L-185.05 427.121L-185.041 427.203L-185.031 427.285L-185.022 427.367L-185.013 427.449L-185.004 427.531L-184.995 427.612L-184.986 427.694L-184.977 427.776L-184.967 427.858L-184.958 427.939L-184.949 428.021L-184.94 428.103L-184.931 428.184L-184.922 428.266L-184.913 428.347L-184.904 428.429L-184.894 428.51L-184.885 428.592L-184.876 428.673L-184.867 428.754L-184.858 428.836L-184.849 428.917L-184.84 428.998L-184.831 429.08L-184.822 429.161L-184.813 429.242L-184.803 429.323L-184.794 429.405L-184.785 429.486L-184.776 429.567L-184.767 429.648L-184.758 429.729L-184.749 429.81L-184.74 429.891L-184.731 429.972L-184.722 430.053L-184.713 430.134L-184.704 430.215L-184.695 430.296L-184.686 430.377L-184.677 430.458L-184.668 430.539L-184.659 430.619L-184.649 430.7L-184.64 430.781L-184.631 430.862L-184.622 430.942L-184.613 431.023L-184.604 431.104L-184.595 431.184L-184.586 431.265L-184.577 431.346L-184.568 431.426L-184.559 431.507L-184.55 431.587L-184.541 431.668L-184.532 431.748L-184.523 431.829L-184.514 431.909L-184.505 431.99L-184.496 432.07L-184.487 432.151L-184.478 432.231L-184.469 432.311L-184.46 432.392L-184.451 432.472L-184.442 432.552L-184.433 432.633L-184.424 432.713L-184.415 432.793L-184.406 432.873L-184.397 432.954L-184.388 433.034L-184.379 433.114L-184.371 433.194L-184.362 433.274L-184.353 433.354L-184.344 433.434L-184.335 433.514L-184.326 433.594L-184.317 433.675L-184.308 433.755L-184.299 433.835L-184.29 433.915L-184.281 433.994L-184.272 434.074L-184.263 434.154L-184.254 434.234L-184.245 434.314L-184.236 434.394L-184.227 434.474L-184.218 434.554L-184.21 434.634L-184.201 434.713L-184.192 434.793L-184.183 434.873L-184.174 434.953L-184.165 435.033L-184.156 435.112L-184.147 435.192L-184.138 435.272L-184.129 435.351L-184.12 435.431L-184.111 435.511L-184.102 435.59L-184.094 435.67L-184.085 435.75L-184.076 435.829L-184.067 435.909L-184.058 435.988L-184.049 436.068L-184.04 436.148L-184.031 436.227L-184.022 436.307L-184.013 436.386L-184.005 436.466L-183.996 436.545L-183.987 436.625L-183.978 436.704L-183.969 436.784L-183.96 436.863L-183.951 436.942L-183.942 437.022L-183.933 437.101L-183.925 437.181L-183.916 437.26L-183.907 437.339L-183.898 437.419L-183.889 437.498L-183.88 437.577L-183.871 437.657L-183.862 437.736L-183.854 437.815L-183.845 437.895L-183.836 437.974L-183.827 438.053L-183.818 438.132L-183.809 438.212L-183.8 438.291L-183.792 438.37L-183.783 438.449L-183.774 438.529L-183.765 438.608L-183.756 438.687L-183.747 438.766L-183.738 438.845L-183.73 438.925L-183.721 439.004L-183.712 439.083L-183.703 439.162L-183.694 439.241L-183.685 439.32L-183.676 439.399L-183.668 439.479L-183.659 439.558L-183.65 439.637L-183.641 439.716L-183.632 439.795L-183.623 439.874L-183.614 439.953L-183.606 440.032L-183.597 440.111L-183.588 440.19L-183.579 440.269L-183.57 440.348L-183.561 440.427C-180.879 464.407 -178.34 488.217 -175.796 512.081L-175.776 512.263C-173.225 536.189 -170.667 560.171 -167.952 584.445L-167.948 584.479L-167.946 584.512C-163.462 642.178 -119.667 686.264 -72.5552 698.653C-20.0779 712.423 35.1561 694.085 67.6263 647.949L67.6304 647.943C123.512 569.129 76.5894 464.314 -10.9874 448.098C-26.0796 445.357 -42.1894 444.922 -57.6962 445.897L-57.7085 445.897C-104.361 448.546 -145.535 435.26 -181.426 405.596C-182.389 404.831 -183.382 404.111 -184.608 403.224C-184.89 403.019 -185.185 402.806 -185.495 402.581C-186.248 402.034 -187.074 401.428 -188.002 400.732Z" stroke="#060D16" stroke-width="4"/>
<path fill-rule="evenodd" clip-rule="evenodd" d="M1075.9 914.503C1051.35 1005.56 932.145 1053.47 843.651 1021.26C755.157 989.053 723.566 929.632 748.114 838.577C772.661 747.523 839.158 677.467 927.652 709.676C1016.15 741.885 1100.44 823.449 1075.9 914.503Z" fill="#AEF6CD"/>
<path fill-rule="evenodd" clip-rule="evenodd" d="M1077.92 901.833C1054.56 988.5 941.099 1034.11 856.869 1003.45C772.638 972.792 742.57 916.233 765.935 829.566C789.3 742.899 852.592 676.218 936.823 706.875C1021.05 737.532 1101.29 815.166 1077.92 901.833Z" fill="#53E291"/>
<path d="M860.844 1024.43C906 1035.59 956.674 1026.29 997.885 1002.61C1039.09 978.927 1070.61 941.017 1077.79 895.18C1084.96 849.408 1065.84 808.7 1033.4 776.517C1000.94 744.315 955.265 720.792 909.833 709.565C864.834 698.445 828.041 711.734 800.607 739.27C773.091 766.888 754.931 808.923 747.676 855.219C740.425 901.489 746.239 938.144 764.927 965.986C783.616 993.831 815.411 1013.2 860.844 1024.43Z" stroke="#060D16" stroke-width="4"/>
<path d="M610.308 -107.675C605.96 -105.331 604.098 -104.245 602.064 -103.215C572.068 -88.7213 551.32 -66.1815 539.259 -35.0272C535.258 -24.511 530.124 -13.9861 523.731 -4.80449C486.326 48.5305 401.664 47.9989 365.58 -12.9438C344.435 -48.6339 348.756 -90.7213 373.863 -121.412C396.443 -148.983 439.245 -164.59 479.39 -150.13C512.258 -138.207 546.015 -128.432 579.441 -117.641C588.821 -114.613 598.371 -111.529 610.308 -107.675Z" fill="#F3FD58"/>
<path d="M595.143 -98.6066C591.686 -96.1111 590.214 -94.9727 588.589 -93.8623C564.547 -78.0872 549.337 -56.4588 542.543 -28.4274C540.31 -18.9734 537.107 -9.38466 532.674 -0.805179C506.694 49.0624 434.135 58.1012 396.319 9.95982C374.163 -18.232 373.088 -54.7578 391.107 -83.8553C407.314 -109.998 442.197 -128.162 478.216 -120.281C507.714 -113.757 537.731 -109.172 567.579 -103.679C575.955 -102.138 584.483 -100.568 595.143 -98.6066Z" fill="#FBFFB9"/>
<path d="M538.918 -42.9632L538.921 -42.9744C547.77 -75.6887 566.34 -100.68 595.074 -118.48C596.162 -119.183 597.175 -119.886 598.633 -120.898C598.727 -120.964 598.823 -121.03 598.921 -121.099L598.902 -121.103L598.833 -121.117L598.765 -121.131L598.697 -121.146L598.628 -121.16L598.56 -121.175L598.492 -121.189L598.424 -121.204L598.356 -121.218L598.287 -121.232L598.219 -121.247L598.151 -121.261L598.083 -121.275L598.016 -121.29L597.948 -121.304L597.88 -121.318L597.812 -121.333L597.745 -121.347L597.677 -121.361L597.609 -121.376L597.542 -121.39L597.474 -121.404L597.407 -121.418L597.339 -121.433L597.272 -121.447L597.205 -121.461L597.137 -121.475L597.07 -121.489L597.003 -121.504L596.936 -121.518L596.869 -121.532L596.802 -121.546L596.735 -121.56L596.668 -121.574L596.601 -121.588L596.534 -121.603L596.467 -121.617L596.4 -121.631L596.334 -121.645L596.267 -121.659L596.2 -121.673L596.134 -121.687L596.067 -121.701L596.001 -121.715L595.934 -121.729L595.868 -121.743L595.802 -121.757L595.735 -121.771L595.669 -121.785L595.603 -121.799L595.537 -121.813L595.471 -121.827L595.405 -121.841L595.339 -121.855L595.273 -121.869L595.207 -121.883L595.141 -121.897L595.075 -121.911L595.009 -121.925L594.943 -121.939L594.877 -121.952L594.812 -121.966L594.746 -121.98L594.681 -121.994L594.615 -122.008L594.549 -122.022L594.484 -122.035L594.419 -122.049L594.353 -122.063L594.288 -122.077L594.223 -122.091L594.157 -122.104L594.092 -122.118L594.027 -122.132L593.962 -122.146L593.897 -122.16L593.832 -122.173L593.767 -122.187L593.702 -122.201L593.637 -122.214L593.572 -122.228L593.507 -122.242L593.442 -122.255L593.377 -122.269L593.313 -122.283L593.248 -122.296L593.183 -122.31L593.119 -122.324L593.054 -122.337L592.99 -122.351L592.925 -122.365L592.861 -122.378L592.796 -122.392L592.732 -122.405L592.668 -122.419L592.604 -122.433L592.539 -122.446L592.475 -122.46L592.411 -122.473L592.347 -122.487L592.283 -122.5L592.219 -122.514L592.155 -122.527L592.091 -122.541L592.027 -122.554L591.963 -122.568L591.899 -122.581L591.835 -122.595L591.772 -122.608L591.708 -122.622L591.644 -122.635L591.581 -122.649L591.517 -122.662L591.453 -122.675L591.39 -122.689L591.326 -122.702L591.263 -122.716L591.2 -122.729L591.136 -122.742L591.073 -122.756L591.009 -122.769L590.946 -122.783L590.883 -122.796L590.82 -122.809L590.757 -122.823L590.694 -122.836L590.63 -122.849L590.567 -122.863L590.504 -122.876L590.441 -122.889L590.378 -122.902L590.316 -122.916L590.253 -122.929L590.19 -122.942L590.127 -122.955L590.064 -122.969L590.002 -122.982L589.939 -122.995L589.876 -123.008L589.814 -123.022L589.751 -123.035L589.689 -123.048L589.626 -123.061L589.564 -123.074L589.501 -123.088L589.439 -123.101L589.376 -123.114L589.314 -123.127L589.252 -123.14L589.189 -123.153L589.127 -123.167L589.065 -123.18L589.003 -123.193L588.941 -123.206L588.879 -123.219L588.817 -123.232L588.755 -123.245L588.693 -123.258L588.631 -123.271L588.569 -123.285L588.507 -123.298L588.445 -123.311L588.383 -123.324L588.321 -123.337L588.26 -123.35L588.198 -123.363L588.136 -123.376L588.075 -123.389L588.013 -123.402L587.951 -123.415L587.89 -123.428L587.828 -123.441L587.767 -123.454L587.705 -123.467L587.644 -123.48L587.582 -123.493L587.521 -123.506L587.46 -123.519L587.398 -123.532L587.337 -123.545L587.276 -123.558L587.215 -123.57L587.154 -123.583L587.092 -123.596L587.031 -123.609L586.97 -123.622L586.909 -123.635L586.848 -123.648L586.787 -123.661L586.726 -123.674L586.665 -123.687L586.604 -123.699L586.543 -123.712L586.483 -123.725L586.422 -123.738L586.361 -123.751L586.3 -123.764L586.239 -123.776L586.179 -123.789L586.118 -123.802L586.057 -123.815L585.997 -123.828L585.936 -123.84L585.876 -123.853L585.815 -123.866L585.755 -123.879L585.694 -123.892L585.634 -123.904L585.573 -123.917L585.513 -123.93L585.453 -123.943L585.392 -123.955L585.332 -123.968L585.272 -123.981L585.212 -123.993L585.151 -124.006L585.091 -124.019L585.031 -124.032L584.971 -124.044L584.911 -124.057L584.851 -124.07L584.791 -124.082L584.731 -124.095L584.671 -124.108L584.611 -124.12L584.551 -124.133L584.491 -124.146L584.431 -124.158L584.371 -124.171L584.311 -124.184L584.251 -124.196L584.192 -124.209L584.132 -124.221L584.072 -124.234L584.012 -124.247L583.953 -124.259L583.893 -124.272L583.833 -124.284L583.774 -124.297L583.714 -124.31L583.655 -124.322L583.595 -124.335L583.536 -124.347L583.476 -124.36L583.417 -124.372L583.357 -124.385L583.298 -124.398L583.239 -124.41L583.179 -124.423L583.12 -124.435L583.061 -124.448L583.001 -124.46L582.942 -124.473L582.883 -124.485L582.824 -124.498L582.764 -124.51L582.705 -124.523L582.646 -124.535L582.587 -124.548L582.528 -124.56L582.469 -124.573L582.41 -124.585L582.351 -124.598L582.292 -124.61L582.233 -124.622L582.174 -124.635L582.115 -124.647L582.056 -124.66L581.997 -124.672L581.938 -124.685L581.879 -124.697L581.821 -124.709L581.762 -124.722L581.703 -124.734L581.644 -124.747L581.586 -124.759L581.527 -124.771L581.468 -124.784L581.41 -124.796L581.351 -124.809L581.292 -124.821L581.234 -124.833L581.175 -124.846L581.117 -124.858L581.058 -124.871L580.999 -124.883L580.941 -124.895L580.882 -124.908L580.824 -124.92L580.766 -124.932L580.707 -124.945L580.649 -124.957L580.59 -124.969L580.532 -124.982L580.474 -124.994L580.415 -125.006L580.357 -125.019L580.299 -125.031L580.24 -125.043L580.182 -125.055L580.124 -125.068L580.066 -125.08L580.008 -125.092L579.949 -125.105L579.891 -125.117L579.833 -125.129L579.775 -125.141L579.717 -125.154L579.659 -125.166L579.601 -125.178L579.543 -125.19L579.485 -125.203L579.427 -125.215L579.369 -125.227L579.311 -125.239L579.253 -125.252L579.195 -125.264L579.137 -125.276L579.079 -125.288L579.021 -125.301L578.963 -125.313L578.906 -125.325L578.848 -125.337L578.79 -125.349L578.732 -125.362L578.674 -125.374L578.617 -125.386L578.559 -125.398L578.501 -125.41L578.443 -125.423L578.386 -125.435L578.328 -125.447L578.27 -125.459L578.213 -125.471L578.155 -125.483L578.097 -125.496L578.04 -125.508L577.982 -125.52L577.925 -125.532L577.867 -125.544L577.81 -125.556L577.752 -125.569L577.695 -125.581L577.637 -125.593L577.58 -125.605L577.522 -125.617L577.465 -125.629L577.407 -125.641L577.35 -125.654L577.292 -125.666L577.235 -125.678L577.178 -125.69L577.12 -125.702L577.063 -125.714L577.005 -125.726L576.948 -125.738L576.891 -125.75L576.834 -125.763L576.776 -125.775L576.719 -125.787L576.662 -125.799L576.604 -125.811L576.547 -125.823L576.49 -125.835L576.433 -125.847L576.376 -125.859L576.318 -125.871L576.261 -125.883L576.204 -125.895L576.147 -125.908L576.09 -125.92L576.033 -125.932L575.975 -125.944L575.918 -125.956L575.861 -125.968L575.804 -125.98L575.747 -125.992L575.69 -126.004L575.633 -126.016L575.576 -126.028L575.519 -126.04L575.462 -126.052L575.405 -126.064L575.348 -126.076L575.291 -126.088L575.234 -126.1L575.177 -126.112L575.12 -126.124L575.063 -126.136L575.006 -126.148L574.949 -126.16L574.892 -126.172L574.835 -126.184L574.779 -126.196L574.722 -126.208L574.665 -126.22L574.608 -126.232L574.551 -126.245L574.494 -126.257L574.437 -126.269L574.381 -126.281L574.324 -126.293L574.267 -126.305L574.21 -126.316L574.153 -126.328L574.097 -126.34L574.04 -126.352L573.983 -126.364L573.926 -126.376L573.87 -126.388L573.813 -126.4L573.756 -126.412L573.699 -126.424L573.643 -126.436L573.586 -126.448L573.529 -126.46L573.472 -126.472L573.416 -126.484L573.359 -126.496L573.302 -126.508L573.246 -126.52L573.189 -126.532L573.132 -126.544L573.076 -126.556L573.019 -126.568L572.962 -126.58L572.906 -126.592L572.849 -126.604L572.793 -126.616L572.736 -126.628L572.679 -126.64L572.623 -126.652L572.566 -126.664L572.51 -126.676L572.453 -126.688L572.396 -126.699L572.34 -126.711L572.283 -126.723L572.227 -126.735L572.17 -126.747L572.114 -126.759L572.057 -126.771L572 -126.783L571.944 -126.795L571.887 -126.807L571.831 -126.819L571.774 -126.831L571.718 -126.843C560.898 -129.128 550.036 -131.312 539.169 -133.498C515.593 -138.24 491.991 -142.987 468.729 -148.773C428.183 -158.759 388.097 -139.208 368.966 -110.092C347.668 -77.6368 347.797 -36.2396 372.065 -3.6324L372.065 -3.63199C413.482 52.0482 495.942 43.9194 526.836 -11.7474C532.128 -21.3633 536.075 -32.2016 538.918 -42.9632Z" stroke="#060D16" stroke-width="4"/>
</g>
</svg>
