<svg width="1440" height="1024" viewBox="0 0 1440 1024" fill="none" xmlns="http://www.w3.org/2000/svg">
<g clip-path="url(#clip0_336_27004)">
<path fill-rule="evenodd" clip-rule="evenodd" d="M913.445 90.1179C805.25 -70.6469 625.885 33.4077 540.361 174.745C454.836 316.083 479.539 405.831 589.173 514.054C698.807 622.277 864.589 615.53 894.967 470.062C925.346 324.594 1021.64 250.883 913.445 90.1179Z" fill="#CF97FF"/>
<path fill-rule="evenodd" clip-rule="evenodd" d="M865.107 120.212C769.286 -22.1657 610.435 69.9879 534.693 195.161C458.95 320.333 480.827 399.816 577.922 495.661C675.018 591.507 821.838 585.532 848.742 456.702C875.647 327.871 960.927 262.59 865.107 120.212Z" fill="#A235FF"/>
<path d="M561.112 151.562C612.747 87.5065 686.207 35.9164 757.212 21.9047C792.681 14.9058 827.463 17.2933 858.639 32.0881C889.805 46.8778 917.555 74.1555 938.817 117.276C960.149 160.539 969.539 196.615 970.929 228.547C972.319 260.466 965.72 288.371 954.894 315.313C945.465 338.779 932.857 361.455 919.515 385.452C917.51 389.059 915.488 392.695 913.458 396.369C897.943 424.442 881.998 454.588 869.545 489.774C845.047 558.994 792.143 589.61 733.736 588.026C675.177 586.438 610.865 552.452 564.083 491.873C517.096 431.029 490.742 377.894 488.838 324.138C486.936 270.428 509.431 215.674 561.112 151.562Z" stroke="#060D16" stroke-width="4"/>
<path d="M1492.9 1086.51C1476.18 1085.95 1462.91 1085.35 1449.65 1084.74C1402.95 1083.01 1357.05 1080.94 1309.56 1079.56C1252.61 1079.17 1206.31 1039.85 1190.89 994.59C1173.54 944.386 1187.81 889.294 1230.94 854.278C1304.34 794.439 1410.42 832.848 1432.49 917.126C1436.35 931.855 1437.76 947.281 1437.91 962.46C1438.67 1007.06 1453.93 1045.1 1485.01 1077.14C1486.7 1079.37 1488.59 1081.73 1492.9 1086.51Z" fill="#EC6695"/>
<path d="M1459.17 1077.42C1444.04 1076.91 1432.02 1076.36 1420.01 1075.81C1377.72 1074.25 1336.14 1072.38 1293.13 1071.12C1241.56 1070.77 1199.62 1035.16 1185.66 994.169C1169.94 948.701 1182.87 898.805 1221.93 867.092C1288.4 812.897 1384.48 847.683 1404.47 924.012C1407.96 937.351 1409.24 951.322 1409.37 965.07C1410.07 1005.47 1423.88 1039.91 1452.03 1068.94C1453.56 1070.96 1455.27 1073.09 1459.17 1077.42Z" fill="#D12D67"/>
<path d="M1495.51 1074.34C1480.95 1074.87 1468.94 1075.18 1456.92 1075.5L1456.91 1075.5L1456.91 1075.5C1441.35 1076.04 1425.88 1076.54 1410.4 1077.03C1379.43 1078.03 1348.45 1079.03 1316.8 1080.38L1316.77 1080.38L1316.75 1080.38C1260.84 1084.02 1212.59 1048.67 1194.26 1005.36L1194.26 1005.35C1173.68 957.269 1183.8 902.198 1223.67 864.771L1223.68 864.768C1291.53 800.827 1398.36 831.078 1425.96 912.19C1430.79 926.4 1433.28 941.512 1434.51 956.538L1434.51 956.546L1434.51 956.553C1438.51 1001.44 1456.65 1038.73 1490.28 1068.8C1491.62 1070.33 1493.08 1071.92 1495.51 1074.34Z" stroke="#060D16" stroke-width="4"/>
<path fill-rule="evenodd" clip-rule="evenodd" d="M165.136 1098.98C157.27 1225.75 288.108 1337.77 414.3 1334.35C540.492 1330.93 606.088 1268.49 613.954 1141.71C621.82 1014.94 567.41 897.105 441.217 900.527C315.025 903.949 173.002 972.205 165.136 1098.98Z" fill="#CF97FF"/>
<path fill-rule="evenodd" clip-rule="evenodd" d="M169.748 1127.64C162.542 1243.78 282.402 1346.4 398.006 1343.26C513.61 1340.13 573.702 1282.93 580.908 1166.79C588.114 1050.65 538.269 942.706 422.665 945.841C307.061 948.975 176.954 1011.5 169.748 1127.64Z" fill="#A235FF"/>
<path d="M474.554 1321.95C415.019 1341.08 346.267 1333.09 288.909 1304.9C231.555 1276.7 185.834 1228.43 172.031 1167.2C158.242 1106.04 180.237 1049.37 220.786 1003.07C261.353 956.75 320.382 920.958 380.188 901.747C439.569 882.672 490.194 897.296 529.52 931.995C568.933 966.772 597.061 1021.79 610.967 1083.48C624.866 1145.13 620.428 1195.13 597.854 1234.44C575.279 1273.75 534.361 1302.74 474.554 1321.95Z" stroke="#060D16" stroke-width="4"/>
<path fill-rule="evenodd" clip-rule="evenodd" d="M437.142 317.823C444.91 184.364 302.97 166.553 196.97 208.414C90.9706 250.275 67.0367 309.865 82.0101 415.081C96.9835 520.296 190.813 585.853 268.264 518.686C345.715 451.518 429.375 451.282 437.142 317.823Z" fill="#73FBF7"/>
<path fill-rule="evenodd" clip-rule="evenodd" d="M423.808 349.456C430.738 230.398 304.114 214.508 209.553 251.852C114.991 289.196 93.6399 342.356 106.998 436.218C120.355 530.08 204.06 588.563 273.153 528.644C342.247 468.724 416.879 468.513 423.808 349.456Z" fill="#0FEFE8"/>
<path d="M179.523 217.603C229.234 190.416 289.513 176.931 338.295 186.671C362.651 191.533 384.068 202.167 399.94 219.696C415.804 237.216 426.268 261.779 428.454 294.76C430.651 327.899 427.137 353.285 419.646 373.911C412.158 394.526 400.656 410.506 386.7 424.784C374.534 437.231 360.555 448.34 345.723 460.127C343.494 461.898 341.245 463.685 338.981 465.494C321.687 479.309 303.545 494.354 286.298 513.546C252.622 551.022 211.114 556.544 174.535 540.253C137.819 523.901 105.876 485.456 92.0505 434.651C78.1368 383.523 75.3726 342.856 88.2551 308.262C101.122 273.711 129.748 244.824 179.523 217.603Z" stroke="#060D16" stroke-width="4"/>
<path fill-rule="evenodd" clip-rule="evenodd" d="M838.479 701.55C843.495 615.367 751.835 603.865 683.384 630.897C614.934 657.93 599.478 696.411 609.147 764.355C618.816 832.3 679.408 874.634 729.423 831.26C779.438 787.885 833.462 787.733 838.479 701.55Z" fill="#73FBF7"/>
<path fill-rule="evenodd" clip-rule="evenodd" d="M824.457 690.102C829.047 611.236 745.169 600.71 682.53 625.448C619.89 650.185 605.747 685.399 614.595 747.575C623.444 809.751 678.891 848.491 724.66 808.799C770.429 769.108 819.866 768.968 824.457 690.102Z" fill="#0FEFE8"/>
<path d="M672.457 637.453C704.458 619.952 743.214 611.304 774.508 617.552C790.12 620.669 803.802 627.474 813.929 638.659C824.048 649.834 830.758 665.536 832.161 686.704C833.575 708.03 831.31 724.321 826.514 737.528C821.721 750.724 814.358 760.959 805.398 770.126C797.575 778.13 788.587 785.273 779.005 792.888C777.565 794.032 776.112 795.187 774.647 796.357C763.474 805.283 751.72 815.028 740.542 827.468C719.002 851.437 692.528 854.936 669.185 844.54C645.703 834.082 625.197 809.449 616.315 776.808C607.343 743.842 605.602 717.755 613.844 695.623C622.07 673.534 640.393 654.989 672.457 637.453Z" stroke="#060D16" stroke-width="4"/>
<path fill-rule="evenodd" clip-rule="evenodd" d="M1382.35 171.16C1494.16 181.233 1512.88 62.5717 1480.57 -27.512C1448.26 -117.596 1398.88 -139.271 1310.17 -129.504C1221.46 -119.738 1163.94 -42.7294 1218.25 24.0666C1272.56 90.8625 1270.54 161.087 1382.35 171.16Z" fill="#73FBF7"/>
<path fill-rule="evenodd" clip-rule="evenodd" d="M1397.8 153.407C1500.12 162.625 1517.26 54.0376 1487.69 -28.3981C1458.12 -110.834 1412.93 -130.669 1331.76 -121.732C1250.58 -112.794 1197.94 -42.3235 1247.64 18.8015C1297.34 79.9266 1295.49 144.189 1397.8 153.407Z" fill="#0FEFE8"/>
<path d="M1473.04 -42.2561C1494.51 0.145754 1504.2 51.0217 1494.75 91.6129C1490.03 111.874 1480.56 129.502 1465.49 142.303C1450.43 155.097 1429.61 163.206 1401.92 164.161C1374.08 165.122 1352.92 161.5 1335.85 154.683C1318.8 147.871 1305.73 137.821 1294.14 125.752C1284.04 115.225 1275.1 103.215 1265.6 90.4496C1264.17 88.5312 1262.73 86.5958 1261.27 84.6458C1250.13 69.7606 1237.98 54.1145 1222.31 39.1086C1191.85 9.94225 1188.35 -24.8939 1202.93 -55.0377C1217.59 -85.3181 1250.62 -111.053 1293.55 -121.286C1336.81 -131.598 1370.94 -132.818 1399.54 -121.122C1428.1 -109.443 1451.53 -84.7221 1473.04 -42.2561Z" stroke="#060D16" stroke-width="4"/>
<path fill-rule="evenodd" clip-rule="evenodd" d="M115.881 580.706C79.4677 541.672 35.1946 577.767 18.0679 619.929C0.941172 662.091 11.5585 685.432 46.0818 710.11C80.6052 734.788 125.409 725.753 127.355 684.863C129.302 643.973 152.295 619.739 115.881 580.706Z" fill="#73FBF7"/>
<path fill-rule="evenodd" clip-rule="evenodd" d="M106.671 600.459C74.6555 566.14 35.7299 597.876 20.6719 634.945C5.61385 672.014 14.9487 692.536 45.3021 714.233C75.6555 735.931 115.048 727.987 116.759 692.036C118.47 656.084 138.686 634.778 106.671 600.459Z" fill="#0FEFE8"/>
<path d="M17.0733 627.813C22.8726 606.145 35.4674 585.293 51.4341 574.091C59.3884 568.511 68.1166 565.365 77.2467 565.604C86.3647 565.842 96.0926 569.462 106.053 577.78C116.136 586.2 122.382 594.087 126.185 601.755C129.983 609.412 131.402 616.963 131.676 624.804C131.915 631.669 131.278 638.687 130.595 646.228C130.492 647.362 130.388 648.507 130.286 649.665C129.509 658.481 128.846 667.952 129.644 678.328C131.147 697.863 121.604 710.894 107.292 716.774C92.8392 722.712 73.307 721.419 55.0753 711.548C36.5487 701.516 24.3037 691.255 18.0249 678.335C11.766 665.455 11.2555 649.55 17.0733 627.813Z" stroke="#060D16" stroke-width="4"/>
<path fill-rule="evenodd" clip-rule="evenodd" d="M403.54 467.102C405.876 504.576 446.054 504.755 474.198 489.507C502.343 474.259 507.006 456.836 499.282 428.004C491.558 399.171 463.184 384.057 443.853 405.398C424.523 426.739 401.204 429.627 403.54 467.102Z" fill="#AEF6CD"/>
<path fill-rule="evenodd" clip-rule="evenodd" d="M401.549 470.273C403.484 501.306 436.756 501.454 460.063 488.827C483.369 476.2 487.231 461.772 480.835 437.895C474.438 414.019 450.941 401.502 434.934 419.175C418.926 436.848 399.615 439.239 401.549 470.273Z" fill="#53E291"/>
<path d="M470.042 489.099C455.695 495.427 438.859 497.671 425.852 493.902C419.383 492.027 413.932 488.688 410.133 483.699C406.341 478.718 404.068 471.927 404.238 462.91C404.411 453.734 405.972 446.919 408.459 441.546C410.94 436.185 414.395 432.144 418.527 428.581C422.154 425.451 426.249 422.731 430.688 419.781C431.355 419.337 432.03 418.889 432.712 418.433C437.893 414.972 443.412 411.14 448.787 406.096C458.646 396.843 469.715 396.366 479.022 401.499C488.462 406.706 496.272 417.815 498.866 432.019C501.52 446.553 501.266 457.639 497.027 466.607C492.807 475.534 484.456 482.742 470.042 489.099Z" stroke="#060D16" stroke-width="4"/>
<path fill-rule="evenodd" clip-rule="evenodd" d="M1083.08 18.648C1085.41 56.1228 1125.59 56.3015 1153.74 41.0536C1181.88 25.8057 1186.55 8.3827 1178.82 -20.45C1171.1 -49.2826 1142.72 -64.3971 1123.39 -43.056C1104.06 -21.7148 1080.74 -18.8269 1083.08 18.648Z" fill="#AEF6CD"/>
<path fill-rule="evenodd" clip-rule="evenodd" d="M1081.09 21.8191C1083.02 52.8525 1116.3 53.0004 1139.6 40.3735C1162.91 27.7465 1166.77 13.3183 1160.37 -10.5583C1153.98 -34.435 1130.48 -46.9515 1114.47 -29.2786C1098.46 -11.6058 1079.15 -9.21429 1081.09 21.8191Z" fill="#53E291"/>
<path d="M1149.58 40.6454C1135.23 46.9736 1118.4 49.2177 1105.39 45.4479C1098.92 43.5729 1093.47 40.2347 1089.67 35.245C1085.88 30.2649 1083.61 23.4735 1083.78 14.4563C1083.95 5.28007 1085.51 -1.53453 1088 -6.90719C1090.48 -12.2689 1093.93 -16.3092 1098.07 -19.8729C1101.69 -23.0024 1105.79 -25.723 1110.23 -28.6729C1110.89 -29.1161 1111.57 -29.5645 1112.25 -30.0203C1117.43 -33.4817 1122.95 -37.3132 1128.33 -42.3579C1138.19 -51.611 1149.25 -52.0881 1158.56 -46.9545C1168 -41.7476 1175.81 -30.6386 1178.4 -16.4345C1181.06 -1.90043 1180.8 9.18518 1176.57 18.1534C1172.35 27.0804 1163.99 34.2881 1149.58 40.6454Z" stroke="#060D16" stroke-width="4"/>
<path fill-rule="evenodd" clip-rule="evenodd" d="M-68.4846 253.734C-64.8581 311.916 -2.47901 312.193 41.2161 288.52C84.9112 264.847 92.1515 237.797 80.1594 193.033C68.1673 148.269 24.1152 124.803 -5.89609 157.936C-35.9074 191.069 -72.1111 195.553 -68.4846 253.734Z" fill="#AEF6CD"/>
<path fill-rule="evenodd" clip-rule="evenodd" d="M-71.5745 258.658C-68.5713 306.839 -16.9145 307.068 19.27 287.464C55.4544 267.861 61.4502 245.46 51.5194 208.391C41.5886 171.321 5.10851 151.889 -19.7442 179.327C-44.5969 206.764 -74.5777 210.477 -71.5745 258.658Z" fill="#53E291"/>
<path d="M35.2092 288.898C12.7705 298.795 -13.641 302.349 -34.151 296.404C-44.3719 293.442 -53.0572 288.145 -59.128 280.172C-65.1915 272.208 -68.7736 261.409 -68.5058 247.206C-68.2349 232.844 -65.7894 222.106 -61.8506 213.595C-57.9169 205.095 -52.441 198.702 -45.9387 193.093C-40.2496 188.185 -33.8296 183.919 -26.9429 179.343C-25.908 178.656 -24.8626 177.961 -23.8076 177.256C-15.7728 171.889 -7.26813 165.981 1.00741 158.215C16.6672 143.518 34.3739 142.717 49.239 150.916C64.2369 159.189 76.5246 176.753 80.6004 199.069C84.7364 221.716 84.3856 239.204 77.6572 253.439C70.9483 267.633 57.7138 278.972 35.2092 288.898Z" stroke="#060D16" stroke-width="4"/>
<path fill-rule="evenodd" clip-rule="evenodd" d="M1148.28 1074.04C1197.24 1002.13 1123.94 944.721 1050.76 932.652C977.578 920.584 944.29 945.853 917.471 1009.61C890.651 1073.36 921.121 1141.34 986.824 1129.73C1052.53 1118.12 1099.32 1145.96 1148.28 1074.04Z" fill="#F3FD58"/>
<path fill-rule="evenodd" clip-rule="evenodd" d="M1156.43 1071.07C1196.97 1011.51 1136.27 963.972 1075.67 953.978C1015.07 943.984 987.502 964.91 965.292 1017.7C943.083 1070.5 968.315 1126.79 1022.72 1117.18C1077.13 1107.57 1115.88 1130.62 1156.43 1071.07Z" fill="#FBFFB9"/>
<path d="M1058.43 936.747C1094.09 945.648 1128.72 965.724 1147.63 991.738C1157.07 1004.72 1162.56 1019.11 1162.42 1034.32C1162.28 1049.52 1156.52 1065.74 1143.1 1082.38C1129.57 1099.15 1116.76 1109.67 1104.18 1116.18C1091.61 1122.68 1079.16 1125.23 1066.26 1125.9C1054.99 1126.48 1043.45 1125.63 1031.15 1124.73C1029.3 1124.59 1027.44 1124.46 1025.55 1124.32C1011.18 1123.3 995.81 1122.49 979.031 1124.07C946.69 1127.11 924.679 1111.61 914.487 1087.95C904.235 1064.15 905.875 1031.89 921.6 1001.63C937.479 971.079 954.015 950.56 975.247 939.793C996.439 929.047 1022.69 927.829 1058.43 936.747Z" stroke="#060D16" stroke-width="4"/>
<path fill-rule="evenodd" clip-rule="evenodd" d="M-175.365 530.7C-169.527 624.354 -69.1161 624.801 1.21963 586.694C71.5553 548.588 83.21 505.046 63.9064 432.99C44.6027 360.934 -26.3076 323.161 -74.6165 376.495C-122.925 429.829 -181.202 437.046 -175.365 530.7Z" fill="#F3FD58"/>
<path fill-rule="evenodd" clip-rule="evenodd" d="M-197.319 535.265C-191.481 628.919 -91.0698 629.366 -20.7341 591.259C49.6016 553.153 61.2563 509.611 41.9526 437.555C22.649 365.499 -48.2614 327.726 -96.5703 381.06C-144.879 434.394 -203.156 441.611 -197.319 535.265Z" fill="#FBFFB9"/>
<path d="M-7.9571 588.418C-44.2571 604.429 -87.0725 610.228 -120.437 600.557C-137.086 595.732 -151.311 587.079 -161.273 573.995C-171.228 560.921 -177.053 543.256 -176.618 520.169C-176.179 496.923 -172.219 479.464 -165.792 465.577C-159.371 451.7 -150.433 441.275 -139.869 432.163C-130.649 424.209 -120.244 417.296 -109.165 409.935C-107.5 408.829 -105.819 407.712 -104.125 406.581C-91.2022 397.947 -77.5822 388.484 -64.3381 376.054C-38.7412 352.031 -9.66337 350.677 14.7232 364.128C39.2427 377.652 59.2022 406.273 65.8161 442.487C72.4903 479.031 71.9745 507.488 60.9814 530.746C50.0077 553.963 28.4086 572.379 -7.9571 588.418Z" stroke="#060D16" stroke-width="4"/>
<path d="M1038 74.2399C1041.34 77.3725 1042.74 78.7873 1044.32 80.1927C1067.71 100.29 1080.93 125.449 1084.34 156.312C1085.43 166.714 1087.53 177.39 1091.07 187.153C1111.9 243.934 1187.74 263.383 1234.43 217.057C1261.79 189.929 1267.89 151.053 1252.71 117.536C1239.04 87.4203 1204.46 63.3069 1165.13 66.8653C1132.92 69.8545 1100.41 70.7011 1067.97 72.5409C1058.86 73.0572 1049.59 73.5828 1038 74.2399Z" fill="#F3FD58"/>
<path d="M1049.42 85.9724C1051.92 89.0309 1052.96 90.4014 1054.15 91.7825C1071.92 111.632 1080.4 134.667 1079.84 161.481C1079.6 170.511 1080.19 179.89 1082.13 188.651C1093.55 239.624 1156.3 264.833 1201.52 230.429C1228.01 210.285 1237.62 177.682 1228.39 147.266C1220.09 119.936 1193.19 95.3856 1159.11 93.9971C1131.19 92.923 1103.26 89.9817 1075.27 87.8973C1067.41 87.3124 1059.41 86.7168 1049.42 85.9724Z" fill="#FBFFB9"/>
<path d="M1086.67 149.256L1086.67 149.244C1086.5 117.698 1075.8 90.8124 1054.29 68.0109C1053.49 67.125 1052.75 66.258 1051.69 65.0089L1051.7 65.0092L1051.76 65.0123L1051.83 65.0154L1051.89 65.0185L1051.95 65.0216L1052.02 65.0247L1052.08 65.0278L1052.15 65.0309L1052.21 65.034L1052.28 65.037L1052.34 65.0401L1052.4 65.0432L1052.47 65.0463L1052.53 65.0493L1052.6 65.0524L1052.66 65.0555L1052.72 65.0586L1052.79 65.0616L1052.85 65.0647L1052.91 65.0677L1052.98 65.0708L1053.04 65.0739L1053.1 65.0769L1053.17 65.08L1053.23 65.083L1053.29 65.0861L1053.36 65.0891L1053.42 65.0921L1053.48 65.0952L1053.55 65.0982L1053.61 65.1013L1053.67 65.1043L1053.74 65.1073L1053.8 65.1104L1053.86 65.1134L1053.93 65.1164L1053.99 65.1194L1054.05 65.1225L1054.11 65.1255L1054.18 65.1285L1054.24 65.1315L1054.3 65.1345L1054.36 65.1375L1054.43 65.1406L1054.49 65.1436L1054.55 65.1466L1054.61 65.1496L1054.68 65.1526L1054.74 65.1556L1054.8 65.1586L1054.86 65.1616L1054.93 65.1646L1054.99 65.1676L1055.05 65.1705L1055.11 65.1735L1055.17 65.1765L1055.24 65.1795L1055.3 65.1825L1055.36 65.1855L1055.42 65.1884L1055.48 65.1914L1055.55 65.1944L1055.61 65.1974L1055.67 65.2003L1055.73 65.2033L1055.79 65.2063L1055.85 65.2092L1055.92 65.2122L1055.98 65.2152L1056.04 65.2181L1056.1 65.2211L1056.16 65.224L1056.22 65.227L1056.28 65.2299L1056.35 65.2329L1056.41 65.2358L1056.47 65.2388L1056.53 65.2417L1056.59 65.2447L1056.65 65.2476L1056.71 65.2505L1056.77 65.2535L1056.84 65.2564L1056.9 65.2593L1056.96 65.2623L1057.02 65.2652L1057.08 65.2681L1057.14 65.2711L1057.2 65.274L1057.26 65.2769L1057.32 65.2798L1057.38 65.2827L1057.44 65.2857L1057.5 65.2886L1057.56 65.2915L1057.62 65.2944L1057.69 65.2973L1057.75 65.3002L1057.81 65.3031L1057.87 65.306L1057.93 65.3089L1057.99 65.3118L1058.05 65.3147L1058.11 65.3176L1058.17 65.3205L1058.23 65.3234L1058.29 65.3263L1058.35 65.3292L1058.41 65.3321L1058.47 65.335L1058.53 65.3378L1058.59 65.3407L1058.65 65.3436L1058.71 65.3465L1058.77 65.3494L1058.83 65.3522L1058.89 65.3551L1058.95 65.358L1059.01 65.3609L1059.07 65.3637L1059.13 65.3666L1059.19 65.3695L1059.24 65.3723L1059.3 65.3752L1059.36 65.3781L1059.42 65.3809L1059.48 65.3838L1059.54 65.3866L1059.6 65.3895L1059.66 65.3923L1059.72 65.3952L1059.78 65.398L1059.84 65.4009L1059.9 65.4037L1059.96 65.4066L1060.02 65.4094L1060.07 65.4123L1060.13 65.4151L1060.19 65.4179L1060.25 65.4208L1060.31 65.4236L1060.37 65.4264L1060.43 65.4293L1060.49 65.4321L1060.55 65.4349L1060.6 65.4378L1060.66 65.4406L1060.72 65.4434L1060.78 65.4462L1060.84 65.449L1060.9 65.4519L1060.96 65.4547L1061.01 65.4575L1061.07 65.4603L1061.13 65.4631L1061.19 65.4659L1061.25 65.4687L1061.31 65.4716L1061.37 65.4744L1061.42 65.4772L1061.48 65.48L1061.54 65.4828L1061.6 65.4856L1061.66 65.4884L1061.71 65.4912L1061.77 65.494L1061.83 65.4968L1061.89 65.4996L1061.95 65.5024L1062.01 65.5051L1062.06 65.5079L1062.12 65.5107L1062.18 65.5135L1062.24 65.5163L1062.29 65.5191L1062.35 65.5219L1062.41 65.5246L1062.47 65.5274L1062.53 65.5302L1062.58 65.533L1062.64 65.5357L1062.7 65.5385L1062.76 65.5413L1062.81 65.5441L1062.87 65.5468L1062.93 65.5496L1062.99 65.5524L1063.04 65.5551L1063.1 65.5579L1063.16 65.5607L1063.22 65.5634L1063.27 65.5662L1063.33 65.5689L1063.39 65.5717L1063.45 65.5745L1063.5 65.5772L1063.56 65.58L1063.62 65.5827L1063.67 65.5855L1063.73 65.5882L1063.79 65.591L1063.85 65.5937L1063.9 65.5965L1063.96 65.5992L1064.02 65.6019L1064.07 65.6047L1064.13 65.6074L1064.19 65.6102L1064.25 65.6129L1064.3 65.6156L1064.36 65.6184L1064.42 65.6211L1064.47 65.6238L1064.53 65.6266L1064.59 65.6293L1064.64 65.632L1064.7 65.6348L1064.76 65.6375L1064.81 65.6402L1064.87 65.6429L1064.93 65.6457L1064.98 65.6484L1065.04 65.6511L1065.1 65.6538L1065.15 65.6565L1065.21 65.6593L1065.27 65.662L1065.32 65.6647L1065.38 65.6674L1065.43 65.6701L1065.49 65.6728L1065.55 65.6755L1065.6 65.6782L1065.66 65.681L1065.72 65.6837L1065.77 65.6864L1065.83 65.6891L1065.88 65.6918L1065.94 65.6945L1066 65.6972L1066.05 65.6999L1066.11 65.7026L1066.17 65.7053L1066.22 65.708L1066.28 65.7107L1066.33 65.7134L1066.39 65.7161L1066.45 65.7187L1066.5 65.7214L1066.56 65.7241L1066.61 65.7268L1066.67 65.7295L1066.72 65.7322L1066.78 65.7349L1066.84 65.7376L1066.89 65.7402L1066.95 65.7429L1067 65.7456L1067.06 65.7483L1067.11 65.751L1067.17 65.7536L1067.23 65.7563L1067.28 65.759L1067.34 65.7617L1067.39 65.7643L1067.45 65.767L1067.5 65.7697L1067.56 65.7724L1067.62 65.775L1067.67 65.7777L1067.73 65.7804L1067.78 65.783L1067.84 65.7857L1067.89 65.7884L1067.95 65.791L1068 65.7937L1068.06 65.7964L1068.11 65.799L1068.17 65.8017L1068.22 65.8043L1068.28 65.807L1068.33 65.8097L1068.39 65.8123L1068.45 65.815L1068.5 65.8176L1068.56 65.8203L1068.61 65.8229L1068.67 65.8256L1068.72 65.8282L1068.78 65.8309L1068.83 65.8335L1068.89 65.8362L1068.94 65.8388L1069 65.8415L1069.05 65.8441L1069.11 65.8468L1069.16 65.8494L1069.22 65.8521L1069.27 65.8547L1069.33 65.8573L1069.38 65.86L1069.44 65.8626L1069.49 65.8653L1069.55 65.8679L1069.6 65.8705L1069.65 65.8732L1069.71 65.8758L1069.76 65.8784L1069.82 65.8811L1069.87 65.8837L1069.93 65.8863L1069.98 65.889L1070.04 65.8916L1070.09 65.8942L1070.15 65.8969L1070.2 65.8995L1070.26 65.9021L1070.31 65.9047L1070.37 65.9074L1070.42 65.91L1070.48 65.9126L1070.53 65.9153L1070.58 65.9179L1070.64 65.9205L1070.69 65.9231L1070.75 65.9257L1070.8 65.9284L1070.86 65.931L1070.91 65.9336L1070.97 65.9362L1071.02 65.9388L1071.07 65.9415L1071.13 65.9441L1071.18 65.9467L1071.24 65.9493L1071.29 65.9519L1071.35 65.9545L1071.4 65.9571L1071.45 65.9598L1071.51 65.9624L1071.56 65.965L1071.62 65.9676L1071.67 65.9702L1071.73 65.9728L1071.78 65.9754L1071.83 65.978L1071.89 65.9806L1071.94 65.9832L1072 65.9858L1072.05 65.9884L1072.11 65.991L1072.16 65.9937L1072.21 65.9963L1072.27 65.9989L1072.32 66.0015L1072.38 66.0041L1072.43 66.0067L1072.48 66.0093L1072.54 66.0119L1072.59 66.0145L1072.65 66.0171L1072.7 66.0197L1072.75 66.0223L1072.81 66.0249L1072.86 66.0274L1072.92 66.03L1072.97 66.0326L1073.02 66.0352L1073.08 66.0378L1073.13 66.0404L1073.19 66.043L1073.24 66.0456L1073.29 66.0482L1073.35 66.0508L1073.4 66.0534L1073.45 66.056L1073.51 66.0586L1073.56 66.0612L1073.62 66.0637L1073.67 66.0663L1073.72 66.0689L1073.78 66.0715L1073.83 66.0741L1073.89 66.0767L1073.94 66.0793L1073.99 66.0819L1074.05 66.0844L1074.1 66.087L1074.15 66.0896L1074.21 66.0922L1074.26 66.0948L1074.31 66.0974L1074.37 66.0999L1074.42 66.1025L1074.48 66.1051L1074.53 66.1077L1074.58 66.1103L1074.64 66.1129L1074.69 66.1154L1074.74 66.118L1074.8 66.1206L1074.85 66.1232L1074.9 66.1258L1074.96 66.1283L1075.01 66.1309L1075.07 66.1335L1075.12 66.1361L1075.17 66.1386L1075.23 66.1412L1075.28 66.1438L1075.33 66.1464L1075.39 66.1489L1075.44 66.1515L1075.49 66.1541L1075.55 66.1567L1075.6 66.1592L1075.65 66.1618L1075.71 66.1644L1075.76 66.167L1075.82 66.1695L1075.87 66.1721L1075.92 66.1747L1075.98 66.1773L1076.03 66.1798L1076.08 66.1824L1076.14 66.185L1076.19 66.1875L1076.24 66.1901L1076.3 66.1927L1076.35 66.1953L1076.4 66.1978L1076.46 66.2004L1076.51 66.203L1076.56 66.2055L1076.62 66.2081L1076.67 66.2107L1076.72 66.2133L1076.78 66.2158L1076.83 66.2184L1076.88 66.221L1076.94 66.2235L1076.99 66.2261L1077.04 66.2287C1087.26 66.7201 1097.49 67.3113 1107.72 67.903C1129.93 69.1867 1152.17 70.4721 1174.34 70.7424C1212.9 71.3026 1244.07 98.2797 1254.27 128.92C1265.61 163.071 1255.71 200.215 1226.34 223.795L1226.34 223.795C1176.2 264.066 1104.5 237.388 1090.08 180.144C1087.63 170.263 1086.66 159.597 1086.67 149.256Z" stroke="#060D16" stroke-width="4"/>
<path d="M213.198 611.38C219.97 613.739 222.89 614.866 226.041 615.874C272.364 629.726 307.344 657.318 331.921 699.337C340.115 713.537 349.934 727.484 361.238 739.205C427.286 807.225 548.292 786.686 585.603 690.552C607.471 634.251 591.4 574.69 548.268 536.385C509.484 501.98 444.578 489.517 390.537 519.704C346.313 544.54 300.31 566.491 255.021 589.829C242.313 596.377 229.373 603.045 213.198 611.38Z" fill="#EC6695"/>
<path d="M221.005 626.53C227.359 628.744 230.099 629.801 233.056 630.747C276.52 643.744 309.342 669.634 332.402 709.059C340.091 722.383 349.304 735.47 359.91 746.467C421.882 810.29 535.421 791.019 570.43 700.817C590.949 647.989 575.87 592.104 535.399 556.163C499.009 523.881 438.107 512.187 387.401 540.511C345.906 563.814 302.741 584.411 260.247 606.309C248.323 612.453 236.182 618.71 221.005 626.53Z" fill="#D12D67"/>
<path d="M330.629 690.889L330.623 690.879C309.155 646.639 276.037 616.068 230.457 598.488C228.701 597.772 227.044 597.031 224.67 595.969C223.957 595.65 223.179 595.302 222.314 594.917L222.385 594.887L222.48 594.847L222.575 594.807L222.67 594.767L222.764 594.728L222.859 594.688L222.954 594.648L223.048 594.608L223.142 594.568L223.237 594.529L223.331 594.489L223.425 594.449L223.519 594.41L223.614 594.37L223.708 594.331L223.802 594.291L223.895 594.252L223.989 594.212L224.083 594.173L224.177 594.133L224.27 594.094L224.364 594.054L224.457 594.015L224.551 593.976L224.644 593.937L224.737 593.897L224.83 593.858L224.924 593.819L225.017 593.78L225.11 593.741L225.203 593.701L225.295 593.662L225.388 593.623L225.481 593.584L225.574 593.545L225.666 593.506L225.759 593.467L225.851 593.428L225.944 593.39L226.036 593.351L226.128 593.312L226.221 593.273L226.313 593.234L226.405 593.195L226.497 593.157L226.589 593.118L226.681 593.079L226.772 593.041L226.864 593.002L226.956 592.963L227.048 592.925L227.139 592.886L227.231 592.848L227.322 592.809L227.413 592.771L227.505 592.733L227.596 592.694L227.687 592.656L227.778 592.617L227.869 592.579L227.96 592.541L228.051 592.502L228.142 592.464L228.233 592.426L228.324 592.388L228.414 592.35L228.505 592.311L228.596 592.273L228.686 592.235L228.777 592.197L228.867 592.159L228.957 592.121L229.048 592.083L229.138 592.045L229.228 592.007L229.318 591.969L229.408 591.931L229.498 591.894L229.588 591.856L229.678 591.818L229.768 591.78L229.857 591.742L229.947 591.705L230.037 591.667L230.126 591.629L230.216 591.592L230.305 591.554L230.394 591.516L230.484 591.479L230.573 591.441L230.662 591.404L230.751 591.366L230.84 591.329L230.929 591.291L231.018 591.254L231.107 591.216L231.196 591.179L231.285 591.141L231.374 591.104L231.462 591.067L231.551 591.03L231.64 590.992L231.728 590.955L231.817 590.918L231.905 590.881L231.993 590.843L232.082 590.806L232.17 590.769L232.258 590.732L232.346 590.695L232.434 590.658L232.522 590.621L232.61 590.584L232.698 590.547L232.786 590.51L232.874 590.473L232.962 590.436L233.049 590.399L233.137 590.362L233.224 590.325L233.312 590.288L233.399 590.252L233.487 590.215L233.574 590.178L233.661 590.141L233.749 590.105L233.836 590.068L233.923 590.031L234.01 589.995L234.097 589.958L234.184 589.921L234.271 589.885L234.358 589.848L234.445 589.812L234.532 589.775L234.618 589.739L234.705 589.702L234.792 589.666L234.878 589.629L234.965 589.593L235.051 589.556L235.138 589.52L235.224 589.484L235.31 589.447L235.397 589.411L235.483 589.375L235.569 589.338L235.655 589.302L235.741 589.266L235.827 589.23L235.913 589.194L235.999 589.157L236.085 589.121L236.171 589.085L236.257 589.049L236.342 589.013L236.428 588.977L236.514 588.941L236.599 588.905L236.685 588.869L236.77 588.833L236.856 588.797L236.941 588.761L237.026 588.725L237.112 588.689L237.197 588.653L237.282 588.617L237.367 588.582L237.452 588.546L237.537 588.51L237.622 588.474L237.707 588.439L237.792 588.403L237.877 588.367L237.962 588.331L238.047 588.296L238.131 588.26L238.216 588.224L238.301 588.189L238.385 588.153L238.47 588.118L238.554 588.082L238.639 588.047L238.723 588.011L238.808 587.975L238.892 587.94L238.976 587.905L239.06 587.869L239.145 587.834L239.229 587.798L239.313 587.763L239.397 587.727L239.481 587.692L239.565 587.657L239.649 587.621L239.733 587.586L239.816 587.551L239.9 587.516L239.984 587.48L240.068 587.445L240.151 587.41L240.235 587.375L240.318 587.34L240.402 587.304L240.485 587.269L240.569 587.234L240.652 587.199L240.736 587.164L240.819 587.129L240.902 587.094L240.986 587.059L241.069 587.024L241.152 586.989L241.235 586.954L241.318 586.919L241.401 586.884L241.484 586.849L241.567 586.814L241.65 586.779L241.733 586.744L241.816 586.709L241.898 586.675L241.981 586.64L242.064 586.605L242.147 586.57L242.229 586.535L242.312 586.501L242.394 586.466L242.477 586.431L242.559 586.396L242.642 586.362L242.724 586.327L242.807 586.292L242.889 586.258L242.971 586.223L243.053 586.188L243.136 586.154L243.218 586.119L243.3 586.085L243.382 586.05L243.464 586.016L243.546 585.981L243.628 585.947L243.71 585.912L243.792 585.878L243.874 585.843L243.956 585.809L244.038 585.774L244.119 585.74L244.201 585.706L244.283 585.671L244.364 585.637L244.446 585.602L244.528 585.568L244.609 585.534L244.691 585.499L244.772 585.465L244.854 585.431L244.935 585.397L245.016 585.362L245.098 585.328L245.179 585.294L245.26 585.26L245.342 585.225L245.423 585.191L245.504 585.157L245.585 585.123L245.666 585.089L245.747 585.055L245.828 585.021L245.909 584.987L245.99 584.952L246.071 584.918L246.152 584.884L246.233 584.85L246.314 584.816L246.395 584.782L246.475 584.748L246.556 584.714L246.637 584.68L246.718 584.646L246.798 584.612L246.879 584.578L246.959 584.545L247.04 584.511L247.121 584.477L247.201 584.443L247.282 584.409L247.362 584.375L247.442 584.341L247.523 584.307L247.603 584.274L247.683 584.24L247.764 584.206L247.844 584.172L247.924 584.139L248.004 584.105L248.085 584.071L248.165 584.037L248.245 584.004L248.325 583.97L248.405 583.936L248.485 583.903L248.565 583.869L248.645 583.835L248.725 583.802L248.805 583.768L248.885 583.734L248.965 583.701L249.044 583.667L249.124 583.634L249.204 583.6L249.284 583.566L249.363 583.533L249.443 583.499L249.523 583.466L249.602 583.432L249.682 583.399L249.762 583.365L249.841 583.332L249.921 583.298L250 583.265L250.08 583.231L250.159 583.198L250.239 583.164L250.318 583.131L250.397 583.098L250.477 583.064L250.556 583.031L250.635 582.997L250.715 582.964L250.794 582.931L250.873 582.897L250.952 582.864L251.031 582.831L251.111 582.797L251.19 582.764L251.269 582.731L251.348 582.698L251.427 582.664L251.506 582.631L251.585 582.598L251.664 582.565L251.743 582.531L251.822 582.498L251.901 582.465L251.98 582.432L252.059 582.398L252.138 582.365L252.216 582.332L252.295 582.299L252.374 582.266L252.453 582.233L252.532 582.199L252.61 582.166L252.689 582.133L252.768 582.1L252.846 582.067L252.925 582.034L253.004 582.001L253.082 581.968L253.161 581.935L253.239 581.902L253.318 581.868L253.396 581.835L253.475 581.802L253.553 581.769L253.632 581.736L253.71 581.703L253.789 581.67L253.867 581.637L253.946 581.604L254.024 581.571L254.102 581.538L254.181 581.505L254.259 581.472L254.337 581.439L254.415 581.407L254.494 581.374L254.572 581.341L254.65 581.308L254.728 581.275L254.807 581.242L254.885 581.209L254.963 581.176L255.041 581.143L255.119 581.11L255.197 581.077L255.275 581.045L255.353 581.012L255.431 580.979L255.51 580.946L255.588 580.913L255.666 580.88L255.744 580.848L255.822 580.815L255.899 580.782L255.977 580.749L256.055 580.716L256.133 580.684L256.211 580.651L256.289 580.618L256.367 580.585L256.445 580.552L256.523 580.52L256.6 580.487L256.678 580.454L256.756 580.421L256.834 580.389L256.912 580.356L256.989 580.323L257.067 580.291L257.145 580.258L257.222 580.225L257.3 580.192L257.378 580.16L257.456 580.127L257.533 580.094L257.611 580.062L257.689 580.029L257.766 579.996L257.844 579.964L257.921 579.931L257.999 579.898L258.077 579.866L258.154 579.833L258.232 579.8L258.309 579.768L258.387 579.735L258.464 579.702L258.542 579.67L258.619 579.637L258.697 579.605L258.774 579.572L258.852 579.539L258.929 579.507L259.007 579.474L259.084 579.442L259.162 579.409L259.239 579.376L259.316 579.344L259.394 579.311L259.471 579.279L259.549 579.246L259.626 579.214L259.703 579.181L259.781 579.148L259.858 579.116L259.935 579.083L260.013 579.051L260.09 579.018L260.167 578.986L260.245 578.953L260.322 578.921L260.399 578.888L260.477 578.856L260.554 578.823L260.631 578.791L260.708 578.758L260.786 578.726L260.863 578.693L260.94 578.66L261.017 578.628L261.095 578.595L261.172 578.563L261.249 578.53L261.326 578.498L261.403 578.465C276.201 572.238 291.077 566.145 305.956 560.052C338.215 546.841 370.487 533.624 402.004 519.007C457.38 493.481 520.226 510.674 555.691 547.416C595.168 588.36 606.409 648.091 580.622 701.756L580.622 701.756C536.622 793.388 416.176 804.305 356.511 732.495C346.278 720.093 337.65 705.576 330.629 690.889Z" stroke="#060D16" stroke-width="4"/>
<path d="M222.41 594.877L222.48 594.847L222.575 594.807L222.67 594.767L222.764 594.728L222.859 594.688L222.954 594.648L223.048 594.608L223.142 594.568L223.237 594.529L223.331 594.489L223.425 594.449L223.519 594.41L223.614 594.37L223.708 594.331L223.802 594.291L223.895 594.252L223.989 594.212L224.083 594.173L224.177 594.133L224.27 594.094L224.364 594.054L224.457 594.015L224.551 593.976L224.644 593.936L224.737 593.897L224.83 593.858L224.924 593.819L225.017 593.78L225.11 593.741L225.203 593.701L225.295 593.662L225.388 593.623L225.481 593.584L225.574 593.545L225.666 593.506L225.759 593.467L225.851 593.428L225.944 593.389L226.036 593.351L226.128 593.312L226.221 593.273L226.313 593.234L226.405 593.195L226.497 593.157L226.589 593.118L226.681 593.079L226.772 593.041L226.864 593.002L226.956 592.963L227.047 592.925L227.139 592.886L227.231 592.848L227.322 592.809L227.413 592.771L227.505 592.732L227.596 592.694L227.687 592.656L227.778 592.617L227.869 592.579L227.96 592.541L228.051 592.502L228.142 592.464L228.233 592.426L228.324 592.388L228.414 592.35L228.505 592.311L228.596 592.273L228.686 592.235L228.777 592.197L228.867 592.159L228.957 592.121L229.048 592.083L229.138 592.045L229.228 592.007L229.318 591.969L229.408 591.931L229.498 591.894L229.588 591.856L229.678 591.818L229.768 591.78L229.857 591.742L229.947 591.705L230.037 591.667L230.126 591.629L230.216 591.592L230.305 591.554L230.394 591.516L230.484 591.479L230.573 591.441L230.662 591.404L230.751 591.366L230.84 591.329L230.929 591.291L231.018 591.254L231.107 591.216L231.196 591.179L231.285 591.141L231.374 591.104L231.462 591.067L231.551 591.029L231.64 590.992L231.728 590.955L231.817 590.918L231.905 590.881L231.993 590.843L232.082 590.806L232.17 590.769L232.258 590.732L232.346 590.695L232.434 590.658L232.522 590.621L232.61 590.584L232.698 590.547L232.786 590.51L232.874 590.473L232.962 590.436L233.049 590.399L233.137 590.362L233.224 590.325L233.312 590.288L233.399 590.252L233.487 590.215L233.574 590.178L233.661 590.141L233.749 590.105L233.836 590.068L233.923 590.031L234.01 589.995L234.097 589.958L234.184 589.921L234.271 589.885L234.358 589.848L234.445 589.812L234.532 589.775L234.618 589.739L234.705 589.702L234.792 589.666L234.878 589.629L234.965 589.593L235.051 589.556L235.138 589.52L235.224 589.484L235.31 589.447L235.397 589.411L235.483 589.375L235.569 589.338L235.655 589.302L235.741 589.266L235.827 589.23L235.913 589.194L235.999 589.157L236.085 589.121L236.171 589.085L236.257 589.049L236.342 589.013L236.428 588.977L236.514 588.941L236.599 588.905L236.685 588.869L236.77 588.833L236.856 588.797L236.941 588.761L237.026 588.725L237.112 588.689L237.197 588.653L237.282 588.617L237.367 588.582L237.452 588.546L237.537 588.51L237.622 588.474L237.707 588.438L237.792 588.403L237.877 588.367L237.962 588.331L238.047 588.296L238.131 588.26L238.216 588.224L238.301 588.189L238.385 588.153L238.47 588.118L238.554 588.082L238.639 588.046L238.723 588.011L238.808 587.975L238.892 587.94L238.976 587.904L239.06 587.869L239.145 587.834L239.229 587.798L239.313 587.763L239.397 587.727L239.481 587.692L239.565 587.657L239.649 587.621L239.733 587.586L239.816 587.551L239.9 587.516L239.984 587.48L240.068 587.445L240.151 587.41L240.235 587.375L240.318 587.34L240.402 587.304L240.485 587.269L240.569 587.234L240.652 587.199L240.736 587.164L240.819 587.129L240.902 587.094L240.986 587.059L241.069 587.024L241.152 586.989L241.235 586.954L241.318 586.919L241.401 586.884L241.484 586.849L241.567 586.814L241.65 586.779L241.733 586.744L241.816 586.709L241.898 586.675L241.981 586.64L242.064 586.605L242.147 586.57L242.229 586.535L242.312 586.501L242.394 586.466L242.477 586.431L242.559 586.396L242.642 586.362L242.724 586.327L242.807 586.292L242.889 586.258L242.971 586.223L243.053 586.188L243.136 586.154L243.218 586.119L243.3 586.085L243.382 586.05L243.464 586.016L243.546 585.981L243.628 585.947L243.71 585.912L243.792 585.878L243.874 585.843L243.956 585.809L244.038 585.774L244.119 585.74L244.201 585.705L244.283 585.671L244.364 585.637L244.446 585.602L244.528 585.568L244.609 585.534L244.691 585.499L244.772 585.465L244.854 585.431L244.935 585.397L245.016 585.362L245.098 585.328L245.179 585.294L245.26 585.26L245.342 585.225L245.423 585.191L245.504 585.157L245.585 585.123L245.666 585.089L245.747 585.055L245.828 585.021L245.909 584.987L245.99 584.952L246.071 584.918L246.152 584.884L246.233 584.85L246.314 584.816L246.395 584.782L246.475 584.748L246.556 584.714L246.637 584.68L246.718 584.646L246.798 584.612L246.879 584.578L246.959 584.545L247.04 584.511L247.121 584.477L247.201 584.443L247.282 584.409L247.362 584.375L247.442 584.341L247.523 584.307L247.603 584.274L247.683 584.24L247.764 584.206L247.844 584.172L247.924 584.138L248.004 584.105L248.085 584.071L248.165 584.037L248.245 584.004L248.325 583.97L248.405 583.936L248.485 583.902L248.565 583.869L248.645 583.835L248.725 583.802L248.805 583.768L248.885 583.734L248.964 583.701L249.044 583.667L249.124 583.633L249.204 583.6L249.284 583.566L249.363 583.533L249.443 583.499L249.523 583.466L249.602 583.432L249.682 583.399L249.762 583.365L249.841 583.332L249.921 583.298L250 583.265L250.08 583.231L250.159 583.198L250.239 583.164L250.318 583.131L250.397 583.098L250.477 583.064L250.556 583.031L250.635 582.997L250.715 582.964L250.794 582.931L250.873 582.897L250.952 582.864L251.031 582.831L251.111 582.797L251.19 582.764L251.269 582.731L251.348 582.698L251.427 582.664L251.506 582.631L251.585 582.598L251.664 582.564L251.743 582.531L251.822 582.498L251.901 582.465L251.98 582.432L252.059 582.398L252.138 582.365L252.216 582.332L252.295 582.299L252.374 582.266L252.453 582.233L252.532 582.199L252.61 582.166L252.689 582.133L252.768 582.1L252.846 582.067L252.925 582.034L253.004 582.001L253.082 581.968L253.161 581.935L253.239 581.901L253.318 581.868L253.396 581.835L253.475 581.802L253.553 581.769L253.632 581.736L253.71 581.703L253.789 581.67L253.867 581.637L253.946 581.604L254.024 581.571L254.102 581.538L254.181 581.505L254.259 581.472L254.337 581.439L254.415 581.407L254.494 581.374L254.572 581.341L254.65 581.308L254.728 581.275L254.807 581.242L254.885 581.209L254.963 581.176L255.041 581.143L255.119 581.11L255.197 581.077L255.275 581.045L255.353 581.012L255.431 580.979L255.509 580.946L255.588 580.913L255.666 580.88L255.744 580.848L255.821 580.815L255.899 580.782L255.977 580.749L256.055 580.716L256.133 580.684L256.211 580.651L256.289 580.618L256.367 580.585L256.445 580.552L256.523 580.52L256.6 580.487L256.678 580.454L256.756 580.421L256.834 580.389L256.912 580.356L256.989 580.323L257.067 580.291L257.145 580.258L257.222 580.225L257.3 580.192L257.378 580.16L257.456 580.127L257.533 580.094L257.611 580.062L257.689 580.029L257.766 579.996L257.844 579.964L257.921 579.931L257.999 579.898L258.077 579.866L258.154 579.833L258.232 579.8L258.309 579.768L258.387 579.735L258.464 579.702L258.542 579.67L258.619 579.637L258.697 579.605L258.774 579.572L258.852 579.539L258.929 579.507L259.007 579.474L259.084 579.442L259.162 579.409L259.239 579.376L259.316 579.344L259.394 579.311L259.471 579.279L259.549 579.246L259.626 579.214L259.703 579.181L259.781 579.148L259.858 579.116L259.935 579.083L260.013 579.051L260.09 579.018L260.167 578.986L260.245 578.953L260.322 578.921L260.399 578.888L260.477 578.856L260.554 578.823L260.631 578.791L260.708 578.758L260.786 578.725L260.863 578.693L260.94 578.66L261.017 578.628L261.095 578.595L261.172 578.563L261.249 578.53L261.326 578.498L261.403 578.465C284.823 568.609 308.013 558.708 331.257 548.785L331.45 548.703C354.76 538.751 378.124 528.777 401.838 518.797L401.869 518.783L401.899 518.769C457.271 493.243 520.221 510.669 555.691 547.416C595.17 588.363 606.506 648.331 580.625 701.75L580.622 701.756C536.622 793.388 416.176 804.305 356.511 732.495C346.278 720.093 337.65 705.576 330.629 690.889L330.623 690.878C309.257 646.88 276.039 616.069 230.458 598.488C229.26 598 228.088 597.459 226.646 596.794C226.314 596.64 225.967 596.48 225.602 596.313C224.659 595.88 223.612 595.404 222.41 594.877Z" stroke="#060D16" stroke-width="4"/>
<path d="M1139.09 403.792C1133.73 408.555 1131.32 410.556 1128.91 412.816C1094.23 446.512 1053.09 463.608 1004.42 464.587C988.031 464.822 971.066 466.597 955.323 470.754C863.737 495.272 822.692 610.943 888.448 690.378C926.951 736.915 986.79 751.912 1041.26 732.92C1090.21 715.824 1132.72 665.224 1132.7 603.324C1132.57 552.603 1135.83 501.735 1137.53 450.815C1138 436.527 1138.49 421.978 1139.09 403.792Z" fill="#EC6695"/>
<path d="M1122.06 403.225C1117.03 407.694 1114.77 409.571 1112.5 411.692C1079.97 443.309 1041.37 459.349 995.7 460.268C980.319 460.488 964.401 462.154 949.629 466.055C863.695 489.06 825.182 597.593 886.881 672.126C923.007 715.791 979.155 729.863 1030.26 712.043C1076.19 696.002 1116.08 648.524 1116.07 590.444C1115.94 542.853 1119 495.124 1120.59 447.346C1121.03 433.939 1121.49 420.288 1122.06 403.225Z" fill="#D12D67"/>
<path d="M1012.43 467.576L1012.44 467.577C1061.53 470.394 1104.37 456.377 1141.94 425.146C1143.42 423.961 1144.87 422.876 1146.96 421.321C1147.58 420.853 1148.27 420.344 1149.02 419.776L1149.01 419.853L1149 419.955L1148.99 420.057L1148.98 420.16L1148.97 420.262L1148.96 420.364L1148.95 420.466L1148.94 420.568L1148.92 420.669L1148.91 420.771L1148.9 420.873L1148.89 420.974L1148.88 421.076L1148.87 421.177L1148.86 421.279L1148.85 421.38L1148.83 421.481L1148.82 421.582L1148.81 421.684L1148.8 421.785L1148.79 421.886L1148.78 421.986L1148.77 422.087L1148.76 422.188L1148.74 422.289L1148.73 422.389L1148.72 422.49L1148.71 422.59L1148.7 422.69L1148.69 422.791L1148.68 422.891L1148.67 422.991L1148.65 423.091L1148.64 423.191L1148.63 423.291L1148.62 423.391L1148.61 423.491L1148.6 423.59L1148.59 423.69L1148.58 423.79L1148.57 423.889L1148.55 423.989L1148.54 424.088L1148.53 424.187L1148.52 424.286L1148.51 424.386L1148.5 424.485L1148.49 424.584L1148.48 424.683L1148.47 424.781L1148.46 424.88L1148.44 424.979L1148.43 425.078L1148.42 425.176L1148.41 425.275L1148.4 425.373L1148.39 425.472L1148.38 425.57L1148.37 425.668L1148.36 425.767L1148.35 425.865L1148.34 425.963L1148.32 426.061L1148.31 426.159L1148.3 426.256L1148.29 426.354L1148.28 426.452L1148.27 426.55L1148.26 426.647L1148.25 426.745L1148.24 426.842L1148.23 426.94L1148.22 427.037L1148.21 427.134L1148.19 427.232L1148.18 427.329L1148.17 427.426L1148.16 427.523L1148.15 427.62L1148.14 427.717L1148.13 427.813L1148.12 427.91L1148.11 428.007L1148.1 428.103L1148.09 428.2L1148.08 428.297L1148.07 428.393L1148.05 428.489L1148.04 428.586L1148.03 428.682L1148.02 428.778L1148.01 428.874L1148 428.97L1147.99 429.066L1147.98 429.162L1147.97 429.258L1147.96 429.354L1147.95 429.45L1147.94 429.545L1147.93 429.641L1147.92 429.737L1147.91 429.832L1147.89 429.928L1147.88 430.023L1147.87 430.118L1147.86 430.213L1147.85 430.309L1147.84 430.404L1147.83 430.499L1147.82 430.594L1147.81 430.689L1147.8 430.784L1147.79 430.879L1147.78 430.973L1147.77 431.068L1147.76 431.163L1147.75 431.257L1147.74 431.352L1147.73 431.446L1147.72 431.541L1147.7 431.635L1147.69 431.73L1147.68 431.824L1147.67 431.918L1147.66 432.012L1147.65 432.106L1147.64 432.2L1147.63 432.294L1147.62 432.388L1147.61 432.482L1147.6 432.576L1147.59 432.67L1147.58 432.763L1147.57 432.857L1147.56 432.951L1147.55 433.044L1147.54 433.138L1147.53 433.231L1147.52 433.324L1147.51 433.418L1147.5 433.511L1147.49 433.604L1147.48 433.697L1147.47 433.79L1147.45 433.883L1147.44 433.976L1147.43 434.069L1147.42 434.162L1147.41 434.255L1147.4 434.348L1147.39 434.44L1147.38 434.533L1147.37 434.626L1147.36 434.718L1147.35 434.811L1147.34 434.903L1147.33 434.995L1147.32 435.088L1147.31 435.18L1147.3 435.272L1147.29 435.364L1147.28 435.456L1147.27 435.549L1147.26 435.641L1147.25 435.733L1147.24 435.824L1147.23 435.916L1147.22 436.008L1147.21 436.1L1147.2 436.192L1147.19 436.283L1147.18 436.375L1147.17 436.466L1147.16 436.558L1147.15 436.649L1147.14 436.741L1147.13 436.832L1147.12 436.923L1147.11 437.015L1147.1 437.106L1147.09 437.197L1147.08 437.288L1147.07 437.379L1147.06 437.47L1147.05 437.561L1147.04 437.652L1147.03 437.743L1147.02 437.834L1147.01 437.925L1147 438.015L1146.99 438.106L1146.98 438.197L1146.96 438.287L1146.95 438.378L1146.94 438.468L1146.93 438.559L1146.92 438.649L1146.91 438.739L1146.9 438.83L1146.89 438.92L1146.88 439.01L1146.87 439.1L1146.86 439.191L1146.85 439.281L1146.84 439.371L1146.83 439.461L1146.82 439.551L1146.81 439.64L1146.8 439.73L1146.79 439.82L1146.78 439.91L1146.77 440L1146.76 440.089L1146.75 440.179L1146.74 440.268L1146.73 440.358L1146.72 440.447L1146.71 440.537L1146.7 440.626L1146.69 440.716L1146.68 440.805L1146.68 440.894L1146.67 440.983L1146.66 441.073L1146.65 441.162L1146.64 441.251L1146.63 441.34L1146.62 441.429L1146.61 441.518L1146.6 441.607L1146.59 441.696L1146.58 441.785L1146.57 441.873L1146.56 441.962L1146.55 442.051L1146.54 442.14L1146.53 442.228L1146.52 442.317L1146.51 442.405L1146.5 442.494L1146.49 442.583L1146.48 442.671L1146.47 442.759L1146.46 442.848L1146.45 442.936L1146.44 443.024L1146.43 443.113L1146.42 443.201L1146.41 443.289L1146.4 443.377L1146.39 443.465L1146.38 443.553L1146.37 443.641L1146.36 443.729L1146.35 443.817L1146.34 443.905L1146.33 443.993L1146.32 444.081L1146.31 444.169L1146.3 444.256L1146.29 444.344L1146.28 444.432L1146.27 444.519L1146.26 444.607L1146.25 444.695L1146.24 444.782L1146.23 444.87L1146.22 444.957L1146.21 445.044L1146.2 445.132L1146.19 445.219L1146.18 445.306L1146.17 445.394L1146.16 445.481L1146.16 445.568L1146.15 445.655L1146.14 445.743L1146.13 445.83L1146.12 445.917L1146.11 446.004L1146.1 446.091L1146.09 446.178L1146.08 446.265L1146.07 446.352L1146.06 446.438L1146.05 446.525L1146.04 446.612L1146.03 446.699L1146.02 446.786L1146.01 446.872L1146 446.959L1145.99 447.046L1145.98 447.132L1145.97 447.219L1145.96 447.305L1145.95 447.392L1145.94 447.478L1145.93 447.565L1145.92 447.651L1145.91 447.738L1145.9 447.824L1145.89 447.91L1145.89 447.997L1145.88 448.083L1145.87 448.169L1145.86 448.255L1145.85 448.341L1145.84 448.428L1145.83 448.514L1145.82 448.6L1145.81 448.686L1145.8 448.772L1145.79 448.858L1145.78 448.944L1145.77 449.03L1145.76 449.116L1145.75 449.201L1145.74 449.287L1145.73 449.373L1145.72 449.459L1145.71 449.545L1145.7 449.63L1145.69 449.716L1145.68 449.802L1145.67 449.887L1145.67 449.973L1145.66 450.059L1145.65 450.144L1145.64 450.23L1145.63 450.315L1145.62 450.401L1145.61 450.486L1145.6 450.572L1145.59 450.657L1145.58 450.742L1145.57 450.828L1145.56 450.913L1145.55 450.998L1145.54 451.084L1145.53 451.169L1145.52 451.254L1145.51 451.339L1145.5 451.425L1145.49 451.51L1145.49 451.595L1145.48 451.68L1145.47 451.765L1145.46 451.85L1145.45 451.935L1145.44 452.02L1145.43 452.105L1145.42 452.19L1145.41 452.275L1145.4 452.36L1145.39 452.445L1145.38 452.53L1145.37 452.615L1145.36 452.699L1145.35 452.784L1145.34 452.869L1145.33 452.954L1145.32 453.039L1145.32 453.123L1145.31 453.208L1145.3 453.293L1145.29 453.377L1145.28 453.462L1145.27 453.546L1145.26 453.631L1145.25 453.716L1145.24 453.8L1145.23 453.885L1145.22 453.969L1145.21 454.054L1145.2 454.138L1145.19 454.223L1145.18 454.307L1145.17 454.391L1145.16 454.476L1145.16 454.56L1145.15 454.645L1145.14 454.729L1145.13 454.813L1145.12 454.897L1145.11 454.982L1145.1 455.066L1145.09 455.15L1145.08 455.234L1145.07 455.319L1145.06 455.403L1145.05 455.487L1145.04 455.571L1145.03 455.655L1145.02 455.739L1145.01 455.824L1145.01 455.908L1145 455.992L1144.99 456.076L1144.98 456.16L1144.97 456.244L1144.96 456.328L1144.95 456.412L1144.94 456.496L1144.93 456.58L1144.92 456.664L1144.91 456.747L1144.9 456.831L1144.89 456.915L1144.88 456.999L1144.87 457.083L1144.87 457.167L1144.86 457.251L1144.85 457.334L1144.84 457.418L1144.83 457.502L1144.82 457.586L1144.81 457.67L1144.8 457.753L1144.79 457.837L1144.78 457.921L1144.77 458.005L1144.76 458.088L1144.75 458.172L1144.74 458.256L1144.74 458.339L1144.73 458.423L1144.72 458.507L1144.71 458.59L1144.7 458.674L1144.69 458.757L1144.68 458.841L1144.67 458.924L1144.66 459.008L1144.65 459.092L1144.64 459.175L1144.63 459.259L1144.62 459.342L1144.61 459.426L1144.61 459.509L1144.6 459.593L1144.59 459.676L1144.58 459.76L1144.57 459.843L1144.56 459.926L1144.55 460.01L1144.54 460.093L1144.53 460.177L1144.52 460.26L1144.51 460.344L1144.5 460.427L1144.49 460.51L1144.48 460.594L1144.48 460.677L1144.47 460.76L1144.46 460.844L1144.45 460.927L1144.44 461.011L1144.43 461.094L1144.42 461.177L1144.41 461.26L1144.4 461.344L1144.39 461.427L1144.38 461.51L1144.37 461.594L1144.36 461.677L1144.35 461.76L1144.35 461.843L1144.34 461.927C1142.56 477.883 1140.63 493.842 1138.7 509.804C1134.51 544.411 1130.32 579.032 1127.72 613.676C1123.02 674.471 1077.38 720.966 1028.01 734.025C973.018 748.539 915.384 729.241 881.093 680.568L881.093 680.568C822.528 597.487 871.702 486.995 963.485 469.897C979.302 467.007 996.183 466.549 1012.43 467.576Z" stroke="#060D16" stroke-width="4"/>
<path d="M1149.01 419.879L1149 419.955L1148.99 420.057L1148.98 420.16L1148.97 420.262L1148.96 420.364L1148.95 420.466L1148.94 420.568L1148.92 420.669L1148.91 420.771L1148.9 420.873L1148.89 420.974L1148.88 421.076L1148.87 421.177L1148.86 421.279L1148.85 421.38L1148.83 421.481L1148.82 421.582L1148.81 421.684L1148.8 421.785L1148.79 421.886L1148.78 421.986L1148.77 422.087L1148.76 422.188L1148.74 422.289L1148.73 422.389L1148.72 422.49L1148.71 422.59L1148.7 422.69L1148.69 422.791L1148.68 422.891L1148.67 422.991L1148.65 423.091L1148.64 423.191L1148.63 423.291L1148.62 423.391L1148.61 423.491L1148.6 423.59L1148.59 423.69L1148.58 423.79L1148.57 423.889L1148.56 423.989L1148.54 424.088L1148.53 424.187L1148.52 424.286L1148.51 424.386L1148.5 424.485L1148.49 424.584L1148.48 424.683L1148.47 424.781L1148.46 424.88L1148.44 424.979L1148.43 425.078L1148.42 425.176L1148.41 425.275L1148.4 425.373L1148.39 425.472L1148.38 425.57L1148.37 425.668L1148.36 425.767L1148.35 425.865L1148.34 425.963L1148.32 426.061L1148.31 426.159L1148.3 426.257L1148.29 426.354L1148.28 426.452L1148.27 426.55L1148.26 426.647L1148.25 426.745L1148.24 426.842L1148.23 426.94L1148.22 427.037L1148.21 427.134L1148.19 427.232L1148.18 427.329L1148.17 427.426L1148.16 427.523L1148.15 427.62L1148.14 427.717L1148.13 427.813L1148.12 427.91L1148.11 428.007L1148.1 428.103L1148.09 428.2L1148.08 428.297L1148.07 428.393L1148.05 428.489L1148.04 428.586L1148.03 428.682L1148.02 428.778L1148.01 428.874L1148 428.97L1147.99 429.066L1147.98 429.162L1147.97 429.258L1147.96 429.354L1147.95 429.45L1147.94 429.545L1147.93 429.641L1147.92 429.737L1147.91 429.832L1147.89 429.928L1147.88 430.023L1147.87 430.118L1147.86 430.213L1147.85 430.309L1147.84 430.404L1147.83 430.499L1147.82 430.594L1147.81 430.689L1147.8 430.784L1147.79 430.879L1147.78 430.973L1147.77 431.068L1147.76 431.163L1147.75 431.257L1147.74 431.352L1147.73 431.446L1147.72 431.541L1147.7 431.635L1147.69 431.73L1147.68 431.824L1147.67 431.918L1147.66 432.012L1147.65 432.106L1147.64 432.2L1147.63 432.294L1147.62 432.388L1147.61 432.482L1147.6 432.576L1147.59 432.67L1147.58 432.763L1147.57 432.857L1147.56 432.951L1147.55 433.044L1147.54 433.138L1147.53 433.231L1147.52 433.324L1147.51 433.418L1147.5 433.511L1147.49 433.604L1147.48 433.697L1147.47 433.79L1147.45 433.883L1147.44 433.976L1147.43 434.069L1147.42 434.162L1147.41 434.255L1147.4 434.348L1147.39 434.44L1147.38 434.533L1147.37 434.626L1147.36 434.718L1147.35 434.811L1147.34 434.903L1147.33 434.995L1147.32 435.088L1147.31 435.18L1147.3 435.272L1147.29 435.364L1147.28 435.456L1147.27 435.549L1147.26 435.641L1147.25 435.733L1147.24 435.824L1147.23 435.916L1147.22 436.008L1147.21 436.1L1147.2 436.192L1147.19 436.283L1147.18 436.375L1147.17 436.466L1147.16 436.558L1147.15 436.649L1147.14 436.741L1147.13 436.832L1147.12 436.923L1147.11 437.015L1147.1 437.106L1147.09 437.197L1147.08 437.288L1147.07 437.379L1147.06 437.47L1147.05 437.561L1147.04 437.652L1147.03 437.743L1147.02 437.834L1147.01 437.925L1147 438.015L1146.99 438.106L1146.98 438.197L1146.96 438.287L1146.95 438.378L1146.94 438.468L1146.93 438.559L1146.92 438.649L1146.91 438.739L1146.9 438.83L1146.89 438.92L1146.88 439.01L1146.87 439.1L1146.86 439.191L1146.85 439.281L1146.84 439.371L1146.83 439.461L1146.82 439.551L1146.81 439.64L1146.8 439.73L1146.79 439.82L1146.78 439.91L1146.77 440L1146.76 440.089L1146.75 440.179L1146.74 440.268L1146.73 440.358L1146.72 440.447L1146.71 440.537L1146.7 440.626L1146.69 440.716L1146.68 440.805L1146.68 440.894L1146.67 440.983L1146.66 441.073L1146.65 441.162L1146.64 441.251L1146.63 441.34L1146.62 441.429L1146.61 441.518L1146.6 441.607L1146.59 441.696L1146.58 441.785L1146.57 441.873L1146.56 441.962L1146.55 442.051L1146.54 442.14L1146.53 442.228L1146.52 442.317L1146.51 442.405L1146.5 442.494L1146.49 442.583L1146.48 442.671L1146.47 442.759L1146.46 442.848L1146.45 442.936L1146.44 443.024L1146.43 443.113L1146.42 443.201L1146.41 443.289L1146.4 443.377L1146.39 443.465L1146.38 443.553L1146.37 443.641L1146.36 443.729L1146.35 443.817L1146.34 443.905L1146.33 443.993L1146.32 444.081L1146.31 444.169L1146.3 444.256L1146.29 444.344L1146.28 444.432L1146.27 444.519L1146.26 444.607L1146.25 444.695L1146.24 444.782L1146.23 444.87L1146.22 444.957L1146.21 445.044L1146.2 445.132L1146.19 445.219L1146.18 445.306L1146.17 445.394L1146.16 445.481L1146.16 445.568L1146.15 445.655L1146.14 445.743L1146.13 445.83L1146.12 445.917L1146.11 446.004L1146.1 446.091L1146.09 446.178L1146.08 446.265L1146.07 446.352L1146.06 446.438L1146.05 446.525L1146.04 446.612L1146.03 446.699L1146.02 446.786L1146.01 446.872L1146 446.959L1145.99 447.046L1145.98 447.132L1145.97 447.219L1145.96 447.305L1145.95 447.392L1145.94 447.478L1145.93 447.565L1145.92 447.651L1145.91 447.738L1145.9 447.824L1145.89 447.91L1145.89 447.997L1145.88 448.083L1145.87 448.169L1145.86 448.255L1145.85 448.341L1145.84 448.428L1145.83 448.514L1145.82 448.6L1145.81 448.686L1145.8 448.772L1145.79 448.858L1145.78 448.944L1145.77 449.03L1145.76 449.116L1145.75 449.201L1145.74 449.287L1145.73 449.373L1145.72 449.459L1145.71 449.545L1145.7 449.63L1145.69 449.716L1145.68 449.802L1145.67 449.887L1145.67 449.973L1145.66 450.059L1145.65 450.144L1145.64 450.23L1145.63 450.315L1145.62 450.401L1145.61 450.486L1145.6 450.572L1145.59 450.657L1145.58 450.742L1145.57 450.828L1145.56 450.913L1145.55 450.998L1145.54 451.084L1145.53 451.169L1145.52 451.254L1145.51 451.339L1145.5 451.425L1145.49 451.51L1145.49 451.595L1145.48 451.68L1145.47 451.765L1145.46 451.85L1145.45 451.935L1145.44 452.02L1145.43 452.105L1145.42 452.19L1145.41 452.275L1145.4 452.36L1145.39 452.445L1145.38 452.53L1145.37 452.615L1145.36 452.699L1145.35 452.784L1145.34 452.869L1145.33 452.954L1145.32 453.039L1145.32 453.123L1145.31 453.208L1145.3 453.293L1145.29 453.377L1145.28 453.462L1145.27 453.546L1145.26 453.631L1145.25 453.716L1145.24 453.8L1145.23 453.885L1145.22 453.969L1145.21 454.054L1145.2 454.138L1145.19 454.223L1145.18 454.307L1145.17 454.391L1145.16 454.476L1145.16 454.56L1145.15 454.645L1145.14 454.729L1145.13 454.813L1145.12 454.897L1145.11 454.982L1145.1 455.066L1145.09 455.15L1145.08 455.234L1145.07 455.319L1145.06 455.403L1145.05 455.487L1145.04 455.571L1145.03 455.655L1145.02 455.739L1145.01 455.824L1145.01 455.908L1145 455.992L1144.99 456.076L1144.98 456.16L1144.97 456.244L1144.96 456.328L1144.95 456.412L1144.94 456.496L1144.93 456.58L1144.92 456.664L1144.91 456.747L1144.9 456.831L1144.89 456.915L1144.88 456.999L1144.87 457.083L1144.87 457.167L1144.86 457.251L1144.85 457.334L1144.84 457.418L1144.83 457.502L1144.82 457.586L1144.81 457.67L1144.8 457.753L1144.79 457.837L1144.78 457.921L1144.77 458.005L1144.76 458.088L1144.75 458.172L1144.74 458.256L1144.74 458.339L1144.73 458.423L1144.72 458.507L1144.71 458.59L1144.7 458.674L1144.69 458.757L1144.68 458.841L1144.67 458.924L1144.66 459.008L1144.65 459.092L1144.64 459.175L1144.63 459.259L1144.62 459.342L1144.61 459.426L1144.61 459.509L1144.6 459.593L1144.59 459.676L1144.58 459.76L1144.57 459.843L1144.56 459.926L1144.55 460.01L1144.54 460.093L1144.53 460.177L1144.52 460.26L1144.51 460.344L1144.5 460.427L1144.49 460.51L1144.48 460.594L1144.48 460.677L1144.47 460.76L1144.46 460.844L1144.45 460.927L1144.44 461.011L1144.43 461.094L1144.42 461.177L1144.41 461.26L1144.4 461.344L1144.39 461.427L1144.38 461.51L1144.37 461.594L1144.36 461.677L1144.35 461.76L1144.35 461.843L1144.34 461.927C1141.53 487.181 1138.87 512.255 1136.21 537.387L1136.18 537.597C1133.51 562.8 1130.83 588.063 1127.99 613.634L1127.99 613.667L1127.98 613.7C1123.28 674.491 1077.39 720.964 1028.01 734.025C973.014 748.54 915.127 729.209 881.097 680.574L881.093 680.568C822.528 597.487 871.702 486.995 963.485 469.897C979.302 467.007 996.183 466.549 1012.43 467.576L1012.44 467.577C1061.27 470.365 1104.37 456.378 1141.94 425.146C1142.95 424.339 1143.99 423.579 1145.27 422.644C1145.57 422.429 1145.88 422.204 1146.2 421.967C1147.04 421.355 1147.97 420.672 1149.01 419.879Z" stroke="#060D16" stroke-width="4"/>
<path fill-rule="evenodd" clip-rule="evenodd" d="M-174.732 961.302C-149.025 1057.22 -24.1893 1107.69 68.4867 1073.76C161.163 1039.83 194.246 977.238 168.538 881.323C142.831 785.407 73.1922 711.611 -19.4837 745.539C-112.16 779.468 -200.44 865.386 -174.732 961.302Z" fill="#AEF6CD"/>
<path fill-rule="evenodd" clip-rule="evenodd" d="M-176.859 947.995C-152.39 1039.29 -33.5692 1087.33 54.6413 1055.04C142.852 1022.74 174.341 963.164 149.872 871.87C125.404 780.576 59.1202 710.335 -29.0904 742.629C-117.301 774.923 -201.328 856.701 -176.859 947.995Z" fill="#53E291"/>
<path d="M50.499 1077.22C3.18122 1088.98 -49.9125 1079.17 -93.0889 1054.21C-136.262 1029.26 -169.288 989.306 -176.816 940.985C-184.334 892.728 -164.286 849.815 -130.295 815.896C-96.2855 781.959 -48.4376 757.172 -0.843722 745.342C46.3174 733.62 84.883 747.63 113.635 776.658C142.469 805.769 161.494 850.068 169.094 898.851C176.69 947.606 170.602 986.247 151.011 1015.61C131.418 1044.97 98.0935 1065.39 50.499 1077.22Z" stroke="#060D16" stroke-width="4"/>
<path d="M312.855 -115.426C317.408 -112.956 319.359 -111.813 321.488 -110.728C352.902 -95.4604 374.63 -71.7173 387.261 -38.8997C391.451 -27.8221 396.828 -16.7353 403.523 -7.0635C442.696 49.1189 531.358 48.559 569.147 -15.6374C591.292 -53.2329 586.766 -97.5673 560.472 -129.897C536.826 -158.94 492.001 -175.38 449.959 -160.148C415.538 -147.588 380.186 -137.292 345.181 -125.924C335.358 -122.734 325.356 -119.486 312.855 -115.426Z" fill="#F3FD58"/>
<path d="M328.736 -105.868C332.357 -103.239 333.898 -102.04 335.599 -100.87C360.778 -84.2531 376.707 -61.47 383.822 -31.9421C386.16 -21.9833 389.514 -11.8827 394.156 -2.84514C421.364 49.6848 497.353 59.2061 536.955 8.49457C560.158 -21.2023 561.283 -59.6782 542.414 -90.3292C525.44 -117.867 488.909 -137.002 451.189 -128.7C420.296 -121.827 388.861 -116.997 357.602 -111.211C348.831 -109.588 339.9 -107.934 328.736 -105.868Z" fill="#FBFFB9"/>
<path d="M387.521 -47.2315L387.518 -47.2428C378.257 -81.6794 358.825 -107.983 328.755 -126.72C327.614 -127.462 326.551 -128.204 325.022 -129.272C324.864 -129.382 324.701 -129.496 324.532 -129.614L324.563 -129.621L324.635 -129.636L324.707 -129.651L324.779 -129.666L324.85 -129.682L324.922 -129.697L324.994 -129.712L325.065 -129.727L325.137 -129.743L325.208 -129.758L325.28 -129.773L325.351 -129.788L325.422 -129.803L325.493 -129.818L325.565 -129.833L325.636 -129.849L325.707 -129.864L325.778 -129.879L325.849 -129.894L325.92 -129.909L325.991 -129.924L326.062 -129.939L326.132 -129.954L326.203 -129.969L326.274 -129.984L326.345 -129.999L326.415 -130.014L326.486 -130.029L326.556 -130.044L326.627 -130.059L326.697 -130.074L326.767 -130.089L326.838 -130.104L326.908 -130.119L326.978 -130.134L327.048 -130.149L327.118 -130.163L327.188 -130.178L327.258 -130.193L327.328 -130.208L327.398 -130.223L327.468 -130.238L327.538 -130.253L327.608 -130.267L327.678 -130.282L327.747 -130.297L327.817 -130.312L327.886 -130.327L327.956 -130.341L328.025 -130.356L328.095 -130.371L328.164 -130.386L328.234 -130.4L328.303 -130.415L328.372 -130.43L328.441 -130.444L328.51 -130.459L328.58 -130.474L328.649 -130.488L328.718 -130.503L328.787 -130.518L328.856 -130.532L328.924 -130.547L328.993 -130.562L329.062 -130.576L329.131 -130.591L329.2 -130.605L329.268 -130.62L329.337 -130.635L329.405 -130.649L329.474 -130.664L329.542 -130.678L329.611 -130.693L329.679 -130.707L329.748 -130.722L329.816 -130.736L329.884 -130.751L329.952 -130.765L330.02 -130.78L330.089 -130.794L330.157 -130.809L330.225 -130.823L330.293 -130.838L330.361 -130.852L330.429 -130.866L330.496 -130.881L330.564 -130.895L330.632 -130.91L330.7 -130.924L330.767 -130.938L330.835 -130.953L330.903 -130.967L330.97 -130.982L331.038 -130.996L331.105 -131.01L331.173 -131.025L331.24 -131.039L331.307 -131.053L331.375 -131.067L331.442 -131.082L331.509 -131.096L331.576 -131.11L331.644 -131.125L331.711 -131.139L331.778 -131.153L331.845 -131.167L331.912 -131.181L331.979 -131.196L332.046 -131.21L332.112 -131.224L332.179 -131.238L332.246 -131.252L332.313 -131.267L332.379 -131.281L332.446 -131.295L332.513 -131.309L332.579 -131.323L332.646 -131.337L332.712 -131.352L332.779 -131.366L332.845 -131.38L332.911 -131.394L332.978 -131.408L333.044 -131.422L333.11 -131.436L333.177 -131.45L333.243 -131.464L333.309 -131.478L333.375 -131.492L333.441 -131.506L333.507 -131.52L333.573 -131.534L333.639 -131.548L333.705 -131.562L333.771 -131.576L333.837 -131.59L333.902 -131.604L333.968 -131.618L334.034 -131.632L334.1 -131.646L334.165 -131.66L334.231 -131.674L334.296 -131.688L334.362 -131.702L334.427 -131.716L334.493 -131.73L334.558 -131.744L334.624 -131.758L334.689 -131.771L334.754 -131.785L334.82 -131.799L334.885 -131.813L334.95 -131.827L335.015 -131.841L335.08 -131.855L335.145 -131.868L335.211 -131.882L335.276 -131.896L335.341 -131.91L335.406 -131.924L335.47 -131.937L335.535 -131.951L335.6 -131.965L335.665 -131.979L335.73 -131.992L335.795 -132.006L335.859 -132.02L335.924 -132.034L335.989 -132.047L336.053 -132.061L336.118 -132.075L336.182 -132.089L336.247 -132.102L336.311 -132.116L336.376 -132.13L336.44 -132.143L336.504 -132.157L336.569 -132.171L336.633 -132.184L336.697 -132.198L336.762 -132.212L336.826 -132.225L336.89 -132.239L336.954 -132.252L337.018 -132.266L337.082 -132.28L337.146 -132.293L337.21 -132.307L337.274 -132.32L337.338 -132.334L337.402 -132.348L337.466 -132.361L337.53 -132.375L337.594 -132.388L337.657 -132.402L337.721 -132.415L337.785 -132.429L337.849 -132.442L337.912 -132.456L337.976 -132.47L338.04 -132.483L338.103 -132.497L338.167 -132.51L338.23 -132.524L338.294 -132.537L338.357 -132.55L338.42 -132.564L338.484 -132.577L338.547 -132.591L338.611 -132.604L338.674 -132.618L338.737 -132.631L338.8 -132.645L338.863 -132.658L338.927 -132.671L338.99 -132.685L339.053 -132.698L339.116 -132.712L339.179 -132.725L339.242 -132.738L339.305 -132.752L339.368 -132.765L339.431 -132.779L339.494 -132.792L339.557 -132.805L339.62 -132.819L339.682 -132.832L339.745 -132.845L339.808 -132.859L339.871 -132.872L339.934 -132.885L339.996 -132.899L340.059 -132.912L340.121 -132.925L340.184 -132.939L340.247 -132.952L340.309 -132.965L340.372 -132.978L340.434 -132.992L340.497 -133.005L340.559 -133.018L340.622 -133.031L340.684 -133.045L340.746 -133.058L340.809 -133.071L340.871 -133.084L340.933 -133.098L340.996 -133.111L341.058 -133.124L341.12 -133.137L341.182 -133.151L341.244 -133.164L341.306 -133.177L341.369 -133.19L341.431 -133.203L341.493 -133.216L341.555 -133.23L341.617 -133.243L341.679 -133.256L341.741 -133.269L341.803 -133.282L341.865 -133.295L341.926 -133.309L341.988 -133.322L342.05 -133.335L342.112 -133.348L342.174 -133.361L342.235 -133.374L342.297 -133.387L342.359 -133.4L342.421 -133.414L342.482 -133.427L342.544 -133.44L342.606 -133.453L342.667 -133.466L342.729 -133.479L342.79 -133.492L342.852 -133.505L342.913 -133.518L342.975 -133.531L343.036 -133.544L343.098 -133.557L343.159 -133.57L343.22 -133.583L343.282 -133.596L343.343 -133.61L343.405 -133.623L343.466 -133.636L343.527 -133.649L343.588 -133.662L343.65 -133.675L343.711 -133.688L343.772 -133.701L343.833 -133.714L343.894 -133.727L343.956 -133.74L344.017 -133.753L344.078 -133.766L344.139 -133.778L344.2 -133.791L344.261 -133.804L344.322 -133.817L344.383 -133.83L344.444 -133.843L344.505 -133.856L344.566 -133.869L344.627 -133.882L344.688 -133.895L344.748 -133.908L344.809 -133.921L344.87 -133.934L344.931 -133.947L344.992 -133.96L345.053 -133.973L345.113 -133.985L345.174 -133.998L345.235 -134.011L345.296 -134.024L345.356 -134.037L345.417 -134.05L345.478 -134.063L345.538 -134.076L345.599 -134.089L345.659 -134.101L345.72 -134.114L345.781 -134.127L345.841 -134.14L345.902 -134.153L345.962 -134.166L346.023 -134.179L346.083 -134.191L346.144 -134.204L346.204 -134.217L346.264 -134.23L346.325 -134.243L346.385 -134.256L346.446 -134.268L346.506 -134.281L346.566 -134.294L346.627 -134.307L346.687 -134.32L346.747 -134.333L346.807 -134.345L346.868 -134.358L346.928 -134.371L346.988 -134.384L347.048 -134.396L347.109 -134.409L347.169 -134.422L347.229 -134.435L347.289 -134.448L347.349 -134.46L347.409 -134.473L347.47 -134.486L347.53 -134.499L347.59 -134.511L347.65 -134.524L347.71 -134.537L347.77 -134.55L347.83 -134.562L347.89 -134.575L347.95 -134.588L348.01 -134.601L348.07 -134.613L348.13 -134.626L348.19 -134.639L348.25 -134.652L348.31 -134.664L348.37 -134.677L348.429 -134.69L348.489 -134.703L348.549 -134.715L348.609 -134.728L348.669 -134.741L348.729 -134.753L348.788 -134.766L348.848 -134.779L348.908 -134.791L348.968 -134.804L349.028 -134.817L349.087 -134.83L349.147 -134.842L349.207 -134.855L349.267 -134.868L349.326 -134.88L349.386 -134.893L349.446 -134.906L349.505 -134.918L349.565 -134.931L349.625 -134.944L349.684 -134.956L349.744 -134.969L349.804 -134.982L349.863 -134.994L349.923 -135.007L349.982 -135.02L350.042 -135.032L350.102 -135.045L350.161 -135.058L350.221 -135.07L350.28 -135.083L350.34 -135.096L350.399 -135.108L350.459 -135.121L350.518 -135.133L350.578 -135.146L350.637 -135.159L350.697 -135.171L350.756 -135.184L350.816 -135.197L350.875 -135.209L350.935 -135.222L350.994 -135.235L351.053 -135.247L351.113 -135.26L351.172 -135.272L351.232 -135.285L351.291 -135.298L351.35 -135.31L351.41 -135.323L351.469 -135.335L351.529 -135.348L351.588 -135.361L351.647 -135.373L351.707 -135.386L351.766 -135.398L351.825 -135.411L351.885 -135.424L351.944 -135.436L352.003 -135.449L352.062 -135.461L352.122 -135.474L352.181 -135.487L352.24 -135.499L352.3 -135.512L352.359 -135.524L352.418 -135.537L352.477 -135.55L352.537 -135.562L352.596 -135.575L352.655 -135.587L352.714 -135.6L352.774 -135.612L352.833 -135.625L352.892 -135.638L352.951 -135.65L353.011 -135.663L353.07 -135.675L353.129 -135.688L353.188 -135.701L353.247 -135.713C364.581 -138.12 375.957 -140.422 387.338 -142.724C412.026 -147.719 436.74 -152.719 461.099 -158.814C503.606 -169.344 545.629 -148.728 565.685 -118.025C588.012 -83.8027 587.877 -40.1496 562.437 -5.76678L562.436 -5.76636C519.018 52.9459 432.572 44.3761 400.183 -14.3257C394.635 -24.4642 390.5 -35.8895 387.521 -47.2315Z" stroke="#060D16" stroke-width="4"/>
<path fill-rule="evenodd" clip-rule="evenodd" d="M1418.42 796.816C1469.99 875.214 1557.37 825.749 1599.51 757.751C1641.64 689.753 1630.14 646.17 1577.61 593.205C1525.08 540.241 1444.77 542.658 1429.32 612.939C1413.86 683.22 1366.86 718.418 1418.42 796.816Z" fill="#F3FD58"/>
<path fill-rule="evenodd" clip-rule="evenodd" d="M1401.63 811.678C1453.2 890.076 1540.58 840.612 1582.72 772.613C1624.85 704.615 1613.35 661.032 1560.82 608.068C1508.29 555.103 1427.98 557.52 1412.53 627.801C1397.07 698.082 1350.07 733.28 1401.63 811.678Z" fill="#FBFFB9"/>
<path d="M1582.4 763.803C1558.84 795.724 1524.55 822.014 1490.79 830.184C1473.94 834.261 1457.3 833.813 1442.15 827.402C1427.02 820.995 1413.19 808.553 1402.11 788.296C1390.95 767.9 1385.72 750.778 1384.4 735.533C1383.09 720.299 1385.67 706.812 1390.32 693.657C1394.37 682.176 1399.97 671.009 1405.93 659.118C1406.83 657.331 1407.73 655.528 1408.64 653.705C1415.57 639.794 1422.7 624.818 1428.02 607.453C1438.32 573.891 1462.88 558.279 1490.73 557.848C1518.73 557.414 1550.26 572.349 1573.99 600.501C1597.92 628.909 1611.6 653.868 1613.61 679.515C1615.61 705.116 1606 731.825 1582.4 763.803Z" stroke="#060D16" stroke-width="4"/>
</g>
<defs>
<clipPath id="clip0_336_27004">
<rect width="1440" height="1024" fill="white"/>
</clipPath>
</defs>
</svg>
