<svg width="234" height="108" viewBox="0 0 234 108" fill="none" xmlns="http://www.w3.org/2000/svg">
<g filter="url(#filter0_d_106_2918)">
<rect x="4" y="3" width="226" height="100" rx="12" fill="#060D16"/>
</g>
<path fill-rule="evenodd" clip-rule="evenodd" d="M184.493 103H218.123C224.75 103 230.123 97.6274 230.123 91V15C230.123 8.37258 224.75 3 218.123 3H135.113C124.703 34.384 134.397 57.9815 160.297 85.3533C167.715 93.1928 176.011 99.1057 184.493 103Z" fill="#A235FF"/>
<path fill-rule="evenodd" clip-rule="evenodd" d="M229.856 93.526C230.031 92.7116 230.123 91.8665 230.123 91V15C230.123 8.37258 224.75 3 218.123 3H143.983C141.323 18.5113 144.499 35.8119 152.027 56.548C161.825 83.5396 181.979 101.282 202.042 103H208.387C215.9 102.343 223.243 99.3056 229.856 93.526Z" fill="#CF97FF"/>
<defs>
<filter id="filter0_d_106_2918" x="0" y="0" width="234" height="108" filterUnits="userSpaceOnUse" color-interpolation-filters="sRGB">
<feFlood flood-opacity="0" result="BackgroundImageFix"/>
<feColorMatrix in="SourceAlpha" type="matrix" values="0 0 0 0 0 0 0 0 0 0 0 0 0 0 0 0 0 0 127 0" result="hardAlpha"/>
<feOffset dy="1"/>
<feGaussianBlur stdDeviation="2"/>
<feComposite in2="hardAlpha" operator="out"/>
<feColorMatrix type="matrix" values="0 0 0 0 0.0722222 0 0 0 0 0.0966667 0 0 0 0 0.133333 0 0 0 0.05 0"/>
<feBlend mode="normal" in2="BackgroundImageFix" result="effect1_dropShadow_106_2918"/>
<feBlend mode="normal" in="SourceGraphic" in2="effect1_dropShadow_106_2918" result="shape"/>
</filter>
</defs>
</svg>
