<svg width="234" height="108" viewBox="0 0 234 108" fill="none" xmlns="http://www.w3.org/2000/svg">
<g filter="url(#filter0_d_106_2920)">
<rect x="4" y="3" width="226" height="100" rx="12" fill="#060D16"/>
</g>
<path fill-rule="evenodd" clip-rule="evenodd" d="M230.266 85.0324C219.927 92.0783 207.152 95.2947 191.687 93.3688C138.589 86.7565 124.271 51.8199 107.147 10.0351C106.194 7.71007 105.233 5.36378 104.255 3H218.266C224.894 3 230.266 8.37258 230.266 15V85.0324Z" fill="#73FBF7"/>
<path fill-rule="evenodd" clip-rule="evenodd" d="M230.266 74.103C220.916 78.9726 209.816 80.9879 196.815 79.3688C146.696 73.1275 131.128 41.6512 115.138 3H218.266C224.894 3 230.266 8.37258 230.266 15V74.103Z" fill="#CDFFFE"/>
<defs>
<filter id="filter0_d_106_2920" x="0" y="0" width="234" height="108" filterUnits="userSpaceOnUse" color-interpolation-filters="sRGB">
<feFlood flood-opacity="0" result="BackgroundImageFix"/>
<feColorMatrix in="SourceAlpha" type="matrix" values="0 0 0 0 0 0 0 0 0 0 0 0 0 0 0 0 0 0 127 0" result="hardAlpha"/>
<feOffset dy="1"/>
<feGaussianBlur stdDeviation="2"/>
<feComposite in2="hardAlpha" operator="out"/>
<feColorMatrix type="matrix" values="0 0 0 0 0.0722222 0 0 0 0 0.0966667 0 0 0 0 0.133333 0 0 0 0.05 0"/>
<feBlend mode="normal" in2="BackgroundImageFix" result="effect1_dropShadow_106_2920"/>
<feBlend mode="normal" in="SourceGraphic" in2="effect1_dropShadow_106_2920" result="shape"/>
</filter>
</defs>
</svg>
