<svg width="55" height="52" viewBox="0 0 55 52" fill="none" xmlns="http://www.w3.org/2000/svg">
<path d="M45.8992 9.75H8.83784C6.47607 9.75 4.56152 11.5688 4.56152 13.8125V38.1875C4.56152 40.4312 6.47607 42.25 8.83784 42.25H45.8992C48.261 42.25 50.1756 40.4312 50.1756 38.1875V13.8125C50.1756 11.5688 48.261 9.75 45.8992 9.75ZM45.8992 13.8125V17.266C43.9017 18.8114 40.7171 21.2144 33.9089 26.2789C32.4085 27.4 29.4365 30.0936 27.3685 30.0622C25.3009 30.0939 22.3279 27.3996 20.8282 26.2789C14.0211 21.2151 10.8357 18.8117 8.83784 17.266V13.8125H45.8992ZM8.83784 38.1875V22.479C10.8792 24.0237 13.7742 26.1913 18.1868 29.4738C20.134 30.9299 23.5441 34.1445 27.3685 34.1249C31.1742 34.1445 34.5411 30.9766 36.5495 29.4745C40.962 26.192 43.8577 24.0238 45.8992 22.4791V38.1875H8.83784Z" fill="#060D16"/>
</svg>
