<svg viewBox="0 0 60 60" fill="none" xmlns="http://www.w3.org/2000/svg">
  <path
    fillRule="evenodd"
    clipRule="evenodd"
    d="M34.9393 48.3273C34.9393 48.8443 35.2914 49.4677 36.3254 49.2697C44.3963 46.6662 50.1681 39.2333 50.1681 30.5097C50.1681 19.5639 41.1438 10.69 30 10.69C18.8562 10.69 9.83193 19.5456 9.83193 30.4914C9.83193 39.248 15.611 46.6735 23.6122 49.2843C24.6206 49.4714 24.9873 48.8076 24.9873 48.3346C24.9873 48.1697 24.9846 47.9106 24.9812 47.5732C24.9747 46.943 24.9653 46.0394 24.9653 44.9647C19.3549 46.1565 18.1705 42.3025 18.1705 42.3025C17.2538 40.018 15.9264 39.4057 15.9264 39.4057C14.1002 38.1772 16.0694 38.2029 16.0694 38.2029C18.0935 38.3386 19.1569 40.2454 19.1569 40.2454C20.9464 43.2743 23.8689 42.3979 25.024 41.8918C25.1156 40.8831 25.5689 39.9415 26.3001 39.2406C21.8411 38.7456 17.1328 37.0405 17.1328 29.45C17.1042 27.4747 17.849 25.5665 19.2083 24.1329C18.9992 23.6379 18.3025 21.6211 19.4026 18.8856C19.4026 18.8856 21.0931 18.3502 24.9507 20.917C28.2531 20.0272 31.7322 20.0272 35.0347 20.917C38.8483 18.3539 40.5351 18.8856 40.5351 18.8856C41.6205 21.6138 40.9384 23.6306 40.7367 24.1329C42.0927 25.571 42.8347 27.481 42.8049 29.4573C42.8049 37.0698 38.0892 38.7456 33.6046 39.2333C34.3086 39.8274 34.965 41.0411 34.965 42.9002C34.965 44.6755 34.9535 46.2173 34.9459 47.2361C34.9421 47.7387 34.9393 48.1141 34.9393 48.3273ZM12 0C5.37258 0 0 5.37258 0 12V48C0 54.6274 5.37258 60 12 60H48C54.6274 60 60 54.6274 60 48V12C60 5.37258 54.6274 0 48 0H12Z"
    fill="black"
  />
</svg>
