<svg width="16" height="16" viewBox="0 0 16 16" fill="none" xmlns="http://www.w3.org/2000/svg">
  <path
    fillRule="evenodd"
    clipRule="evenodd"
    d="M7.52858 13.1377C7.78892 13.3981 8.21103 13.3981 8.47138 13.1377C8.73173 12.8774 8.73173 12.4553 8.47138 12.1949L4.94279 8.66634L12.6666 8.66634C13.0348 8.66634 13.3333 8.36786 13.3333 7.99967C13.3333 7.63148 13.0348 7.33301 12.6666 7.33301L4.94279 7.33301L8.47138 3.80441C8.73173 3.54406 8.73173 3.12195 8.47138 2.8616C8.21104 2.60125 7.78893 2.60125 7.52858 2.8616L2.86235 7.52783L2.86191 7.52827M2.71723 8.25486C2.74977 8.33349 2.79799 8.40716 2.86191 8.47108L7.52858 13.1377M2.71723 8.25486C2.68464 8.17626 2.66665 8.09007 2.66665 7.99967ZM2.66665 7.99967C2.66665 7.83096 2.73029 7.66225 2.85758 7.53264Z"
    fill="#060D16"
  />
</svg>
