    <svg width="42" height="40" viewBox="0 0 42 40" fill="black" xmlns="http://www.w3.org/2000/svg">
      <g clipPath="url(#clip0_169_20252)">
        <path
          d="M24.5398 39.9435C24.1874 39.5662 24.039 39.3963 23.872 39.2265C21.3865 36.7926 20.0696 33.8492 19.8841 30.3209C19.8284 29.1322 19.6615 27.9058 19.3276 26.7737C17.3615 20.1888 9.01462 17.4907 3.50569 22.4529C0.278236 25.3586 -0.649193 29.736 0.834693 33.6416C2.17019 37.1511 5.87991 40.1133 10.2945 39.9624C13.9114 39.8303 17.547 39.9435 21.1825 39.9435C22.2027 39.9435 23.2414 39.9435 24.5398 39.9435Z"
          fill="black"
        />
        <path
          d="M24.5398 39.9435C23.2414 39.9435 22.2027 39.9435 21.1825 39.9435C17.547 39.9435 13.9671 39.9812 10.2945 39.9812C5.87991 40.1322 2.17019 37.1511 0.834693 33.6416C-0.649193 29.736 0.278236 25.3397 3.50569 22.4529C9.01462 17.4907 17.3615 20.1888 19.3276 26.7737C19.6615 27.9058 19.8284 29.1322 19.8841 30.3209C20.0696 33.8303 21.3865 36.7926 23.872 39.2265C24.039 39.3963 24.1874 39.585 24.5398 39.9435Z"
          fill="black"
        />
        <path
          d="M33.2574 12.0566C33.1276 12.5472 33.0534 12.7736 32.9977 13C32.2187 16.4151 30.3824 19.0755 27.5073 21.0378C26.5243 21.6982 25.5783 22.4529 24.7807 23.3397C20.2178 28.4151 22.1839 37.1132 29.1767 39.3963C33.276 40.7359 37.4494 39.3208 40.0091 36.0378C42.2906 33.0755 42.9212 28.3208 40.547 24.5283C38.5994 21.4151 36.8373 18.1887 34.9824 15.0189C34.4445 14.1132 33.9252 13.2076 33.2574 12.0566Z"
          fill="black"
        />
        <path
          d="M33.2577 12.0566C33.9255 13.1887 34.4448 14.0944 34.9642 15C36.819 18.1699 38.6182 21.3019 40.5287 24.5095C42.903 28.3019 42.2909 33.0567 39.9908 36.0189C37.4497 39.3208 33.2577 40.7359 29.1585 39.3774C22.1657 37.0755 20.1995 28.3963 24.7625 23.3208C25.5601 22.434 26.506 21.6793 27.4891 21.0189C30.3641 19.0566 32.2004 16.4151 32.9795 12.9812C33.0537 12.7736 33.1279 12.5472 33.2577 12.0566Z"
          fill="black"
        />
        <path
          d="M5.26782 17.9241C5.75009 17.8109 5.99122 17.7543 6.2138 17.6977C9.53399 16.7354 12.7058 17.0562 15.7849 18.66C16.8236 19.2071 17.955 19.6788 19.0865 19.943C25.6712 21.509 32.1632 15.5279 30.7165 8.20713C29.8632 3.92411 26.6172 0.88637 22.5365 0.244861C18.8825 -0.340045 14.4865 1.43354 12.409 5.3958C10.7026 8.64109 8.79205 11.792 6.95574 14.9807C6.43638 15.8675 5.91702 16.7732 5.26782 17.9241Z"
          fill="black"
        />
        <path
          d="M5.26782 17.9244C5.91702 16.7735 6.43638 15.8678 6.95574 14.9622C8.7735 11.7735 10.5913 8.5848 12.409 5.37725C14.505 1.41498 18.8825 -0.3586 22.5365 0.226306C26.6172 0.886683 29.8632 3.90555 30.7165 8.18857C32.1632 15.5282 25.6712 21.5093 19.0865 19.9244C17.955 19.6603 16.8236 19.1697 15.7849 18.6414C12.7058 17.0376 9.53399 16.7169 6.2138 17.6791C5.97267 17.7546 5.75008 17.8112 5.26782 17.9244Z"
          fill="black"
        />
      </g>
      <defs>
        <clipPath id="clip0_169_20252">
          <rect width="42.1053" height="40" fill="black" />
        </clipPath>
      </defs>
</svg>
