<svg width="58" height="58" viewBox="0 0 58 58" fill="none" xmlns="http://www.w3.org/2000/svg">
  <path
    fill-rule="evenodd"
    clip-rule="evenodd"
    d="M16.2894 50.4975C27.4777 56.9785 43.5792 50.0697 48.9603 38.3422C54.3414 26.6148 51.6153 17.763 40.4269 11.282C29.2386 4.80101 16.0551 4.43708 10.674 16.1645C5.2929 27.8919 5.10101 44.0166 16.2894 50.4975Z"
    fill="#F3FD58"
  />
  <path
    d="M43.7343 42.62C39.5044 47.2775 33.1122 50.0308 26.697 50.4335C20.2829 50.8361 13.9122 48.8867 9.68225 44.2293C5.46258 39.5831 4.54963 33.5357 5.78027 27.4261C7.01216 21.3103 10.3871 15.1799 14.665 10.4696C18.8677 5.84206 23.9626 4.60018 29.0842 5.66652C34.235 6.73895 39.4386 10.1559 43.7473 14.9001C48.0511 19.639 50.1339 24.2389 50.1243 28.7811C50.1147 33.3238 48.0122 37.9098 43.7343 42.62Z"
    stroke="white"
  />
</svg>
