<svg width="31" height="32" viewBox="0 0 31 32" fill="none" xmlns="http://www.w3.org/2000/svg">
<path fill-rule="evenodd" clip-rule="evenodd" d="M6.36621 30.2746C14.1157 34.7636 25.2683 29.9783 28.9954 21.8554C32.7226 13.7325 30.8344 7.60134 23.0849 3.11237C15.3354 -1.37661 6.20395 -1.62868 2.47678 6.4942C-1.25039 14.6171 -1.3833 25.7857 6.36621 30.2746Z" fill="#C80F3B"/>
<path fill-rule="evenodd" clip-rule="evenodd" d="M15.0427 23.0527C13.1062 23.0527 11.2043 22.8852 9.34811 22.5621L9.55575 22.5921C9.21078 22.5283 8.90231 22.3908 8.63164 22.1931L8.64093 22.1999C7.98483 21.7633 7.55164 20.9684 7.55164 20.0584C7.55164 19.8142 7.58282 19.5776 7.64119 19.3544L7.63721 19.3717C9.03432 15.2571 10.9933 11.7233 13.4399 8.70569L13.4207 8.72974L13.4273 8.72222C13.6263 8.50733 13.8665 8.33901 14.1325 8.23382L14.1464 8.22931C14.4071 8.11735 14.7083 8.05273 15.0234 8.05273C15.6404 8.05273 16.2056 8.30069 16.6461 8.71396L16.6421 8.7102C19.0854 11.7173 21.0544 15.2698 22.3858 19.1808L22.4535 19.407C22.5158 19.5963 22.5516 19.8142 22.5516 20.0419C22.5516 20.1456 22.5443 20.247 22.5297 20.3455L22.5311 20.335C22.3586 21.5034 21.5499 22.411 20.5283 22.5914L20.515 22.5936C18.8705 22.8859 16.9745 23.0527 15.0433 23.0527C15.0433 23.0527 15.0433 23.0527 15.0427 23.0527ZM14.3508 9.80047C12.0727 12.6302 10.2271 15.9611 8.964 19.6226L8.89833 19.839C8.8897 19.8706 8.88108 19.8961 8.87179 19.9209L8.87312 19.9164C8.8698 19.948 8.86847 19.9848 8.86847 20.0224C8.86847 20.4108 9.05953 20.749 9.34081 20.9233L9.34545 20.9263C9.46221 21.0127 9.59953 21.0758 9.74747 21.1051L9.7541 21.1059C11.3423 21.3884 13.1746 21.55 15.0394 21.55C16.9062 21.55 18.7398 21.3884 20.5296 21.0766L20.3299 21.1051C20.7664 21.0165 21.1094 20.646 21.2116 20.1697L21.2129 20.1614C21.2189 20.1298 21.2229 20.0938 21.2229 20.0562C21.2229 20.0036 21.2156 19.9525 21.2023 19.9044L21.203 19.9082C19.8735 16.0017 18.0187 12.646 15.7054 9.77191L15.7253 9.79671C15.5296 9.64568 15.2881 9.55551 15.0281 9.55551C14.8642 9.55551 14.7077 9.59158 14.5637 9.65695L14.5723 9.65395C14.4868 9.68776 14.4125 9.7381 14.3501 9.80272L14.3508 9.80197V9.80047ZM15.8142 16.3083V13.3027C15.8142 12.8879 15.517 12.5513 15.1508 12.5513C14.7846 12.5513 14.4874 12.8879 14.4874 13.3027V16.3083C14.4874 16.723 14.7846 17.0596 15.1508 17.0596C15.517 17.0596 15.8142 16.723 15.8142 16.3083ZM15.511 19.2161C15.5694 19.1493 15.6165 19.0689 15.649 18.981L15.6503 18.9757C15.6829 18.8915 15.7021 18.7939 15.7034 18.6909V18.6902C15.7014 18.5842 15.6822 18.4835 15.6484 18.3919L15.6503 18.3971C15.6165 18.3039 15.5694 18.2236 15.511 18.1567C15.389 18.0214 15.2211 17.938 15.0367 17.938C14.9472 17.938 14.8616 17.9576 14.7833 17.9936L14.7879 17.9921C14.703 18.0334 14.6307 18.0891 14.569 18.1574C14.5106 18.2243 14.4635 18.3047 14.431 18.3926L14.4297 18.3979C14.3979 18.4843 14.3786 18.585 14.3766 18.6902V18.6909C14.3766 18.6917 14.3766 18.6924 14.3766 18.6932C14.3766 18.8983 14.4503 19.0831 14.569 19.2169C14.6287 19.2875 14.7024 19.3439 14.784 19.3807L14.7879 19.3822C14.8636 19.4205 14.9518 19.4423 15.0447 19.4423C15.2278 19.4423 15.3936 19.3559 15.511 19.2169V19.2161Z" fill="white"/>
</svg>
