<svg width="128" height="128" viewBox="0 0 128 128" fill="none" xmlns="http://www.w3.org/2000/svg">
<circle cx="64" cy="64" r="61" fill="#060D16"/>
<path d="M78.6811 37.1727C76.2181 37.1727 73.7551 37.1727 71.0185 37.1727C68.5555 37.1727 66.0926 37.1727 63.6296 37.1727H58.9773C59.251 37.4411 59.5247 37.7095 59.5247 37.7095L59.7983 37.9779C63.3559 41.1987 64.9979 45.2247 65.2716 50.0559C65.2716 51.6663 65.5452 53.2767 66.0926 54.8871C68.8292 63.7443 80.323 67.2335 87.9856 60.7919C92.3642 57.0343 93.7325 51.1295 91.5432 45.7615C89.9012 40.9303 84.7016 36.9043 78.6811 37.1727Z" fill="white"/>
<path d="M54.8723 62.6708C56.2406 61.8656 57.6089 60.792 58.7036 59.45C64.9978 52.74 62.2612 40.9304 52.683 37.978C46.9361 36.0992 41.1892 37.978 37.6316 42.5408C34.3476 46.5668 33.5266 52.74 36.8106 57.8396C38.4525 60.792 40.3682 63.476 42.0102 66.4284C42.8311 67.7704 43.6521 69.3808 44.4731 70.7228C45.2941 72.0648 45.8414 73.1384 46.9361 74.7488C47.2097 74.212 47.2097 73.6752 47.2097 73.4068C48.3044 68.844 50.7674 65.3548 54.8723 62.6708Z" fill="white"/>
<path d="M71.0184 65.8917C69.6501 65.0865 68.0081 64.5497 66.3662 64.2813C57.3353 62.1341 48.3044 70.1861 50.2201 80.1169C51.3147 85.7533 55.967 90.0477 61.4402 90.8529C66.3662 91.6581 72.6604 89.2425 75.397 83.8745C77.86 79.5801 80.323 75.2857 83.0596 70.9913C83.8806 69.6493 84.4279 68.5757 85.5226 66.9653C84.9752 67.2337 84.4279 67.2337 84.1542 67.2337C79.7756 68.3073 75.397 68.0389 71.0184 65.8917Z" fill="white"/>
</svg>
