<svg width="67" height="14" viewBox="0 0 67 14" fill="none" xmlns="http://www.w3.org/2000/svg">
<g clip-path="url(#clip0_4617_129448)">
<path d="M9.95604 7.60404L5.22163 2.86963L2.86963 5.22163L7.60404 9.95604C7.91594 10.2679 8.33896 10.4432 8.78004 10.4432C9.22113 10.4432 9.64415 10.2679 9.95604 9.95604C10.2679 9.64415 10.4432 9.22113 10.4432 8.78004C10.4432 8.33896 10.2679 7.91594 9.95604 7.60404V7.60404Z" fill="url(#paint0_linear_4617_129448)"/>
<path d="M3.05591 0.489557C2.90148 0.335123 2.71814 0.212618 2.51636 0.129039C2.31458 0.0454595 2.09832 0.00244141 1.87991 0.00244141C1.66151 0.0024414 1.44524 0.0454595 1.24347 0.129039C1.04169 0.212618 0.858346 0.335123 0.703912 0.489557C0.549477 0.643992 0.426973 0.827331 0.343393 1.02911C0.259814 1.23089 0.216797 1.44715 0.216797 1.66556C0.216797 1.88396 0.259814 2.10022 0.343393 2.302C0.426973 2.50378 0.549477 2.68712 0.703912 2.84156L2.08171 4.21935L3.03853 3.28569C3.2247 3.10405 3.37295 2.88726 3.4747 2.6479C3.57646 2.40853 3.62968 2.15135 3.6313 1.89126C3.63292 1.63116 3.58289 1.37334 3.48412 1.13273C3.38535 0.892113 3.2398 0.673499 3.05591 0.489557V0.489557Z" fill="#43CBFF"/>
<path d="M9.9545 0.487119C9.80006 0.332684 9.61672 0.210178 9.41494 0.126597C9.21317 0.0430172 8.9969 0 8.7785 0C8.56009 0 8.34383 0.0430172 8.14205 0.126597C7.94027 0.210178 7.75693 0.332684 7.6025 0.487119L0.487115 7.60395C0.17522 7.91584 0 8.33886 0 8.77995C0 9.22103 0.17522 9.64405 0.487115 9.95595C0.79901 10.2678 1.22203 10.4431 1.66311 10.4431C2.1042 10.4431 2.52722 10.2678 2.83912 9.95595L9.9545 2.8396C10.109 2.68516 10.2316 2.50179 10.3152 2.29997C10.3988 2.09814 10.4419 1.88182 10.4419 1.66336C10.4419 1.4449 10.3988 1.22858 10.3152 1.02676C10.2316 0.824932 10.109 0.641562 9.9545 0.487119Z" fill="#43CBFF"/>
<path d="M53.0437 0C53.3084 5.85908e-05 53.5671 0.078585 53.7872 0.225656C54.0073 0.372727 54.1788 0.58174 54.2801 0.826277C54.3815 1.07081 54.408 1.3399 54.3564 1.59952C54.3048 1.85914 54.1775 2.09765 53.9904 2.2849L51.3994 4.87586L51.0673 5.20848L51.3994 5.5411L53.9904 8.13207C54.1183 8.25554 54.2204 8.40326 54.2906 8.5666C54.3608 8.72994 54.3978 8.90564 54.3993 9.08342C54.4009 9.26121 54.367 9.43753 54.2997 9.60209C54.2324 9.76664 54.133 9.91615 54.0073 10.0419C53.8816 10.1676 53.7321 10.267 53.5675 10.3343C53.4029 10.4016 53.2266 10.4355 53.0488 10.4339C52.8711 10.4323 52.6954 10.3954 52.532 10.3251C52.3687 10.2549 52.221 10.1529 52.0975 10.025L49.5065 7.434L47.281 5.20848L49.5065 2.98296L52.097 0.39393C52.2211 0.269262 52.3686 0.170427 52.5311 0.103141C52.6936 0.0358559 52.8678 0.00145588 53.0437 0.00192997" fill="#060D16"/>
<path d="M62.7663 10.4171H57.707C57.3556 10.4171 57.0185 10.2775 56.77 10.0289C56.5215 9.78042 56.3818 9.44336 56.3818 9.0919C56.3818 8.74044 56.5215 8.40338 56.77 8.15486C57.0185 7.90634 57.3556 7.76673 57.707 7.76673H62.7663C62.8569 7.76855 62.947 7.75242 63.0313 7.71928C63.1157 7.68614 63.1926 7.63664 63.2578 7.57362C63.323 7.51452 63.375 7.44228 63.4102 7.36165C63.4455 7.28102 63.4633 7.19384 63.4625 7.10583C63.4718 7.0304 63.4571 6.95394 63.4203 6.88741C63.3836 6.82089 63.3266 6.76773 63.2578 6.73556C63.1016 6.67332 62.9344 6.64343 62.7663 6.64769H59.8606C58.9427 6.65308 58.0587 6.3019 57.3947 5.66818C57.0814 5.367 56.8294 5.00797 56.6527 4.61093C56.4739 4.20218 56.3816 3.76087 56.3816 3.31473C56.3816 2.86859 56.4739 2.42727 56.6527 2.01852C56.8287 1.62251 57.0808 1.26493 57.3947 0.966106C57.7151 0.662884 58.09 0.423074 58.4997 0.259347C58.9322 0.0854106 59.3945 -0.00232588 59.8606 0.00107159H64.1934C64.5448 0.00107159 64.8819 0.140688 65.1304 0.389206C65.3789 0.637724 65.5185 0.974786 65.5185 1.32624C65.5185 1.6777 65.3789 2.01476 65.1304 2.26328C64.8819 2.5118 64.5448 2.65142 64.1934 2.65142H59.8606C59.7701 2.64966 59.6801 2.66582 59.5958 2.69896C59.5116 2.7321 59.4347 2.78157 59.3696 2.84452C59.3044 2.90362 59.2525 2.97586 59.2172 3.05649C59.1819 3.13712 59.1641 3.22431 59.165 3.31231C59.1638 3.41345 59.186 3.51348 59.2298 3.60465C59.2736 3.69582 59.3378 3.77568 59.4174 3.83804C59.5425 3.94043 59.6995 3.99578 59.8611 3.99445H62.7663C63.2268 3.99137 63.6843 4.06881 64.118 4.22328C64.5229 4.36537 64.8977 4.58182 65.2231 4.86149C65.5372 5.13468 65.7914 5.46979 65.9699 5.84583C66.156 6.23786 66.2506 6.66706 66.2465 7.101C66.2499 7.54652 66.1555 7.98734 65.9699 8.39238C65.6026 9.19663 64.9393 9.82828 64.118 10.1559C63.6889 10.3304 63.2296 10.4191 62.7663 10.4171V10.4171Z" fill="#060D16"/>
<path d="M25.0653 8.84221C25.0699 9.53293 24.9284 10.2168 24.6501 10.849C24.3812 11.4627 23.9963 12.0187 23.5166 12.4866C23.0314 12.9575 22.462 13.3332 21.8381 13.594C21.1894 13.8671 20.4921 14.0055 19.7883 14.001H19.7028C19.3684 13.9912 19.0512 13.8503 18.8198 13.6085C18.5884 13.3668 18.4615 13.0437 18.4665 12.7091V12.7091C18.4637 12.5404 18.4944 12.3728 18.557 12.2162C18.6195 12.0595 18.7126 11.9168 18.8308 11.7964C18.949 11.676 19.0899 11.5803 19.2454 11.5149C19.4009 11.4495 19.5679 11.4156 19.7366 11.4153H19.7675C20.1244 11.4237 20.48 11.3708 20.819 11.2589C21.0889 11.1662 21.338 11.0216 21.5523 10.8331C21.7482 10.6574 21.9101 10.4471 22.0297 10.2128C22.1497 9.97711 22.2451 9.72977 22.3146 9.47462V2.83235C22.3092 2.46567 22.3761 2.10153 22.5115 1.76073C22.6469 1.41993 22.8481 1.10914 23.1037 0.846117C23.3592 0.583095 23.664 0.372995 24.0008 0.227816C24.3375 0.0826369 24.6996 0.00522399 25.0663 0V0" fill="#060D16"/>
<path d="M19.6777 2.58276C20.197 2.58276 20.7047 2.73675 21.1365 3.02527C21.5683 3.31379 21.9048 3.72387 22.1036 4.20366C22.3023 4.68345 22.3543 5.21139 22.253 5.72074C22.1517 6.23008 21.9016 6.69794 21.5344 7.06515C21.1672 7.43236 20.6993 7.68244 20.19 7.78375C19.6806 7.88507 19.1527 7.83307 18.6729 7.63434C18.1931 7.4356 17.783 7.09905 17.4945 6.66726C17.206 6.23546 17.052 5.7278 17.052 5.20848C17.0528 4.51233 17.3297 3.84491 17.8219 3.35266C18.3142 2.86041 18.9816 2.58352 19.6777 2.58276M19.6777 0C18.6476 0 17.6406 0.305471 16.784 0.877786C15.9275 1.4501 15.2599 2.26356 14.8657 3.21528C14.4715 4.16701 14.3683 5.21426 14.5693 6.22461C14.7703 7.23495 15.2664 8.16302 15.9948 8.89144C16.7232 9.61985 17.6513 10.1159 18.6616 10.3169C19.6719 10.5179 20.7192 10.4147 21.6709 10.0205C22.6227 9.62628 23.4361 8.95869 24.0084 8.10216C24.5807 7.24563 24.8862 6.23862 24.8862 5.20848C24.8862 3.82711 24.3375 2.50231 23.3607 1.52553C22.3839 0.548748 21.0591 0 19.6777 0Z" fill="#060D16"/>
<path d="M35.3977 7.58161C35.1856 7.37594 34.9094 7.249 34.6152 7.22187C34.3209 7.19473 34.0262 7.26903 33.78 7.43244C33.3507 7.70306 32.8517 7.84249 32.3443 7.83361C31.9772 7.82642 31.616 7.74031 31.2851 7.58113L34.7658 4.10044L36.6486 2.21768C36.0605 1.38052 35.2389 0.735146 34.2863 0.362126C33.3336 -0.0108945 32.2922 -0.0950277 31.2921 0.120231C30.292 0.335489 29.3774 0.840601 28.6626 1.5725C27.9477 2.30439 27.4644 3.23064 27.2728 4.2356C27.0812 5.24055 27.1899 6.27967 27.5853 7.22322C27.9807 8.16677 28.6453 8.97293 29.4961 9.54106C30.3469 10.1092 31.3462 10.4141 32.3693 10.4177C33.3923 10.4213 34.3938 10.1235 35.2486 9.5614C35.4037 9.45651 35.5337 9.31851 35.6291 9.15735C35.7245 8.99619 35.783 8.81587 35.8004 8.62939C35.8177 8.44291 35.7935 8.2549 35.7295 8.07889C35.6655 7.90289 35.5632 7.74328 35.4301 7.61154L35.3977 7.58161ZM32.3877 2.58216C32.627 2.58292 32.865 2.61671 33.095 2.68257L29.8644 5.9132C29.8045 5.70907 29.7706 5.49821 29.7635 5.28561C29.7535 4.93453 29.8139 4.58502 29.9413 4.2577C30.0686 3.93038 30.2603 3.6319 30.5049 3.37989C30.7495 3.12788 31.0422 2.92744 31.3656 2.79043C31.689 2.65342 32.0365 2.5826 32.3877 2.58216V2.58216Z" fill="#060D16"/>
<path d="M46.0218 7.58161C45.8096 7.37594 45.5335 7.249 45.2392 7.22187C44.9449 7.19473 44.6503 7.26903 44.404 7.43244C43.9747 7.70306 43.4757 7.84249 42.9683 7.83361C42.6013 7.8263 42.24 7.74019 41.9091 7.58113L45.3898 4.10044L47.2726 2.21768C46.6845 1.38052 45.8629 0.735146 44.9103 0.362126C43.9577 -0.0108945 42.9163 -0.0950277 41.9161 0.120231C40.916 0.335489 40.0014 0.840601 39.2866 1.5725C38.5718 2.30439 38.0884 3.23064 37.8968 4.2356C37.7052 5.24055 37.8139 6.27967 38.2093 7.22322C38.6047 8.16677 39.2693 8.97293 40.1201 9.54106C40.9709 10.1092 41.9703 10.4141 42.9933 10.4177C44.0163 10.4213 45.0178 10.1235 45.8726 9.5614C46.0278 9.45651 46.1577 9.31851 46.2531 9.15735C46.3486 8.99619 46.4071 8.81587 46.4244 8.62939C46.4418 8.44291 46.4176 8.2549 46.3535 8.07889C46.2895 7.90289 46.1872 7.74328 46.0541 7.61154L46.0218 7.58161ZM43.0122 2.58216C43.2513 2.58293 43.4892 2.61672 43.719 2.68257L40.4884 5.9132C40.4286 5.70905 40.3947 5.4982 40.3875 5.28561C40.3775 4.93445 40.438 4.58485 40.5654 4.25747C40.6928 3.93009 40.8845 3.63157 41.1293 3.37954C41.374 3.12752 41.6668 2.92711 41.9903 2.79015C42.3138 2.65319 42.6614 2.58247 43.0127 2.58216H43.0122Z" fill="#060D16"/>
</g>
<defs>
<linearGradient id="paint0_linear_4617_129448" x1="9.95845" y1="9.95845" x2="4.04353" y2="4.04353" gradientUnits="userSpaceOnUse">
<stop stop-color="#43CBFF"/>
<stop offset="0.14" stop-color="#45B8FB"/>
<stop offset="0.725" stop-color="#4D6EEB"/>
<stop offset="0.996" stop-color="#5151E5"/>
</linearGradient>
<clipPath id="clip0_4617_129448">
<rect width="66.2456" height="14" fill="white"/>
</clipPath>
</defs>
</svg>
